<?xml version="1.0" encoding="UTF-8"?>
<svg id="Capa_1" data-name="Capa 1" xmlns="http://www.w3.org/2000/svg" viewBox="0 0 568.33 412.13">
  <defs>
    <style>
      .cls-1 {
        fill: #e7441e;
      }

      .cls-2 {
        fill: #32af87;
      }

      .cls-3 {
        fill: #06633d;
      }

      .cls-4 {
        fill: #f9e5bf;
      }

      .cls-5 {
        fill: #5f9d46;
      }
    </style>
  </defs>
  <path class="cls-1" d="M346.39,171.63c-16.19-3.8-28.14-21.02-31.26-36.73-7.09-35.61,22.93-68.1,59.19-60.4,11.43,2.43,21.91,8.73,29.3,17.79,3.64,4.47,6.51,9.56,8.4,15,.96,2.77,1.67,5.63,2.12,8.53.23,1.48.39,2.97.48,4.46.08,1.26.44,3.12.17,4.33-.34,1.53-1.6,1.08-2.8,1.09-15.52.16-31.06-.1-46.59-.06-.77,1.2-2.25.9-3.1,1.45-3.51,2.26-4.14,5.55-5.05,9.05-.13.5-1.08.39-1.18.84-2.54,11.53-6.68,23.42-9.68,34.64Z"/>
  <path class="cls-1" d="M437.5,79.27c4.22-.85,7.46,4.23,4.72,7.18-.65.69-9.79,5.36-11.41,6.12-2.44,1.14-7.82,3.89-10.24,3.41-3.07-.61-4.45-5.12-1.97-7.16l18.89-9.54Z"/>
  <path class="cls-1" d="M362.27,35.22c2.8-2.26,6.52-.14,7.04,3.18.53,3.36.53,17.11,0,20.48-.73,4.64-7.88,4.23-8.42,1.25.64-6.84-.85-15.14-.03-21.78.11-.92.73-2.57,1.41-3.12Z"/>
  <path class="cls-1" d="M310.48,87.89c4.26,3.27,1.07,8.87-3.53,8.09-1.33-.23-15.37-7.6-16.72-8.71-3.81-3.14-1.72-8.74,3.12-8,1.53.23,15.61,7.45,17.13,8.62Z"/>
  <path class="cls-1" d="M394.91,70.51c-1.67-1.34-1.57-3.85-.92-5.7.42-1.2,8.74-13.07,9.89-14.28,3.72-3.89,9.34.43,8.12,4.46-.33,1.09-8.41,12.15-9.76,13.85-1.81,2.27-4.7,3.8-7.34,1.67Z"/>
  <path class="cls-1" d="M318.74,49.7c1.25-1.33,4.86-1.97,6.16-.12,1.71,4.6,11.85,14.29,10.49,18.88-.89,2.99-5.26,3.75-7.65,1.25-.9-.94-9.23-13.27-9.49-14.08-.46-1.45-.56-4.81.49-5.93Z"/>
  <path class="cls-1" d="M310.56,151.86c2.87,2.34,2.34,5.24-.47,7.34-1.71,1.28-12.53,8.01-13.99,8.41-4.4,1.23-6.92-4.41-4.53-7.3,2.27-2.74,11.76-6.13,14.78-9.1,1.3-.34,3.15-.22,4.21.65Z"/>
  <path class="cls-2" d="M398.67,296.74c.35.11,3.7,4.47,4.82,5.46,11.33,10.05,26.44,11.11,41.04,9.58,4.9-.51,9.3-2.78,13.67-4.76v58.63s-107.58,0-107.58,0v-67.99c0-.06.84-.91.91-.91h47.14ZM378.48,316.75c.54,3.3-2.23,9.7,2.18,10.68l36.14.14c5.17.24,5.68-10.38,1.07-11.37-4.7.21-38.1-.96-39.39.54Z"/>
  <path class="cls-4" d="M473.31,151.69l-19.34,77.36c-2.34-.13-3.91-1.55-6.34-1.81-1.8-.19-6.56.72-6.87.55-.21-.13-1.71-2.84-3.15-3.84-3.02-2.11-7.4-2.96-10.84-1.55-.19-3.8.24-7.7,0-11.48,5.82.22,9.47-3.07,11.32-8.32,1.49-4.27,5.35-20.67,5.03-24.65-.15-1.85-.97-3.55-2.42-4.73-1.69-1.38-3.31-1.62-5.4-1.62h-3.74c-10.24,0-20.55-.74-30.77.04-.39.03-.82-.05-1.21,0-5.7.8-8.26,5.15-9.67,10.27-1.21,4.4-4.85,18.57-4.83,22.37,0,2.11.43,4.2,2.39,5.32,1.3.74,2.48.75,3.94.76,1.79,0,3.58.04,5.35.21.65.06,1.11.13,1.6.57.02.02.05.04.07.06.05.05.1.1.15.15,1.22,1.39.47,3.94.48,5.55,0,.82,0,1.63,0,2.44s0,1.69,0,2.53c0,1.21-.01,2.42-.02,3.64,0,.43-.01.87-.01,1.29-.02,2.46-.05,4.93-.07,7.39-.02,2.85-.04,5.69,0,8.54,0,.33-.16,1.88.02,2.04-4.68-3.87-10.32-8.58-16.76-4.97-.23.13-3.98,3.16-4.18,3.36-2.46,2.5-3.11,7.62-2.58,10.94.56,3.52,4.52,7.06,4.8,10.61h-30.22l29.1-112.33,94.2-.68Z"/>
  <path class="cls-2" d="M497.48,133.55l-25.39,102.14c-2.27-.82-3.44-2.66-6.03-3.33-1.46-.38-2.76-.37-4.24-.3v-1.49c5.14-26.09,15.54-52.84,20.37-78.77.76-4.05.8-8.12-4.32-8.62-29.75.5-59.81-.62-89.39.26-3.35.1-10.05-.13-12.78.39-2.14.41-4.04,3.8-4.51,5.77-7.09,29.42-15.4,58.54-22.71,87.9-2.03,8.16-5.61,19.17-6.8,27.04-.61,4.05.03,7.42,4.42,8.59h39.18s6.41,12.73,6.41,12.73h-66.48l39.45-148.21c.37-2.09,2.2-4.1,4.36-4.1h128.43Z"/>
  <path class="cls-4" d="M459.41,244.76c.1-2.47-.62-4.5,2.82-4.65,2.09-.09,4.46,1.85,4.91,3.87-.52,17.78,4.87,46.77-14.34,56.72-10.98,5.68-34.68,3.76-44.46-4.57-4.98-4.24-18.81-30.73-22.38-38.06-.66-1.35-2.09-3.6-2.42-4.83-1.83-6.77,4.94-8.22,9.04-3,2.46,3.13,5.89,12.15,8.22,14.14,1.89,1.61,4.45,1.21,5.71-.9l.36-55.85c1.25-7.9,10.46-7.03,11.39-.58,1.68,11.62-1.32,26.8.04,38.64.54,4.71,5.85,6.18,7.55,2.09,1.88-4.51-3-17.87,4.83-17.55,8.69.36-.3,20.69,6.8,22.28,8.67,1.95,3.15-12.37,5.59-16.37.42-.69,3.12-1.13,3.95-1.08,8.01.45.19,19.09,6.93,20.97,2.7.75,4.15-1.76,4.84-3.99.88-2.81.48-4.41.6-7.25Z"/>
  <path class="cls-5" d="M266.96,262.54c6.21,5.03,11.95,10.89,18.09,16.05,1.88,1.58,11.03,7.61,11.08,9.47.01.57-.33,1.32-.83,1.42-1.02.19-16.76-6.84-19.15-7.9-16.95-7.58-33.24-16.92-49.24-25.84-1.15-.64-5.15-1.74-5.48-2.08-4.24-4.4-13.14-10.98-18.81-14.13-1.56-.87-6.36-3.32-7.69-1.46-2.7,3.76,11.52,19.09,8.8,24.82-4.44-.54-8.74-3.51-12.09-6.34-2.59-2.19-7.39-8.81-10.57-8.8l-28.7,15.14c-1.33-9.48-1.27-19.05-1.24-28.61l29.83-20.46c3.69-2.53,10.16-9.19,14.48-8.23,1.37.3,7.36,5.51,8.91,6.82,16.14,13.74,30.11,30.66,48.54,41.51,5.59,3.29,8.7,4.27,14.05,8.61Z"/>
  <path class="cls-5" d="M296.55,209.37c10.31,10.16,20.92,20.04,32.03,29.37.45,1.01-2.44,12.09-3.06,12.08-5.1-3.05-10.68-5.4-15.84-8.31-12.82-7.22-25.14-16.48-37.49-24.35-2.87-1.83-11.77-7.54-10.31.16,1.15,6.05,10.87,17.78,13.48,24.64.98,2.56,2.63,5.86-.29,7.24.27-2.03-1.08-.63-1.82-.97-5.27-2.45-10.26-5.8-15.06-9.05-14.13-9.58-27.37-20.68-41.14-30.77,5.09-4.62,10.64-8.72,16.02-12.98,7.38-5.84,16.26-13.9,23.91-19,3.23-2.15,4.71-3.31,8.43-.68,3.36,2.37,8.27,9.41,11.44,12.73,6.42,6.72,13.07,13.37,19.69,19.89Z"/>
  <path class="cls-4" d="M430.87,201.42c-.88,1.78-2.8,2.4-4.71,2.24-.33-1.82-3.33-5.72-4.88-6.91-8.39-6.43-19.34-2.51-22.32,7.51-2.01,0-4.03,0-6.04,0-1.22-.57-.19-1.92,0-2.71.78-3.15,1.14-6.32,1.81-9.38.41-1.88,2.86-12.73,3.62-13.3.2-.03.42.04.6,0,.33-.08.82.02,1.21,0,3.67-.25,7.75.03,11.48,0,8.05-.07,16.13.05,24.18,0,1.08,1.1-4.56,19.61-4.97,22.54Z"/>
  <path class="cls-5" d="M129.4,339.65l-35.65-67.08c1.28-1.21,11.28,8.98,12.4,10.26,13.5,15.47,20,36.93,23.26,56.82Z"/>
  <path class="cls-5" d="M195.48,295.71c-.4.57-.46,1.42-1.07,2.26-14.72,20.31-22.38,35.53-31.61,58.49-.37.91.35,1.64-1.36,1.32.9-5.79.97-11.67,2.21-17.42,3.11-14.46,14.28-32.56,25.79-41.6,2.25-1.77,4.82-3.13,7.36-4.42.58.87-1.04.98-1.32,1.37Z"/>
  <path class="cls-5" d="M123.36,253.23l-2.11,23.56c-4.32-4.72-9.18-8.87-13.82-13.24-.51-.48-.55-.41-.38-1.25l16.32-9.07Z"/>
  <path class="cls-5" d="M294.41,351.14l-29,13.29c-.69-.68,3.88-4.85,4.55-5.42,6.66-5.67,15.73-9.05,24.46-7.87Z"/>
  <path class="cls-5" d="M241.43,332.19c1.34,1.22,2.75,1.99,4.01,3.55,4.63,5.73,6.31,13.72,7.26,20.84l-15.7-27.5c2.03-.67,3.47,2.24,4.44,3.12Z"/>
  <path class="cls-5" d="M458.8,252.01c-.24-2.15-.37-5.51.6-7.25-.12,2.84.28,4.44-.6,7.25Z"/>
  <path class="cls-5" d="M223.69,346.31l-19.49,5.59-24.62,11.03c4.69-5.7,11.66-13.13,18.7-15.75.86-.32,3.94-1.44,4.47-1.59,7.21-1.99,13.84-1.14,20.93.71Z"/>
  <path class="cls-5" d="M79.08,318.08c4.01,1.85,8.99,3.9,13.05,6.58,12.39,8.18,22.48,21.91,26.71,36.14-1.2-1.74-3.66-3.07-4.94-4.42-7.4-7.89-14.5-16.26-22.56-23.68-6.2-5.71-13.42-12.23-21.16-15.41-.16-1.02,1.47-.66,2.1-.59,1.15.12,6.04,1.04,6.8,1.39Z"/>
  <path class="cls-5" d="M93.45,271.36c.39.2.39.4,0,.6v-.6Z"/>
  <path class="cls-5" d="M129.71,340.26c.39.2.39.4,0,.6v-.6Z"/>
  <path class="cls-3" d="M378.48,316.75c1.29-1.5,34.69-.33,39.39-.54,4.61.99,4.1,11.61-1.07,11.37l-36.14-.14c-4.42-.98-1.64-7.38-2.18-10.68Z"/>
  <path class="cls-3" d="M521.66,147.76c.67-6.12-1.99-13.56-6.35-17.83-2.7-2.66-5.96-3.2-9.37-4.84-30.21-.01-60.45.01-90.66,0-.42.67-1.3.71-2.14.67-.02,0-.04,0-.06,0-.2,0-.39-.02-.57-.03-.18-.01-.34-.02-.49-.02h-.05c-3.76.04-7.53.05-11.3.05-2.58,0-5.16,0-7.74-.02-3.94-.01-7.88-.04-11.82-.06h-.03c-4.77-.02-9.66-.34-14.42-.03-.3.01-.59.04-.88.06-.16.01-.31.03-.47.05-3.44.35-6.56,1.45-8.22,4.78-.67,1.35-5.64,20.7-10.78,41.07-4.8,19.06-9.73,39.02-11.4,45.95-.67.16-1.17-.11-1.77-.33-9.81-3.56-21.08-12.06-31.16-16l-31.71-33.56c-13.75-7.95-22.23,5.14-32.12,12.06-.54.38-2.53,2.05-2.96,1.57-.48-3.78.67-7.47.64-11.2-.15-18.42-9.12-38.95-25.34-48.4-4.46-2.61-10.14-5.37-15.19-5.67-.08-1.4-.21-1.08.9-1.21,3.43-.41,7.13-.5,10.59-.6,4.2-1.37,9.22-.25,13.63-.6,1.86-.15,1.55.3,1.48-1.81-.96-2.28-.33-2.44-2.42-4.23-.1-.08-.9.24-1.11-.08-.29-.43.08-1.43-.13-1.86-.42-.84-1.99-.94-1.17-3.5,2.46-.02,2.81,2.27,3.62,3.02,2.46,2.29,7.46,8.56,8.97,9.63,2.09,1.47,8.24,1.92,11.11,2.61,3.21.77,6.56,2.14,9.82,2.87,1.22.04-1.8-8.88-2.11-9.68-.03-.07-.74-.3-1.05-1.05-.57-1.39-1.14-3.48-1.37-5,1.48.84,2.22,2.67,4.22,2.43.24,1.02-.76.36-1.08.68-.21.21.51,1.07.47,1.12,3.18,3.67,5.31,8.97,8.19,12.66,2.61,3.34,3.41,2.12,5.85,3.21,8.09,3.61,15.36,8.59,22.52,13.76,2.45.03.94-5.87.64-7.3-8.4-39.36-54.01-62.23-89.87-41.6-3.25,1.87-5.64,4.18-8.82,6.1-.18.11-3.64,4.85-3.16,2,.46-2.71,4.05-6.08,5.77-8.16,5.03-6.09,10.58-11.85,16.57-17.26,4.65-4.2,9.7-8.14,14.53-12.11.37-2.76-4.4-2.39-5.46-4.5,2.38-.82,8.17.94,9.83.51,1.07-.28,5.34-4.28,6.9-5.25,7.22-4.48,14.76-6.87,22.89-9.14,2.3-1.68-.91-3.07-2.33-3.78-5.66-2.8-19.19-4.56-25.49-4.1-23.53,1.69-46.44,17.62-55.42,39.47-1.78,4.33-2.36,9.33-5.03,13.09-.81,0-3.38-10.59-3.99-12.2-4.36-11.28-16.48-24.71-27.33-30.81-17.64-9.91-41.34-11.42-58.31.39l1.22,2c5.01.76,10.24,1.38,15.12,2.7,4.14,1.13,8.09,3.69,11.95,4.68,3.01.51,11.95-.96,13.9.6.45.36.88.15.6,1.2-2.18.5-5.49,1.04-7.5,1.83-2.11.83,3.93,3.62,4.24,3.87,10.95,9.01,19.21,18.29,28.07,29.49.75.95,5.05,3.85,3.59,5.31-1.5,1.5-4.27-2.83-5.21-3.55-11.13-8.48-33.44-12.8-47.11-11-.23.03-2.83.99-4.14,1.3-15.83,3.83-30.18,13.98-38.68,27.81-2.21,3.6-7.22,13.12-7.62,17.18-.07.7.02,1.42.01,2.12,3.48.48,5.89-2.69,8.76-4.23,2.61-1.41,5.77-3.1,8.47-4.22,4.66-1.95,12.74-3.21,16.35-5.43,2.68-1.65,6.45-6.75,9.19-9.05,1.25-1.05,3.22-.89,1.95-2.42,2.54.21,3.48-2.57,5.76-3.02,1.43-.29.74.64.24,1.32-2.41,3.29-4.91,5.84-7.01,9.41-.55.94-1.97.6-1.41,2.55,16.4-2.54,33.15-2.47,49.55.01l-8.58,1.98c-31.27,8.11-52.77,39.12-48.17,71.39.36,2.59,2.11,9.44,3.87,11.24,1.17,1.2,2.25-1.83,2.75-2.58,4.3-6.48,8.37-12.8,13.93-19.31,1.28-1.49,6.48-5.72,7.01-6.73.35-.67.11-1.11.19-1.61-.35-.56-.42-1.2-.6-1.81-.91-3.09-1.09-7.71,0-10.88.02-1.98-.13-4.04,0-6.04,1.85-.62,1.29,2.49,1.2,3.62,1.23,3.43,1.61,7.25,2.97,10.64.22.57-.33,1.11.93.82,1.75-.41,10.87-10.32,13.47-11.65l.15-1.62.61-9.67c.91.24,1.4,2.14,1.81,3.02.28.62,1.04,3.45,1.24,3.6,1.4.96,5.23-3.8,6.48-4.78,3.16-2.49,13.27-10.51,16.26-11.4.8-.24,1.81-.35,1.39.79-.52,1.43-2.43,4.05-3.22,5.84-14.11,31.96-23.29,66.52-27.58,101.04l-25.93,16.42c-1.92.47-2.29-1.11-2.99-1.43-5.54-2.43-11.11-4.45-16.12.52-.17.17-2.78,3.58-2.89,3.79-6.78,13.16,2.63,32.83,8.03,45.17-.6.47-6.42-2.11-7.59-2.38-3.47-.79-11.06-1.88-14.47-1.85-.88.01-5.22.53-5.92.73-4.01,1.16-3.71,7.56-3.18,10.79,1.11,6.66,9.04,17.68,13.85,22.72,1.8,1.89,11.69,9.43,11.88,10.19.32,1.31-.39.73-.92.88-9.63,2.8-19.16,7.28-24.08,16.42-3.67,6.81-5.95,15.88,4.72,16.26h452.14c3.27-.25,7.28-1.77,7.99-5.3,1.09-5.43-2.49-6.06-5.29-6.81h-13.9l-.04-129.71c-.37-.83.59-1.75.65-2.04,5.19-28.66,15.3-58.02,21.16-86.72ZM256.99,177.43c3.24-2.15,4.71-3.32,8.43-.68,3.36,2.38,8.27,9.41,11.44,12.73,6.42,6.72,13.07,13.37,19.69,19.89,10.31,10.16,20.91,20.04,32.03,29.37.45,1.01-2.44,12.09-3.07,12.08-5.09-3.06-10.68-5.4-15.84-8.31-12.82-7.22-25.14-16.48-37.48-24.35-2.87-1.83-11.77-7.54-10.31.16,1.15,6.05,10.87,17.77,13.49,24.63.97,2.56,2.63,5.86-.28,7.24.27-2.02-1.08-.62-1.82-.97-5.27-2.44-10.26-5.8-15.06-9.05-14.13-9.58-27.37-20.68-41.14-30.77,5.09-4.62,10.64-8.72,16.02-12.98,7.38-5.84,16.26-13.9,23.91-19ZM151.78,209.4c2.02-19.98,6.52-40.98,12.26-60.26,1.8-6.03,4.15-11.95,5.87-18.01,2.06-.19,2.81,1.98,4.1,2.99,5.83,4.54,11.61,9.15,16.75,14.53,2.43-2.98,1.54-6.9,4.23-9.66.6.36.27,1.72.3,2.41.13,3.61-.09,7.27,0,10.88.18.47.08,1.13.58,1.54l13.02,12.96c.96-2.67,2.58-5.52,3.18-8.3.36-1.69-.76-5.44,1.35-4.99v14.81c0,.21-.63.87-.61,1.76.04,1.74,8.61,10.54,10.26,12.9.77,1.08,4.1,5.8,3.56,6.72l-17.74,13.2c-5.33-3.16-10.01-9.29-16.89-8.25-5.5.83-15.2,9.82-20.13,13.24l-20.7,13.32c.15-3.8.22-8.02.6-11.79ZM107.05,262.3l16.32-9.07-2.11,23.56c-4.32-4.72-9.18-8.87-13.82-13.24-.51-.48-.55-.42-.38-1.25ZM93.45,271.36c.39.2.39.41,0,.6v-.6ZM113.9,356.37c-7.41-7.89-14.51-16.26-22.57-23.67-6.2-5.71-13.41-12.23-21.16-15.42-.16-1.02,1.47-.66,2.1-.59,1.15.12,6.04,1.03,6.8,1.38,4.01,1.85,8.99,3.9,13.04,6.58,12.39,8.19,22.49,21.91,26.72,36.14-1.2-1.74-3.67-3.07-4.94-4.43ZM93.75,272.57c1.27-1.21,11.27,8.97,12.4,10.26,13.5,15.48,20,36.93,23.26,56.81l-35.65-67.07ZM129.71,340.86v-.6c.39.2.39.4,0,.6ZM151.14,234.28l29.83-20.45c3.69-2.53,10.16-9.19,14.48-8.23,1.37.3,7.36,5.51,8.91,6.82,16.14,13.75,30.11,30.67,48.54,41.51,5.59,3.29,8.7,4.27,14.05,8.61,6.21,5.03,11.95,10.89,18.1,16.06,1.88,1.57,11.03,7.61,11.08,9.47.02.57-.33,1.32-.83,1.42-1.02.19-16.76-6.84-19.15-7.91-16.95-7.57-33.24-16.92-49.23-25.83-1.16-.64-5.15-1.74-5.48-2.08-4.24-4.4-13.13-10.98-18.8-14.13-1.56-.87-6.36-3.32-7.69-1.46-2.7,3.76,11.52,19.09,8.8,24.82-4.44-.54-8.74-3.51-12.09-6.33-2.6-2.19-7.39-8.81-10.58-8.81l-28.7,15.15c-1.32-9.48-1.27-19.05-1.24-28.62ZM161.44,357.78c.9-5.78.97-11.66,2.21-17.42,3.12-14.45,14.28-32.56,25.79-41.59,2.25-1.77,4.82-3.13,7.36-4.43.58.88-1.05.98-1.32,1.37-.4.57-.46,1.42-1.07,2.26-14.71,20.31-22.38,35.53-31.6,58.49-.37.92.35,1.64-1.36,1.32ZM204.2,351.89l-24.62,11.03c4.69-5.7,11.66-13.13,18.7-15.74.86-.32,3.94-1.45,4.47-1.59,7.21-1.98,13.84-1.14,20.93.71l-19.49,5.58ZM236.99,329.07c2.03-.67,3.47,2.24,4.44,3.12,1.34,1.22,2.74,1.99,4,3.55,4.62,5.72,6.31,13.71,7.26,20.84l-15.71-27.5ZM265.4,364.43c-.69-.68,3.89-4.85,4.55-5.41,6.66-5.67,15.73-9.06,24.46-7.87l-29.01,13.29ZM340.95,365.04c-.07.83-.89.56-1.48.63-2.27.28-11.26.37-13.33-.02-2.14-.4-1.13-1.73-1.51-2.42-4.86-8.82-9.84-14.22-16.92-21.15-.35-.34-.38.66-1.21-1.21-15.55-4.72-13.65-6.69-31.43-3.63-.19.04-.41-.03-.6,0-.4,1-1.32,1.31-2.19,1.74-2.09,1.04-4.17,2.09-6.27,3.1.05-1.92-.59-3.67-1.21-5.44-1.2-3.44-2.53-5.48-4.24-8.3-3.02-4.98-5.83-7.08-10.87-9.83-1.23-.67-4.04-2.11-5.57-2.58-8.34-2.58-15.54-.82-23.44,1.98-2.03.73-7.99,3.94-9.61,5.2-.28.22-3.26,4.72-3.66,1.76-.08-.58,3.56-9.26,4.06-11.03l1.97-10.73c.1-.3.31-.34.59-.31-.05-1.95-1.65-6.27,1.48-6.07,37.18.31,74.38-.31,111.54.03,3.61.03,9.84-.59,13,0,.69.13,1.22.21,1.43.99l-.52,67.3ZM350.62,365.64v-67.99c0-.07.84-.91.91-.91h47.14c.35.11,3.71,4.46,4.82,5.46,11.33,10.05,26.44,11.11,41.04,9.58,4.89-.51,9.3-2.78,13.67-4.76v58.62s-107.58,0-107.58,0ZM452.79,300.7c-10.97,5.68-34.68,3.76-44.45-4.57-4.99-4.24-18.82-30.73-22.38-38.07-.66-1.36-2.09-3.6-2.42-4.83-1.83-6.77,4.94-8.23,9.04-3,2.46,3.13,5.89,12.15,8.22,14.14,1.89,1.61,4.45,1.2,5.71-.9l.35-55.85c1.25-7.91,10.46-7.03,11.39-.59,1.68,11.62-1.32,26.79.04,38.63.54,4.71,5.86,6.18,7.56,2.09,1.88-4.51-3-17.88,4.83-17.56,8.68.36-.3,20.69,6.79,22.28,8.68,1.94,3.15-12.38,5.6-16.38.42-.69,3.12-1.13,3.95-1.08,8.01.45.19,19.09,6.93,20.96,2.69.76,4.14-1.76,4.85-3.99-.25-2.14-.38-5.51.6-7.25.1-2.47-.62-4.5,2.81-4.65,2.09-.1,4.46,1.85,4.91,3.87-.51,17.79,4.87,46.77-14.34,56.72ZM375.43,254.1c.56,3.52,4.52,7.06,4.8,10.61h-30.22l29.1-112.33,94.2-.68-19.34,77.36c-2.34-.13-3.91-1.55-6.34-1.81-1.8-.19-6.56.72-6.87.55-.21-.13-1.71-2.84-3.15-3.84-3.02-2.11-7.4-2.96-10.84-1.55-.19-3.8.24-7.7,0-11.48-.11-1.77-.32-5.66-.6-7.25-.33-1.82-3.33-5.72-4.88-6.91-8.39-6.43-19.34-2.51-22.32,7.51-.71,2.37-.68,4.45-.62,6.85,0,.13,0,.27.01.4,0,.1.64.95.65,2.04.03,1.92.04,3.84.04,5.77,0,.84,0,1.69,0,2.53,0,1.21-.01,2.42-.02,3.64,0,.43-.01.87-.01,1.29-.02,2.46-.05,4.93-.07,7.39-.02,2.85-.04,5.69,0,8.54,0,.68.01,1.36.02,2.04-4.68-3.87-10.32-8.58-16.76-4.97-.23.13-3.98,3.16-4.18,3.36-2.46,2.5-3.11,7.62-2.58,10.94ZM472.1,235.69c-2.27-.82-3.44-2.66-6.03-3.33-1.46-.38-2.76-.37-4.24-.3v-1.49c5.14-26.09,15.54-52.84,20.37-78.76.76-4.05.8-8.12-4.31-8.62-29.75.5-59.81-.62-89.39.26-3.35.1-10.05-.13-12.78.39-2.14.41-4.04,3.8-4.51,5.77-7.09,29.41-15.4,58.54-22.71,87.9-2.03,8.16-5.61,19.17-6.8,27.04-.61,4.05.03,7.42,4.42,8.58h39.18s6.41,12.73,6.41,12.73h-66.48l39.46-148.22c.37-2.09,2.2-4.1,4.36-4.1h128.43l-25.39,102.14Z"/>
  <path class="cls-1" d="M438.09,202.59c-1.85,5.25-5.5,8.55-11.32,8.32-.11-1.77-.32-5.66-.6-7.25,1.91.16,3.82-.47,4.71-2.24.41-2.92,6.05-21.44,4.97-22.54-8.05.05-16.13-.07-24.18,0-3.73.03-7.81-.25-11.48,0-.39.02-.88-.08-1.21,0-.19.04-.41-.03-.6,0-.76.57-3.22,11.42-3.62,13.3-.67,3.06-1.03,6.23-1.81,9.38-.2.79-1.23,2.14,0,2.71,2.01,0,4.04,0,6.04,0-.71,2.37-.68,4.45-.62,6.85-.48-.44-.94-.51-1.6-.57-1.78-.17-3.56-.2-5.35-.21-1.46,0-2.64-.02-3.94-.76-1.96-1.12-2.38-3.22-2.39-5.32-.01-3.79,3.62-17.96,4.83-22.37,1.41-5.12,3.97-9.47,9.67-10.27.39-.05.82.03,1.21,0,10.22-.78,20.53-.04,30.77-.04h3.74c2.09,0,3.71.24,5.4,1.62,1.45,1.19,2.27,2.88,2.42,4.73.33,3.97-3.53,20.38-5.03,24.65Z"/>
</svg>