<?xml version="1.0" encoding="UTF-8"?>
<svg id="Capa_1" data-name="Capa 1" xmlns="http://www.w3.org/2000/svg" viewBox="0 0 265.51 223.92">
  <defs>
    <style>
      .cls-1 {
        fill: #f28a38;
      }

      .cls-1, .cls-2 {
        stroke-width: 0px;
      }

      .cls-2 {
        fill: #fff;
      }
    </style>
  </defs>
  <path class="cls-1" d="m157.31,23.17c.63-.59,1.18-.43,1.89,0,1.36.82,2.82,1.49,4.23,2.22.29.15.7.23.85.47,1.42,2.34,3.66,2.84,6.17,3.28,2.35.4,3.8,2.13,4.53,4.54.71,2.35,1.26,2.56,3.53,1.77.79-.28,1.41.06,1.35.48-.31,1.94,1.61,1.51,2.29,2.35.91,1.12,1.94,1.31,3.31.92,1.09-.31,2.03-.05,2.75,1.19.92,1.59,2.11,3.06,3.56,4.25.32.26.39.48.48.89.32,1.47,1.94,1.92,3.15,1.01.27-.2.28-.42.2-.67-.23-.77-.75-1.39-1.51-1.52-1.87-.33-3.08-1.38-4.01-2.98-.33-.58-.59-1.16-.24-1.6.46-.59,1.1-.08,1.54.21,2.16,1.4,4.02,3.16,5.95,4.86,3.05,2.69,6.08,5.53,10.33,6.34.6.11,1.31.15,1.67.81-.44.64-1.99.11-1.7,1.01.34,1.05,1.69.9,2.72.77.23-.03.52-.2.63-.39.45-.79.93-.84,2-.88,3.32-.15,5.22,2.29,7.41,4.06,1.89,1.53,3.53,1.92,5.37.46,1.38-1.1,2.55-.03,3.68.4,1.3.5,2.26,1.59,2.34,3.12.03.58-.42.94-.98,1.07-.39.09-.85.16-.86.63,0,.46.5.56.84.72.73.35,2.07.53,1.67,1.46-.38.88-1.6.25-2.45.02-.56-.15-1.15-1.05-1.67-.17-.46.77-.68,1.71.09,2.52.54.58,1.1.85,1.83.27,1.48-1.17,2.7.17,4.02.47.53.12,1.03.78,1.49.03.4-.65-.37-.87-.66-1.22-.36-.43-.84-.75-1.21-1.07,2.16.66,4.41,1.34,6.65,2.06.54.17.95.11,1.48-.1,1.73-.68,3.35-.38,5.02.49,1.53.8,2.88,2,4.69,2.26.41.06.77.42,1,.86,1.02,1.97,2.94,3.07,4.53,4.48,1.22,1.08,2.68,1.53,4.37,1.14,1.49-.34,3.45.87,3.83,2.25.05.18.05.38.02.56-.12.94-3.36,3.64-4.34,3.59-2.95-.17-5.84.51-8.82.29-2.1-.16-3.84,1.47-5.42,2.7-.93.73-1.73,1.07-2.79.96-1.75-.19-2.03-.78-1.13-2.4.22-.39.38-.8.06-1.03-.39-.28-.7.15-.93.46-.23.31-.6.66-.6.99.04,1.97-1.47,2.21-2.81,2.62-3.89,1.18-7.74,1.2-11.27-.99-1.49-.92-2.98-1.08-4.5-.71-1.21.3-2.31.29-3.47,0-3.54-.87-7.1-.57-10.61.06-1.21.22-2.35-.03-3.46-.09-2.9-.15-5.25,1.88-8.11,1.7-.62-.04-1.24.07-1.9-.07-1.61-.33-3.16-.25-4.76.48-2.39,1.09-5.08.99-7.64,1.34-1.43.2-1.92-.59-1.41-2.11.58-1.73,2.31-2.26,3.26-3.58,1.68-2.32,4.35-3.47,6.57-5.12,1.37-1.03,2.78-1.72,3.3-3.47.4-1.36.3-2.42-1.21-3.02-1.12-.45-2.34-.78-1.42-2.59.49-.96-2.2-2.65-3.3-1.95-1.58,1.02-3.15.5-4.75.65-3.14.29-5.92-1.27-9.02-.91-2.31.27-4.35-.29-6.04-2.6-1.23-1.69-2.31-3.8-4.63-4.79-2.25-.96-2.94-3.24-3.07-5.64-.16-2.84-1.17-5.5-2.12-8.12-.45-1.24-1.81-2.17-2.74-3.2-1.04-1.15-2.77.13-4.2.25-2.76.24-5.3,1.16-7.95,1.68-2.36.46-4.95.25-6.94-1.62-.45-.43-.99-.34-1.48-.31-1.1.07-1.94-.46-2.91-.85-1.64-.66-3.32-1.72-5.29-.98-.66.25-.88-.91-1.5-.74-2.33.61-3.69-1.37-5.54-2.02-2.86-1.02-4.94-3.05-6.51-5.62-.2-.33-.36-.82-.8-.72-3.94.87-7.88-.79-11.85.13-2.25.52-5.31-1.94-5.8-4.22-.11-.49.1-1.06-.36-1.53-.88.33-.26,1.15-.51,1.6-.52.92.19,3.49-2.37,1.99-2.22,1.57-2.28-1.41-3.59-1.71-2.81-.64-5.7-.69-8.52-.34-1.13.14-2.12.19-2.92-.42-1.94-1.48-4.26-2.28-6.28-3.6-.59-.39-1.49-.83-1.3-1.47.19-.66,1.14-1.1,1.9-1.15.89-.06,1.8.2,2.71.29,2.3.23,4.57-.24,6.86-.37,1.1-.06,1.39-.83,1.23-1.76-.34-2.03-3.5-3.99-5.56-3.53-.57.13-1.19.27-1.74.17-5.76-1.02-11.65-.31-17.4-1.39-1.46-.27-2.61-.21-3.53,1.23-.82,1.28-2.08,2.02-3.64,2.44-2.1.56-3.73,2.15-4.68,3.97-.78,1.48-1.9,1.74-3.16,2.14-1.31.43-2.68.59-2.81,2.57-.08,1.14-1.36,1.59-2.48,1.09-1.75-.79-3.43-.84-5.28-.26-1.08.34-2.29.28-3.49-.05-2.22-.61-3.73.51-3.85,2.78-.08,1.36-1.03,2.33-1.42,3.55-.18.57-.88.59-1.38.49-3.51-.69-6.22.84-8.68,3.08-.53.49-1.02,1.13-1.81,1.02-.9-.12-2.07-.21-1.23-1.64.68-1.15-.05-1.9-.72-2.57-.77-.77-1.33.11-2.02.37-1.83.67-3.37,1.93-5.29,2.38-.79.19-1.54.1-1.92-.56-.39-.66-.5-1.5-.3-2.29.07-.29.38-.67.7-.35,1.29,1.28,2.35.08,3.56-.17,1.99-.41,3.92-.92,5.78-1.74.41-.18.99-.46,1.29-.3,1.58.83,2.73.11,3.85-.89-3.09-3.75-2.79-6.22.39-10.07,1.93-2.33,4.5-3.85,6.47-6.02.95-1.05,2.32-1.09,3.29-1.33,2.4-.59,4.26-2.23,6.73-2.76,2.05-.44,4.55-.43,6.23-2.23.18-.19.44-.46.63-.43,3.65.47,5.95-3.19,9.53-3.04,2.95.12,5.9-.18,8.78-.85,2.17-.51,4.37-.95,6.03-2.71.66-.69,1.66-1.2,2.63-1.16,2.77.12,5.48-.54,8.35.14,2.91.69,6.07.35,9.12.37.74,0,1.39.13,1.63.79.6,1.66,1.6,1.24,2.76.73.95-.42,1.93-.76,3-.86,1.38-.13,2.47-.08,2.84,1.66.3,1.42,1.17,1.53,2.28.58.75-.65,1.65-.88,2.72-.71,1.82.3,3.29-.1,3.32-2.36.27.05.48.04.5.1.53,1.36,1.12,2.29,2.99,1.98,1.26-.21,2.66.52,4.01.69,1.34.17,2.49.34,2.19,2.16-.14.87.44,1.14,1.19,1,1.85-.36,3.73-.63,5.52-1.2.91-.29,1.91-.47,2.36.16,1.21,1.67,3.21,1.8,4.74,2.79,1.13.73,2.27,1.6,3.77,1.39.13-.02.33-.04.38.03,1.66,2.28,5.05,2.63,6.18,5.5.36.9.79,1.74,1.61,2.3,1.53,1.04,3.07,2.03,4.33,3.46.76.86,2.04,1.04,3.3.86,2.28-.33,4.57-.27,6.87-.31,2.13-.04,3.58,1.14,4.97,2.48.71.07.88-.15.38-.73Zm-44.98,5.42c-.6.3-1.51.63-1.39,1.19.22.98,1.41,1.15,2.23,1.51.47.2.94-.4.78-1.01-.22-.84-.7-1.49-1.63-1.68Z"/>
  <path class="cls-2" d="m172.19,128.61c5.33.69,10.16,2.27,13.33,6.85,4.17,6,2.18,14.71-4.14,19.07-3.97,2.74-8.48,4.1-13.16,4.24-9.43.28-18.88.14-28.32.15-1.02,0-2.17.19-2.19-1.47-.02-1.47.16-2.43,2.02-2.64,3.01-.34,3.51-.96,3.75-3.98.18-2.22.16-4.45.16-6.68-.01-11.21-.02-22.42-.08-33.63-.02-3.23-.14-3.28-3.41-3.66-.79-.09-1.74-.21-1.92-1.06-.22-1.06-.36-2.22.13-3.27.26-.56.92-.4,1.43-.4,8.52,0,17.05-.09,25.57.06,3.83.07,7.64.67,11.2,2.29,4.43,2.02,6.85,5.54,7.22,10.29.39,5.02-1.98,8.75-6.22,11.33-1.68,1.02-3.56,1.64-5.35,2.5Zm-15.94,13.33c.06,0,.12,0,.18,0,0,3.27,0,6.54,0,9.82,0,1.72.61,2.66,2.55,2.41,1.16-.15,2.35,0,3.53-.03,7.77-.17,10.56-3.53,11.28-9.05.76-5.84-.4-10.82-6.98-12.75-3.21-.94-6.48-.57-9.72-.65-1.07-.03-.82.8-.83,1.4-.02,2.95,0,5.89,0,8.84Zm0-25c0,1.24-.05,2.49.01,3.73.09,1.94-.87,4.67.37,5.6,1.31.98,3.88.35,5.9.27,4.21-.17,7.53-2.76,8.5-6.73.45-1.84.38-3.75.19-5.66-.33-3.38-2.19-5.64-5.46-6.48-2.63-.67-5.3-.57-7.97-.46-1.2.05-1.58.51-1.55,1.67.06,2.68.02,5.37.02,8.05Z"/>
  <path class="cls-2" d="m117.65,125.43c0-4.66,0-9.31,0-13.97,0-3.16-.86-4.1-4.01-4.63-1.11-.19-2.32-.24-2.44-1.94-.18-2.37.05-2.75,2.43-2.74,4.92.02,9.84.02,14.75.05,1.29,0,2.41.04,2.37,1.96-.04,1.77-.46,2.68-2.38,2.74-2.9.1-3.72,1.11-3.73,4.3-.02,8.92,0,17.84-.05,26.76-.02,3.74-.66,7.36-2.38,10.75-3.05,6-8.02,9.5-14.46,10.83-6.55,1.35-13.12,1.13-19.48-1.1-7.14-2.51-11.2-7.68-11.92-15.17-1.02-10.66-.21-21.36-.42-32.03-.07-3.46-.68-4.23-4.21-4.33-2.12-.06-2.11-1.36-2.17-2.92-.06-1.74.87-1.86,2.23-1.85,7.02.04,14.03.03,21.05.01,1.13,0,2.14-.02,2.01,1.6-.11,1.38.42,2.97-1.85,3.16-3.54.29-4.08.96-4.08,4.49,0,9.18-.07,18.37.03,27.55.05,4.41,1.13,8.54,4.55,11.68,2.13,1.95,4.68,3,7.57,3.1,2.41.09,4.82.2,7.17-.58,6.36-2.11,8.99-6.62,9.38-13.14.14-2.42.03-4.85.03-7.28s0-4.85,0-7.28Z"/>
  <path class="cls-2" d="m239.33,159.1c-3.47,0-6.95,0-10.42,0-1.1,0-2.19-.01-2.19-1.54,0-1.26-.4-2.63,1.69-2.82,3.49-.32,5-.1,3.03-5.67-.8-2.26-1.61-4.5-2.39-6.77-.27-.81-.61-1.34-1.61-1.33-5.51.05-11.01.06-16.52.04-1.16,0-1.69.41-2.01,1.58-.69,2.62-1.6,5.18-2.4,7.77-.84,2.73-.22,3.63,2.53,4.22,1.08.23,2.63-.02,2.73,1.87.12,2.2-.1,2.48-2.32,2.48-4.92,0-9.84-.03-14.76.02-1.06.01-1.85-.07-1.85-1.36,0-1.29-.28-2.99,1.59-3,2.85-.02,3.9-1.71,4.77-4.02,5.72-15.25,11.53-30.47,17.21-45.74.74-1.98,1.63-3.13,3.86-2.69.19.04.39,0,.59,0,2.07.16,4.51-.81,6.11.41,1.54,1.18,1.73,3.66,2.47,5.58,5.52,14.29,11.02,28.58,16.5,42.89.76,1.99,1.67,3.54,4.2,3.54,1.94,0,1.82,1.6,1.77,3.01-.05,1.5-1.05,1.59-2.17,1.58-3.47,0-6.95,0-10.42,0,0-.02,0-.04,0-.05Zm-12.98-23.88c-2.37-6.77-4.67-13.31-7.08-20.18-2.54,6.87-4.99,13.49-7.47,20.18h14.55Z"/>
  <path class="cls-2" d="m26.68,128.33c0,8.12,1.1,14.36,5.13,19.8,6.39,8.63,19.06,8.5,25.19-.3.37-.53.72-1.08,1.06-1.63,1.22-1.95,2.21-2.2,4.22-1.12.73.4.77.98.66,1.66-.48,2.94-1.22,5.83-2.09,8.67-.35,1.15-1.46,1.46-2.42,1.82-6.29,2.4-12.73,3.53-19.51,2.85-7.34-.73-13.8-3.26-18.92-8.6-5.99-6.24-8.24-13.84-7.59-22.42.58-7.68,3.57-14.18,9.09-19.54,4.84-4.7,10.8-7.11,17.34-8.14,7.25-1.14,14.26-.18,21.02,2.74,1.09.47,1.55,1.08,1.59,2.31.11,3.27.34,6.54.64,9.8.11,1.19-.35,1.73-1.38,1.92-1.08.2-2.3.54-2.86-.86-.63-1.57-1.31-3.12-2.25-4.52-3.47-5.17-8.58-6.86-14.46-6.25-5.49.57-9.29,3.76-11.64,8.7-2.21,4.64-2.89,9.57-2.81,13.09Z"/>
  <path class="cls-2" d="m133.62,177.62c39.03,0,78.07,0,117.1-.03,1.57,0,2.14.46,2.01,2.02-.08.9-.34,1.35-1.28,1.29-.39-.03-.79,0-1.18,0-77.94,0-155.88,0-233.82-.02-.95,0-2.3.63-2.4-1.34-.08-1.69.63-1.94,2.07-1.93,11.55.04,23.09.02,34.64.02,27.62,0,55.24,0,82.86,0Z"/>
  <path class="cls-1" d="m16.26,210.46c0-3.8.05-7.6-.03-11.39-.03-1.23.26-1.58,1.52-1.48,3.39.26,6.78-.22,10.2.09,3.19.29,5.11,2.07,6.08,4.71.84,2.29.36,4.7-1.83,6.33-1.2.89-.42,1.4.32,1.77,2.83,1.41,3.18,3.91,2.89,6.61-.26,2.47-1.47,4.05-3.92,5.25-3.47,1.69-6.98.96-10.46,1.12-4.71.21-4.71.1-4.7-4.56,0-2.82,0-5.63,0-8.45-.02,0-.05,0-.07,0Zm5.33-7.98c-.49,1.75-.49,3.51-.02,5.26,1.58.64,3.22.38,4.8.18,1.3-.16,2.19-1.11,2.52-2.42.3-1.18-.18-2.21-.98-3.02-1.02-1.05-5.08-1-6.33,0Zm3.26,16.67c.2,0,.39-.02.59-.03,3.33-.14,4.8-1.14,4.81-3.26.01-2.02-1.49-3.09-4.67-3.34-3.7-.28-3.73-.28-3.68,3.5.04,3.44-.66,2.92,2.95,3.13Z"/>
  <path class="cls-1" d="m224.37,207.34c0,2.29-.03,4.59,0,6.88.07,4.11-1.69,6.91-6.59,8.85-3.76,1.48-7.24,1.05-10.44-1.38-2.19-1.66-3.41-3.94-3.46-6.67-.1-5.31,0-10.62-.06-15.93-.01-1.18.4-1.36,1.46-1.36,3.96,0,3.96-.04,3.97,3.85.01,4.26,0,8.52.07,12.78.05,2.87,1.85,4.62,4.66,4.69,2.89.07,4.89-1.68,4.95-4.59.09-4.91.04-9.83,0-14.75,0-1.04-.01-1.59,1.4-1.54,4.03.14,4.04.04,4.04,4.06,0,1.7,0,3.41,0,5.11Z"/>
  <path class="cls-1" d="m163.78,198.31c2.37-.81,3.27.4,3.97,2.51,2.33,7.09,5.16,14,7.57,21.07.84,2.46-.41,1.49-1.31,1.61-.26.04-.53-.05-.78,0-2.39.53-3.5-.67-3.85-2.86-.27-1.73-1.22-2.32-2.95-2.19-2.02.15-4.06.14-6.08,0-1.15-.08-1.7.32-2,1.32-.04.13-.06.25-.11.38-1.26,3.53-1.26,3.5-5.05,3.41-1.3-.03-1.55-.35-1.06-1.63,2.25-5.96,4.39-11.96,6.57-17.94.36-.98.81-1.93,1.06-2.93.53-2.17,1.49-3.61,4.03-2.74Zm-.09,6.39c-.65,1.8-1.11,3.08-1.58,4.35q-1.89,5.16,3.59,4.89c.07,0,.13,0,.2,0,.96.1,1.12-.34.81-1.16-.95-2.52-1.88-5.04-3.02-8.08Z"/>
  <path class="cls-1" d="m48.95,212.75c-.02.06-.06.12-.07.18q-.57,5.73,5.12,5.73c.65,0,1.31,0,1.96,0,3.32,0,3.85.67,3.23,3.98-.15.8-.59.86-1.24.86-4.39,0-8.77.03-13.16.06-.96,0-1.44-.37-1.44-1.39,0-7.92-.01-15.84-.03-23.76,0-.28.11-.5.39-.6,5.1.53,10.21.38,15.32.09.53,1.11.23,2.29.25,3.43.02,1.07-.87.95-1.58.95-2.49,0-4.97.02-7.46-.04-1.09-.03-1.46.33-1.51,1.45-.18,4.59-.22,4.59,4.39,4.59.59,0,1.18,0,1.77,0,3.06,0,3.78,1.26,2.46,4.31-2.81-.19-5.63-.43-8.43.13Z"/>
  <path class="cls-1" d="m137.87,215.52c1.9-5.39,3.65-10.33,5.37-15.28.98-2.83.95-2.84,3.95-2.69,2.58.13,2.59.13,1.72,2.57-2.59,7.22-5.22,14.43-7.75,21.67-.46,1.32-1.11,1.95-2.52,1.7-.51-.09-1.06-.08-1.57,0-1.38.21-2.04-.31-2.52-1.69-2.6-7.48-5.28-14.94-8.06-22.36-.6-1.61-.13-1.84,1.3-1.89,3.84-.14,3.83-.17,5.05,3.39,1.62,4.72,3.26,9.43,5.04,14.57Z"/>
  <path class="cls-1" d="m248.75,197.9c.76,1.12.29,2.36.3,3.55,0,.96-.82.84-1.45.85-2.41.01-4.82,0-7.22-.01-.65,0-1.31-.12-1.86.36-.43,1.71-.34,3.42-.02,5.13.07.13.13.26.2.38.34.89,1.1.47,1.69.52,1.88.14,3.78-.12,5.66.22,1.53.28,1.19,1.41,1.24,2.41.07,1.25-.81,1.07-1.59,1.13-2.31.19-4.65-.34-6.93.33-.44,1.61-.1,3.25-.2,4.87-.07,1.12.72,1.03,1.45,1.03,2.49,0,4.98.08,7.46-.03,1.41-.06,1.91.41,1.75,1.77-.07.58-.07,1.18,0,1.76.14,1.19-.42,1.37-1.48,1.36-4.32-.04-8.64-.03-12.95.06-1.33.03-1.78-.33-1.77-1.74.06-7.52,0-15.05.02-22.57,0-.53-.31-1.21.43-1.56.07.1.15.29.22.29,5.02.1,10.05.32,15.07-.11Z"/>
  <path class="cls-1" d="m73.57,223.66c-2.63-.04-4.28-1.93-6.08-3.4-1.58-1.29.25-2.26.83-3.11.9-1.33,2.27-.6,3.05.19,1.76,1.76,3.87,1.9,6.06,1.63,1.26-.15,2.34-.77,2.36-2.34.02-1.58-.87-2.49-2.22-3.04-1.68-.68-3.38-1.33-5.09-1.94-3.55-1.28-5.44-5.5-4.78-8.45.76-3.4,4.06-5.68,8.09-5.83,2.9-.11,5.09,1.08,7.19,2.88,1.15.98.6,1.73-.1,2.35-.75.67-1.36,2.21-2.81.94-1.39-1.22-2.95-1.91-4.85-1.53-1.18.24-2.15.79-2.35,2.05-.22,1.31.4,2.32,1.58,2.86,1.89.86,3.85,1.55,5.73,2.43,3.97,1.85,5.69,5.34,4.58,9.07-.19.63-.32,1.28-1,1.6-.29.12-.31.36-.27.62,0,.12-.05.19-.16.23-.07.01-.12.06-.12.13-.03.1-.1.16-.21.17-.2-.01-.31.07-.29.28-.02.12-.09.19-.2.21-1.06-.04-1.73.81-2.61,1.19-2.07.91-4.25.41-6.34.83Z"/>
  <path class="cls-1" d="m103.36,202.63c-.4.67-.24,1.41-.24,2.12-.01,5.77-.03,11.54.01,17.31,0,1.08-.25,1.44-1.4,1.47-4.04.09-4.06.15-4.07-3.82-.01-5.05-.06-10.1.05-15.14.03-1.53-.5-1.94-1.9-1.88-1.3.05-2.61-.08-3.91-.13,1.72,0,3.43,0,5.15,0-1.31-.3-2.63-.4-3.92-.28-1.81.18-1.6-1.02-1.65-2.13-.05-1.23.03-2.09,1.72-2.05,4.85.11,9.7.11,14.55,0,1.67-.04,1.75.78,1.75,2.04,0,1.32-.06,2.24-1.84,2.18-1.41-.05-2.92-.55-4.29.32Z"/>
  <path class="cls-1" d="m182.78,210.47c0-3.73.05-7.46-.03-11.19-.03-1.2.29-1.56,1.51-1.56,3.9,0,3.89-.06,3.89,3.86,0,5.11.04,10.21-.03,15.32-.02,1.33.3,1.87,1.74,1.79,2.09-.12,4.19.05,6.28-.05,1.24-.06,1.54.34,1.53,1.54,0,3.33.05,3.32-3.23,3.32-3.34,0-6.68,0-10.01.05-1.23.02-1.68-.33-1.64-1.68.11-3.79.04-7.59.04-11.39-.02,0-.04,0-.06,0Z"/>
  <path class="cls-1" d="m50.27,46.8c-2.23-.36-3.98-1.28-5.4-2.79-.43-.46-.89-1.22-.28-1.73.65-.54,1.33-.22,1.73.57.8,1.59,2.26.98,3.48.93.62-.02.54-.62.26-1.05-.36-.54-.67-1.15-1.13-1.6-1.87-1.8-1.01-3.81-.43-5.75.31-1.03,2.71-1.67,4.02-1.14,1.03.41,1.98.97,3.13,1.04.41.03.94.23,1.05.75.32,1.57,1.48,2.21,2.83,2.65.32.1.8.39.57.59-1.38,1.15.08,1.89.34,2.78.23.78.18,1.48-.48,1.94-1.59,1.09-3.05,2.51-5.23,2.3-1.56-.15-3.09.07-4.46.51Z"/>
  <path class="cls-1" d="m173.84,27.62c.97,0,1.45.12,1.82-.02,1.69-.67,2.68-.24,3.01,1.54.18.93.52,1.22,1.48,1.4,1.23.24,2.47.68,3.65,1.09,1.13.39.68,1.94.39,2.95-.26.9-1,.75-1.77.41-1.34-.58-2.48-1.66-4.15-1.44-.4.05-1.3-.42-1.19-1.24.31-2.32-.39-3.52-3.24-4.7Z"/>
  <path class="cls-1" d="m103.36,202.63c1.36-.87,2.88-.37,4.29-.32,1.78.06,1.84-.85,1.84-2.18,0-1.27-.08-2.08-1.75-2.04-4.85.1-9.7.1-14.55,0-1.69-.04-1.78.82-1.72,2.05.05,1.11-.16,2.31,1.65,2.13,1.3-.13,2.61-.02,3.92.28-1.72,0-3.43,0-5.15,0-1.49-1.2-.71-2.83-.61-4.22.08-1.08,1.3-.49,1.97-.5,4.91-.05,9.82.02,14.73-.05,1.32-.02,2.01.26,1.77,1.7-.01.06,0,.13,0,.2q.02,2.96-2.87,2.95c-1.18,0-2.35.01-3.53.02Z"/>
  <path class="cls-1" d="m168.76,22.4c1.39-.31,2.24-.26,3.01-.34.84-.09,1.15,1.41,1.88,2.08.54.49.03.96-.23,1.36-.21.33-.57.29-.81,0-.98-1.15-2.25-1.98-3.85-3.1Z"/>
  <path class="cls-1" d="m238.76,212.76c2.28-.66,4.63-.14,6.93-.33.77-.06,1.65.12,1.59-1.13-.05-1,.29-2.13-1.24-2.41-1.88-.35-3.78-.08-5.66-.22-.59-.05-1.35.37-1.69-.52,2.44.5,4.91.17,7.36.18,1.12,0,1.62.19,1.59,1.47-.09,3.62.2,2.94-2.83,2.97-2.02.02-4.03,0-6.05,0Z"/>
  <path class="cls-1" d="m248.75,197.9c-5.02.43-10.05.21-15.07.11-.08,0-.15-.19-.22-.29,5.1.06,10.19.12,15.29.18Z"/>
  <path class="cls-1" d="m59.05,197.92c-5.11.28-10.22.44-15.32-.09,5.11.03,10.22.06,15.32.09Z"/>
  <path class="cls-1" d="m73.57,223.66c2.09-.42,4.27.08,6.34-.83.87-.38,1.55-1.23,2.61-1.19-2.62,2.28-5.71,2.46-8.94,2.02Z"/>
  <path class="cls-1" d="m48.95,212.75c2.8-.56,5.61-.32,8.43-.13-2.8.34-5.62.07-8.43.13Z"/>
  <path class="cls-1" d="m187.09,36.77c.78.24,1.22.85,1.4,1.63.07.31-.26.47-.51.39-.81-.24-1.2-.9-1.43-1.64-.11-.33.24-.37.54-.39Z"/>
  <path class="cls-1" d="m238.49,207.77c-.32-1.71-.42-3.42.02-5.13,0,1.71-.01,3.42-.02,5.13Z"/>
  <path class="cls-1" d="m83.5,220.63c-.04-.26-.02-.5.27-.62,0,.25.04.51-.27.62Z"/>
  <path class="cls-1" d="m83.22,220.99c0-.08.05-.12.12-.13,0,0-.12.13-.12.13Z"/>
  <path class="cls-1" d="m82.72,221.43c-.02-.21.09-.29.29-.28-.1.09-.19.19-.29.28Z"/>
  <path class="cls-1" d="m21.59,202.48c0,1.76-.01,3.51-.02,5.27-.47-1.76-.47-3.51.02-5.27Z"/>
</svg>