<?xml version="1.0" encoding="UTF-8"?>
<svg id="Capa_1" data-name="Capa 1" xmlns="http://www.w3.org/2000/svg" version="1.1" viewBox="0 0 265.5 223.9">
  <defs>
    <style>
      .cls-1 {
        fill: #2b388f;
      }

      .cls-1, .cls-2 {
        stroke-width: 0px;
      }

      .cls-2 {
        fill: #f28a38;
      }
    </style>
  </defs>
  <path class="cls-2" d="M157.3,23.2c.6-.6,1.2-.4,1.9,0,1.4.8,2.8,1.5,4.2,2.2.3.1.7.2.8.5,1.4,2.3,3.7,2.8,6.2,3.3,2.3.4,3.8,2.1,4.5,4.5.7,2.4,1.3,2.6,3.5,1.8.8-.3,1.4,0,1.3.5-.3,1.9,1.6,1.5,2.3,2.4.9,1.1,1.9,1.3,3.3.9,1.1-.3,2,0,2.8,1.2.9,1.6,2.1,3.1,3.6,4.2.3.3.4.5.5.9.3,1.5,1.9,1.9,3.2,1,.3-.2.3-.4.2-.7-.2-.8-.8-1.4-1.5-1.5-1.9-.3-3.1-1.4-4-3-.3-.6-.6-1.2-.2-1.6.5-.6,1.1,0,1.5.2,2.2,1.4,4,3.2,5.9,4.9,3.1,2.7,6.1,5.5,10.3,6.3.6.1,1.3.1,1.7.8-.4.6-2,.1-1.7,1,.3,1.1,1.7.9,2.7.8.2,0,.5-.2.6-.4.4-.8.9-.8,2-.9,3.3-.1,5.2,2.3,7.4,4.1,1.9,1.5,3.5,1.9,5.4.5,1.4-1.1,2.6,0,3.7.4,1.3.5,2.3,1.6,2.3,3.1,0,.6-.4.9-1,1.1-.4,0-.8.2-.9.6,0,.5.5.6.8.7.7.4,2.1.5,1.7,1.5-.4.9-1.6.2-2.4,0-.6-.1-1.2-1.1-1.7-.2-.5.8-.7,1.7,0,2.5.5.6,1.1.9,1.8.3,1.5-1.2,2.7.2,4,.5.5.1,1,.8,1.5,0,.4-.6-.4-.9-.7-1.2-.4-.4-.8-.8-1.2-1.1,2.2.7,4.4,1.3,6.7,2.1.5.2.9.1,1.5-.1,1.7-.7,3.3-.4,5,.5,1.5.8,2.9,2,4.7,2.3.4,0,.8.4,1,.9,1,2,2.9,3.1,4.5,4.5,1.2,1.1,2.7,1.5,4.4,1.1,1.5-.3,3.4.9,3.8,2.2,0,.2,0,.4,0,.6-.1.9-3.4,3.6-4.3,3.6-2.9-.2-5.8.5-8.8.3-2.1-.2-3.8,1.5-5.4,2.7-.9.7-1.7,1.1-2.8,1-1.8-.2-2-.8-1.1-2.4.2-.4.4-.8,0-1-.4-.3-.7.1-.9.5-.2.3-.6.7-.6,1,0,2-1.5,2.2-2.8,2.6-3.9,1.2-7.7,1.2-11.3-1-1.5-.9-3-1.1-4.5-.7-1.2.3-2.3.3-3.5,0-3.5-.9-7.1-.6-10.6,0-1.2.2-2.3,0-3.5,0-2.9-.1-5.2,1.9-8.1,1.7-.6,0-1.2,0-1.9,0-1.6-.3-3.2-.2-4.8.5-2.4,1.1-5.1,1-7.6,1.3-1.4.2-1.9-.6-1.4-2.1.6-1.7,2.3-2.3,3.3-3.6,1.7-2.3,4.3-3.5,6.6-5.1,1.4-1,2.8-1.7,3.3-3.5.4-1.4.3-2.4-1.2-3-1.1-.4-2.3-.8-1.4-2.6.5-1-2.2-2.6-3.3-1.9-1.6,1-3.2.5-4.8.6-3.1.3-5.9-1.3-9-.9-2.3.3-4.3-.3-6-2.6-1.2-1.7-2.3-3.8-4.6-4.8-2.2-1-2.9-3.2-3.1-5.6-.2-2.8-1.2-5.5-2.1-8.1-.4-1.2-1.8-2.2-2.7-3.2-1-1.1-2.8.1-4.2.2-2.8.2-5.3,1.2-7.9,1.7-2.4.5-4.9.2-6.9-1.6-.4-.4-1-.3-1.5-.3-1.1,0-1.9-.5-2.9-.9-1.6-.7-3.3-1.7-5.3-1-.7.2-.9-.9-1.5-.7-2.3.6-3.7-1.4-5.5-2-2.9-1-4.9-3.1-6.5-5.6-.2-.3-.4-.8-.8-.7-3.9.9-7.9-.8-11.8.1-2.2.5-5.3-1.9-5.8-4.2-.1-.5,0-1.1-.4-1.5-.9.3-.3,1.1-.5,1.6-.5.9.2,3.5-2.4,2-2.2,1.6-2.3-1.4-3.6-1.7-2.8-.6-5.7-.7-8.5-.3-1.1.1-2.1.2-2.9-.4-1.9-1.5-4.3-2.3-6.3-3.6-.6-.4-1.5-.8-1.3-1.5.2-.7,1.1-1.1,1.9-1.1.9,0,1.8.2,2.7.3,2.3.2,4.6-.2,6.9-.4,1.1,0,1.4-.8,1.2-1.8-.3-2-3.5-4-5.6-3.5-.6.1-1.2.3-1.7.2-5.8-1-11.7-.3-17.4-1.4-1.5-.3-2.6-.2-3.5,1.2-.8,1.3-2.1,2-3.6,2.4-2.1.6-3.7,2.1-4.7,4-.8,1.5-1.9,1.7-3.2,2.1-1.3.4-2.7.6-2.8,2.6,0,1.1-1.4,1.6-2.5,1.1-1.8-.8-3.4-.8-5.3-.3-1.1.3-2.3.3-3.5,0-2.2-.6-3.7.5-3.8,2.8,0,1.4-1,2.3-1.4,3.6-.2.6-.9.6-1.4.5-3.5-.7-6.2.8-8.7,3.1-.5.5-1,1.1-1.8,1-.9-.1-2.1-.2-1.2-1.6.7-1.1,0-1.9-.7-2.6-.8-.8-1.3.1-2,.4-1.8.7-3.4,1.9-5.3,2.4-.8.2-1.5.1-1.9-.6-.4-.7-.5-1.5-.3-2.3,0-.3.4-.7.7-.4,1.3,1.3,2.3,0,3.6-.2,2-.4,3.9-.9,5.8-1.7.4-.2,1-.5,1.3-.3,1.6.8,2.7.1,3.8-.9-3.1-3.8-2.8-6.2.4-10.1,1.9-2.3,4.5-3.9,6.5-6,.9-1.1,2.3-1.1,3.3-1.3,2.4-.6,4.3-2.2,6.7-2.8,2.1-.4,4.6-.4,6.2-2.2.2-.2.4-.5.6-.4,3.7.5,5.9-3.2,9.5-3,2.9.1,5.9-.2,8.8-.9,2.2-.5,4.4-.9,6-2.7.7-.7,1.7-1.2,2.6-1.2,2.8.1,5.5-.5,8.3.1,2.9.7,6.1.4,9.1.4.7,0,1.4.1,1.6.8.6,1.7,1.6,1.2,2.8.7.9-.4,1.9-.8,3-.9,1.4-.1,2.5,0,2.8,1.7.3,1.4,1.2,1.5,2.3.6.8-.6,1.7-.9,2.7-.7,1.8.3,3.3-.1,3.3-2.4.3,0,.5,0,.5.1.5,1.4,1.1,2.3,3,2,1.3-.2,2.7.5,4,.7,1.3.2,2.5.3,2.2,2.2-.1.9.4,1.1,1.2,1,1.8-.4,3.7-.6,5.5-1.2.9-.3,1.9-.5,2.4.2,1.2,1.7,3.2,1.8,4.7,2.8,1.1.7,2.3,1.6,3.8,1.4.1,0,.3,0,.4,0,1.7,2.3,5.1,2.6,6.2,5.5.4.9.8,1.7,1.6,2.3,1.5,1,3.1,2,4.3,3.5.8.9,2,1,3.3.9,2.3-.3,4.6-.3,6.9-.3,2.1,0,3.6,1.1,5,2.5.7,0,.9-.1.4-.7h0ZM112.3,28.6c-.6.3-1.5.6-1.4,1.2.2,1,1.4,1.1,2.2,1.5.5.2.9-.4.8-1-.2-.8-.7-1.5-1.6-1.7h0Z"/>
  <path class="cls-1" d="M172.2,128.6c5.3.7,10.2,2.3,13.3,6.9,4.2,6,2.2,14.7-4.1,19.1-4,2.7-8.5,4.1-13.2,4.2-9.4.3-18.9.1-28.3.1-1,0-2.2.2-2.2-1.5,0-1.5.2-2.4,2-2.6,3-.3,3.5-1,3.8-4,.2-2.2.2-4.5.2-6.7,0-11.2,0-22.4,0-33.6,0-3.2-.1-3.3-3.4-3.7-.8,0-1.7-.2-1.9-1.1-.2-1.1-.4-2.2.1-3.3.3-.6.9-.4,1.4-.4,8.5,0,17.1,0,25.6,0,3.8,0,7.6.7,11.2,2.3,4.4,2,6.8,5.5,7.2,10.3.4,5-2,8.8-6.2,11.3-1.7,1-3.6,1.6-5.3,2.5h0ZM156.2,141.9h.2v9.8c0,1.7.6,2.7,2.6,2.4,1.2-.1,2.3,0,3.5,0,7.8-.2,10.6-3.5,11.3-9,.8-5.8-.4-10.8-7-12.8-3.2-.9-6.5-.6-9.7-.6-1.1,0-.8.8-.8,1.4,0,3,0,5.9,0,8.8h0ZM156.2,116.9c0,1.2,0,2.5,0,3.7,0,1.9-.9,4.7.4,5.6,1.3,1,3.9.4,5.9.3,4.2-.2,7.5-2.8,8.5-6.7.4-1.8.4-3.8.2-5.7-.3-3.4-2.2-5.6-5.5-6.5-2.6-.7-5.3-.6-8-.5-1.2,0-1.6.5-1.6,1.7,0,2.7,0,5.4,0,8h0Z"/>
  <path class="cls-1" d="M117.7,125.4v-14c0-3.2-.9-4.1-4-4.6-1.1-.2-2.3-.2-2.4-1.9-.2-2.4,0-2.8,2.4-2.7,4.9,0,9.8,0,14.8,0,1.3,0,2.4,0,2.4,2,0,1.8-.5,2.7-2.4,2.7-2.9.1-3.7,1.1-3.7,4.3,0,8.9,0,17.8,0,26.8,0,3.7-.7,7.4-2.4,10.8-3.1,6-8,9.5-14.5,10.8-6.6,1.4-13.1,1.1-19.5-1.1-7.1-2.5-11.2-7.7-11.9-15.2-1-10.7-.2-21.4-.4-32,0-3.5-.7-4.2-4.2-4.3-2.1,0-2.1-1.4-2.2-2.9,0-1.7.9-1.9,2.2-1.9,7,0,14,0,21.1,0,1.1,0,2.1,0,2,1.6-.1,1.4.4,3-1.8,3.2-3.5.3-4.1,1-4.1,4.5,0,9.2,0,18.4,0,27.5,0,4.4,1.1,8.5,4.6,11.7,2.1,2,4.7,3,7.6,3.1,2.4,0,4.8.2,7.2-.6,6.4-2.1,9-6.6,9.4-13.1.1-2.4,0-4.9,0-7.3v-7.3h0Z"/>
  <path class="cls-1" d="M239.3,159.1h-10.4c-1.1,0-2.2,0-2.2-1.5s-.4-2.6,1.7-2.8c3.5-.3,5-.1,3-5.7-.8-2.3-1.6-4.5-2.4-6.8-.3-.8-.6-1.3-1.6-1.3-5.5,0-11,0-16.5,0-1.2,0-1.7.4-2,1.6-.7,2.6-1.6,5.2-2.4,7.8-.8,2.7-.2,3.6,2.5,4.2,1.1.2,2.6,0,2.7,1.9.1,2.2,0,2.5-2.3,2.5-4.9,0-9.8,0-14.8,0-1.1,0-1.8,0-1.8-1.4s-.3-3,1.6-3c2.8,0,3.9-1.7,4.8-4,5.7-15.2,11.5-30.5,17.2-45.7.7-2,1.6-3.1,3.9-2.7.2,0,.4,0,.6,0,2.1.2,4.5-.8,6.1.4,1.5,1.2,1.7,3.7,2.5,5.6,5.5,14.3,11,28.6,16.5,42.9.8,2,1.7,3.5,4.2,3.5s1.8,1.6,1.8,3c0,1.5-1.1,1.6-2.2,1.6h-10.4s0,0,0,0ZM226.4,135.2c-2.4-6.8-4.7-13.3-7.1-20.2-2.5,6.9-5,13.5-7.5,20.2h14.6,0Z"/>
  <path class="cls-1" d="M26.7,128.3c0,8.1,1.1,14.4,5.1,19.8,6.4,8.6,19.1,8.5,25.2-.3.4-.5.7-1.1,1.1-1.6,1.2-2,2.2-2.2,4.2-1.1.7.4.8,1,.7,1.7-.5,2.9-1.2,5.8-2.1,8.7-.3,1.1-1.5,1.5-2.4,1.8-6.3,2.4-12.7,3.5-19.5,2.9-7.3-.7-13.8-3.3-18.9-8.6-6-6.2-8.2-13.8-7.6-22.4.6-7.7,3.6-14.2,9.1-19.5,4.8-4.7,10.8-7.1,17.3-8.1,7.2-1.1,14.3-.2,21,2.7,1.1.5,1.6,1.1,1.6,2.3.1,3.3.3,6.5.6,9.8.1,1.2-.3,1.7-1.4,1.9-1.1.2-2.3.5-2.9-.9-.6-1.6-1.3-3.1-2.2-4.5-3.5-5.2-8.6-6.9-14.5-6.2-5.5.6-9.3,3.8-11.6,8.7-2.2,4.6-2.9,9.6-2.8,13.1h0Z"/>
  <path class="cls-1" d="M133.6,177.6c39,0,78.1,0,117.1,0,1.6,0,2.1.5,2,2,0,.9-.3,1.4-1.3,1.3-.4,0-.8,0-1.2,0-77.9,0-155.9,0-233.8,0-.9,0-2.3.6-2.4-1.3,0-1.7.6-1.9,2.1-1.9,11.6,0,23.1,0,34.6,0h82.9Z"/>
  <path class="cls-2" d="M16.3,210.5c0-3.8,0-7.6,0-11.4,0-1.2.3-1.6,1.5-1.5,3.4.3,6.8-.2,10.2,0,3.2.3,5.1,2.1,6.1,4.7.8,2.3.4,4.7-1.8,6.3-1.2.9-.4,1.4.3,1.8,2.8,1.4,3.2,3.9,2.9,6.6-.3,2.5-1.5,4-3.9,5.2-3.5,1.7-7,1-10.5,1.1-4.7.2-4.7.1-4.7-4.6v-8.5h0ZM21.6,202.5c-.5,1.8-.5,3.5,0,5.3,1.6.6,3.2.4,4.8.2,1.3-.2,2.2-1.1,2.5-2.4.3-1.2-.2-2.2-1-3-1-1-5.1-1-6.3,0h0ZM24.9,219.2c.2,0,.4,0,.6,0,3.3-.1,4.8-1.1,4.8-3.3,0-2-1.5-3.1-4.7-3.3-3.7-.3-3.7-.3-3.7,3.5,0,3.4-.7,2.9,2.9,3.1h0Z"/>
  <path class="cls-2" d="M224.4,207.3c0,2.3,0,4.6,0,6.9,0,4.1-1.7,6.9-6.6,8.9-3.8,1.5-7.2,1-10.4-1.4-2.2-1.7-3.4-3.9-3.5-6.7,0-5.3,0-10.6,0-15.9,0-1.2.4-1.4,1.5-1.4,4,0,4,0,4,3.9,0,4.3,0,8.5,0,12.8,0,2.9,1.8,4.6,4.7,4.7,2.9,0,4.9-1.7,4.9-4.6,0-4.9,0-9.8,0-14.8,0-1,0-1.6,1.4-1.5,4,.1,4,0,4,4.1v5.1Z"/>
  <path class="cls-2" d="M163.8,198.3c2.4-.8,3.3.4,4,2.5,2.3,7.1,5.2,14,7.6,21.1.8,2.5-.4,1.5-1.3,1.6-.3,0-.5,0-.8,0-2.4.5-3.5-.7-3.8-2.9-.3-1.7-1.2-2.3-2.9-2.2-2,.1-4.1.1-6.1,0-1.2,0-1.7.3-2,1.3,0,.1,0,.2-.1.4-1.3,3.5-1.3,3.5-5.1,3.4-1.3,0-1.6-.4-1.1-1.6,2.2-6,4.4-12,6.6-17.9.4-1,.8-1.9,1.1-2.9.5-2.2,1.5-3.6,4-2.7h0ZM163.7,204.7c-.7,1.8-1.1,3.1-1.6,4.4-1.3,3.4,0,5.1,3.6,4.9h.2c1,.1,1.1-.3.8-1.2-.9-2.5-1.9-5-3-8.1h0Z"/>
  <path class="cls-2" d="M49,212.8c0,0,0,.1,0,.2-.4,3.8,1.3,5.7,5.1,5.7h2c3.3,0,3.8.7,3.2,4-.2.8-.6.9-1.2.9-4.4,0-8.8,0-13.2,0-1,0-1.4-.4-1.4-1.4,0-7.9,0-15.8,0-23.8,0-.3.1-.5.4-.6,5.1.5,10.2.4,15.3,0,.5,1.1.2,2.3.2,3.4,0,1.1-.9,1-1.6,1-2.5,0-5,0-7.5,0-1.1,0-1.5.3-1.5,1.5-.2,4.6-.2,4.6,4.4,4.6h1.8c3.1,0,3.8,1.3,2.5,4.3-2.8-.2-5.6-.4-8.4.1h0Z"/>
  <path class="cls-2" d="M137.9,215.5c1.9-5.4,3.7-10.3,5.4-15.3,1-2.8.9-2.8,3.9-2.7,2.6.1,2.6.1,1.7,2.6-2.6,7.2-5.2,14.4-7.8,21.7-.5,1.3-1.1,2-2.5,1.7-.5,0-1.1,0-1.6,0-1.4.2-2-.3-2.5-1.7-2.6-7.5-5.3-14.9-8.1-22.4-.6-1.6-.1-1.8,1.3-1.9,3.8-.1,3.8-.2,5.1,3.4,1.6,4.7,3.3,9.4,5,14.6h0Z"/>
  <path class="cls-2" d="M248.7,197.9c.8,1.1.3,2.4.3,3.5,0,1-.8.8-1.4.9-2.4,0-4.8,0-7.2,0-.7,0-1.3-.1-1.9.4-.4,1.7-.3,3.4,0,5.1,0,.1.1.3.2.4.3.9,1.1.5,1.7.5,1.9.1,3.8-.1,5.7.2,1.5.3,1.2,1.4,1.2,2.4,0,1.2-.8,1.1-1.6,1.1-2.3.2-4.7-.3-6.9.3-.4,1.6,0,3.2-.2,4.9,0,1.1.7,1,1.4,1,2.5,0,5,0,7.5,0,1.4,0,1.9.4,1.8,1.8,0,.6,0,1.2,0,1.8.1,1.2-.4,1.4-1.5,1.4-4.3,0-8.6,0-12.9,0-1.3,0-1.8-.3-1.8-1.7,0-7.5,0-15,0-22.6,0-.5-.3-1.2.4-1.6,0,.1.2.3.2.3,5,.1,10.1.3,15.1-.1h0Z"/>
  <path class="cls-2" d="M73.6,223.7c-2.6,0-4.3-1.9-6.1-3.4-1.6-1.3.2-2.3.8-3.1.9-1.3,2.3-.6,3.1.2,1.8,1.8,3.9,1.9,6.1,1.6,1.3-.1,2.3-.8,2.4-2.3,0-1.6-.9-2.5-2.2-3-1.7-.7-3.4-1.3-5.1-1.9-3.6-1.3-5.4-5.5-4.8-8.5.8-3.4,4.1-5.7,8.1-5.8,2.9-.1,5.1,1.1,7.2,2.9,1.2,1,.6,1.7,0,2.4-.8.7-1.4,2.2-2.8.9-1.4-1.2-2.9-1.9-4.8-1.5-1.2.2-2.2.8-2.3,2-.2,1.3.4,2.3,1.6,2.9,1.9.9,3.8,1.5,5.7,2.4,4,1.9,5.7,5.3,4.6,9.1-.2.6-.3,1.3-1,1.6-.3.1-.3.4-.3.6,0,.1,0,.2-.2.2,0,0-.1,0-.1.1,0,.1,0,.2-.2.2-.2,0-.3,0-.3.3,0,.1,0,.2-.2.2-1.1,0-1.7.8-2.6,1.2-2.1.9-4.2.4-6.3.8h0Z"/>
  <path class="cls-2" d="M103.4,202.6c-.4.7-.2,1.4-.2,2.1,0,5.8,0,11.5,0,17.3,0,1.1-.2,1.4-1.4,1.5-4,0-4.1.1-4.1-3.8,0-5,0-10.1,0-15.1,0-1.5-.5-1.9-1.9-1.9-1.3,0-2.6,0-3.9-.1h5.2c-1.3-.3-2.6-.4-3.9-.3-1.8.2-1.6-1-1.7-2.1,0-1.2,0-2.1,1.7-2,4.8.1,9.7.1,14.6,0,1.7,0,1.8.8,1.8,2s0,2.2-1.8,2.2c-1.4,0-2.9-.5-4.3.3h0Z"/>
  <path class="cls-2" d="M182.8,210.5c0-3.7,0-7.5,0-11.2,0-1.2.3-1.6,1.5-1.6,3.9,0,3.9,0,3.9,3.9s0,10.2,0,15.3c0,1.3.3,1.9,1.7,1.8,2.1-.1,4.2,0,6.3,0,1.2,0,1.5.3,1.5,1.5,0,3.3,0,3.3-3.2,3.3s-6.7,0-10,0c-1.2,0-1.7-.3-1.6-1.7.1-3.8,0-7.6,0-11.4h0,0Z"/>
  <path class="cls-2" d="M50.3,46.8c-2.2-.4-4-1.3-5.4-2.8-.4-.5-.9-1.2-.3-1.7.7-.5,1.3-.2,1.7.6.8,1.6,2.3,1,3.5.9.6,0,.5-.6.3-1.1-.4-.5-.7-1.1-1.1-1.6-1.9-1.8-1-3.8-.4-5.8.3-1,2.7-1.7,4-1.1,1,.4,2,1,3.1,1,.4,0,.9.2,1.1.8.3,1.6,1.5,2.2,2.8,2.6.3.1.8.4.6.6-1.4,1.1,0,1.9.3,2.8.2.8.2,1.5-.5,1.9-1.6,1.1-3.1,2.5-5.2,2.3-1.6-.1-3.1,0-4.5.5h0Z"/>
  <path class="cls-2" d="M173.8,27.6c1,0,1.4.1,1.8,0,1.7-.7,2.7-.2,3,1.5.2.9.5,1.2,1.5,1.4,1.2.2,2.5.7,3.7,1.1,1.1.4.7,1.9.4,2.9-.3.9-1,.8-1.8.4-1.3-.6-2.5-1.7-4.2-1.4-.4,0-1.3-.4-1.2-1.2.3-2.3-.4-3.5-3.2-4.7h0Z"/>
  <path class="cls-2" d="M103.4,202.6c1.4-.9,2.9-.4,4.3-.3,1.8,0,1.8-.9,1.8-2.2s0-2.1-1.8-2c-4.8.1-9.7.1-14.6,0-1.7,0-1.8.8-1.7,2,0,1.1-.2,2.3,1.7,2.1,1.3-.1,2.6,0,3.9.3h-5.2c-1.5-1.2-.7-2.8-.6-4.2,0-1.1,1.3-.5,2-.5,4.9,0,9.8,0,14.7,0,1.3,0,2,.3,1.8,1.7,0,0,0,.1,0,.2,0,2-.9,3-2.9,3-1.2,0-2.3,0-3.5,0h0Z"/>
  <path class="cls-2" d="M168.8,22.4c1.4-.3,2.2-.3,3-.3.8,0,1.2,1.4,1.9,2.1.5.5,0,1-.2,1.4-.2.3-.6.3-.8,0-1-1.1-2.2-2-3.8-3.1Z"/>
  <path class="cls-2" d="M238.8,212.8c2.3-.7,4.6-.1,6.9-.3.8,0,1.7.1,1.6-1.1,0-1,.3-2.1-1.2-2.4-1.9-.4-3.8,0-5.7-.2-.6,0-1.3.4-1.7-.5,2.4.5,4.9.2,7.4.2,1.1,0,1.6.2,1.6,1.5,0,3.6.2,2.9-2.8,3-2,0-4,0-6.1,0h0Z"/>
  <path class="cls-2" d="M248.7,197.9c-5,.4-10.1.2-15.1.1,0,0-.2-.2-.2-.3,5.1,0,10.2.1,15.3.2h0Z"/>
  <path class="cls-2" d="M59.1,197.9c-5.1.3-10.2.4-15.3,0,5.1,0,10.2,0,15.3,0Z"/>
  <path class="cls-2" d="M73.6,223.7c2.1-.4,4.3,0,6.3-.8.9-.4,1.6-1.2,2.6-1.2-2.6,2.3-5.7,2.5-8.9,2h0Z"/>
  <path class="cls-2" d="M49,212.8c2.8-.6,5.6-.3,8.4-.1-2.8.3-5.6,0-8.4.1Z"/>
  <path class="cls-2" d="M187.1,36.8c.8.2,1.2.9,1.4,1.6,0,.3-.3.5-.5.4-.8-.2-1.2-.9-1.4-1.6-.1-.3.2-.4.5-.4h0Z"/>
  <path class="cls-2" d="M238.5,207.8c-.3-1.7-.4-3.4,0-5.1,0,1.7,0,3.4,0,5.1Z"/>
  <path class="cls-2" d="M83.5,220.6c0-.3,0-.5.3-.6,0,.2,0,.5-.3.6Z"/>
  <path class="cls-2" d="M83.2,221c0,0,0-.1.1-.1h-.1Z"/>
  <path class="cls-2" d="M82.7,221.4c0-.2,0-.3.3-.3,0,0-.2.2-.3.3Z"/>
  <path class="cls-2" d="M21.6,202.5c0,1.8,0,3.5,0,5.3-.5-1.8-.5-3.5,0-5.3Z"/>
</svg>