<?xml version="1.0" encoding="UTF-8"?>
<svg id="Capa_1" data-name="Capa 1" xmlns="http://www.w3.org/2000/svg" viewBox="0 0 298.32 264.94">
  <defs>
    <style>
      .cls-1 {
        fill: #f28a38;
      }

      .cls-1, .cls-2 {
        stroke-width: 0px;
      }

      .cls-2 {
        fill: #fff;
      }
    </style>
  </defs>
  <path class="cls-1" d="m176.5,75.13c-5.15-3.48-10.3-6.94-15.43-10.44-.93-.64-1.23-.6-1.51.62-2.51,11.12-5.02,22.23-7.22,33.41-.07.36-.14.75-.56,1-1.22-4.54-1.97-9.15-2.95-13.71-1.46-6.83-2.79-13.7-4.73-20.43-.44-1.52-.5-1.75-1.99-.6-3.67,2.81-7.63,5.25-11.51,7.79-1.03.67-1.93,1.56-3.13,1.95-.09-.08-.19-.14-.31-.16,3.46-4.8,6.73-9.72,9.7-14.84.87-1.5.51-1.75-.9-1.99-10.94-1.86-21.84-3.87-32.7-6.13-.54-.11-1.06-.29-1.6-.77,9.42-1.89,18.84-3.82,28.28-5.62,2.1-.4,4.16-1.14,6.4-.86.92.11,1.01-.7.52-1.45-1-1.52-1.98-3.04-2.96-4.57-2.12-3.33-4.22-6.67-6.39-10.1,1.4-.13,2.55.71,3.38,1.4,3.34,2.8,7.37,4.52,10.79,7.18,2.39,1.86,2.38,1.74,3.1-1.27,2.8-11.63,4.81-23.42,7.01-35.54,1.25,4.11,1.79,8.01,2.46,11.87,1.47,8.46,3.67,16.74,5.74,25.06.19.75.4.95,1.23.61,1.19-.49,1.99-1.44,3-2.12,3.67-2.45,7.38-4.84,11.08-7.23.18-.12.47-.06,1.05-.12-3.38,5.26-6.62,10.3-9.97,15.52,11.73,2.15,23.35,4.36,34.81,7.56-11.39,3.47-23.23,4.74-34.95,7.43,1.34,2.94,3.18,5.54,4.94,8.17,1.77,2.66,3.61,5.27,5.4,7.92.07.1-.06.33-.1.5l.03-.04Zm-59.38-24.24c.16.08.32.24.47.24,9.76.01,19.52.01,29.28.01,0-.03,0-.06,0-.1-.55-.09-1.11-.18-1.66-.27,1.13-.17,2.25-.33,3.44-.51-.94-1.94-2.91-2.51-4.14-3.89-.8-.9-1.75-1.05-2.93-.75-7.7,1.93-15.54,3.16-23.35,4.58-.39.07-1.12-.14-1.11.69Zm35.22-32.11c-.41,3.63-.42,7.26-.01,10.89v18.85c1.18-.89,1.87-1.57,2.68-1.99,3.58-1.84,3.79-4.42,2.69-8.09-2.02-6.75-3.44-13.69-5.14-20.69-.1.44-.16.74-.23,1.04Zm34.89,32.85c-.62-.09-.85-.15-1.09-.16-9.43-.48-18.87-.12-28.3-.22-.73,0-1.8-.36-2.13.22-.46.83.69,1.11,1.16,1.63.2.22.22.58.38.84,1.43,2.23,2.75,2.78,5.23,2.32,8.11-1.53,16.23-3.03,24.74-4.62Zm-36.08,2.16c-1.94,2.1-3.5,3.81-5.09,5.5-.34.37-.31.67-.2,1.16,1.78,7.69,3.51,15.38,5.33,23.45.34-10.11.04-19.84-.05-30.11Z"/>
  <path class="cls-2" d="m243.5,167.04c0,9.4-.01,18.34.02,27.29,0,1.19.15,2.39.38,3.56.31,1.61,1.81,2.52,4.27,2.65,1.07.06,2.03.16,2.24,1.48.27,1.68-.24,2.31-1.95,2.31-5.04,0-10.08-.03-15.12.03-1.33.01-1.98-.39-1.98-1.81,0-1.27.3-1.95,1.77-2.03,3.45-.19,4.69-1.48,4.7-4.89.05-10.71.06-21.42.05-32.12,0-3.59-1.09-4.89-4.66-5.23-1.66-.16-1.95-.99-1.95-2.33,0-1.59,1.03-1.54,2.18-1.53,4.03.03,8.06.04,12.09,0,1,0,1.66.22,2.35,1.09,8.93,11.39,17.93,22.72,26.96,34.14,0-9.08.04-18.02-.03-26.96-.02-2.58-1.99-4.33-4.86-4.43-1.54-.05-2.17-.66-2.14-2.13.03-1.55.96-1.74,2.27-1.73,4.91.06,9.83.04,14.74,0,1.09,0,1.87.15,1.87,1.46,0,1.14-.14,2.11-1.56,2.35-3.73.63-4.61,1.69-4.62,5.49,0,13.1-.03,26.2.04,39.3,0,1.46-.35,1.7-1.82,1.87-3.33.4-5.42-.76-7.49-3.43-7.71-9.91-15.7-19.59-23.59-29.35-1.29-1.59-2.6-3.16-4.16-5.06Z"/>
  <path class="cls-2" d="m153.2,177.69c3.89.45,7.25,1.14,10.16,3.09,3.86,2.59,5.69,6.31,5.23,10.93-.47,4.78-3.04,8.26-7.4,10.3-3.26,1.53-6.77,2.23-10.35,2.28-7.81.1-15.62.02-23.43.06-1.21,0-1.9-.24-1.9-1.64,0-1.33.28-2.11,1.84-2.2,3.31-.2,3.85-.85,3.85-4.16,0-11.02.01-22.05,0-33.07,0-3.27-1.04-4.58-4.26-5.02-1.38-.19-1.84-.8-1.8-2.08.05-1.38.76-1.79,2.07-1.78,7.87.04,15.75-.09,23.62.09,3.76.09,7.49.93,10.49,3.45,5.65,4.76,4.8,13.66-1.62,17.57-1.86,1.13-3.91,1.77-6.51,2.18Zm-11.39,11.97h0c0,2.58.08,5.16-.03,7.73-.08,1.83.72,2.51,2.44,2.46,1.76-.05,3.52.03,5.28-.09,5.12-.36,8.04-3.45,8.21-8.58.19-6.01-2.4-9.51-8.14-10.54-2.08-.37-4.26-.09-6.39-.24-1.1-.07-1.41.25-1.38,1.34.07,2.64.02,5.28.02,7.92Zm0-21.92h0c0,2.33-.02,4.65.02,6.98,0,.43-.33,1.23.41,1.23,3.09-.02,6.39.75,9.14-1.19,3.31-2.34,3.74-5.93,3.2-9.6-.48-3.26-2.85-5.51-6.27-6.09-1.53-.26-3.13-.12-4.7-.13-1.35-.01-1.86.69-1.82,2.02.06,2.26.02,4.53.02,6.79Z"/>
  <path class="cls-2" d="m68.84,176.06c0-4.34,0-8.69,0-13.03-.01-3.43-.92-4.46-4.32-4.8-1.53-.15-1.77-1.05-1.78-2.33-.01-1.35.73-1.5,1.82-1.5,6.49.03,12.97.03,19.46,0,1.18,0,1.89.18,1.89,1.62,0,1.4-.45,2.24-1.9,2.18-2.49-.1-3.85,2-3.84,4.12.05,8.63-.02,17.25.03,25.88.04,6.67,5.03,11.55,11.69,11.6,1.95.01,3.89,0,5.78-.53,4.93-1.39,8.33-5.42,8.56-10.64.39-8.67.54-17.36.04-26.03-.16-2.73-1.48-4.17-4.16-4.34-1.5-.1-2.22-.79-2.21-2.19,0-1.56,1.11-1.66,2.36-1.65,4.79.04,9.57.03,14.36,0,1.09,0,1.8.15,1.8,1.5,0,1.29-.19,2.17-1.75,2.31-3.4.3-4.34,1.39-4.35,4.75-.01,7.12.02,14.23-.05,21.35-.03,2.69-.29,5.37-1.01,7.99-1.62,5.89-5.4,9.82-11.1,11.71-7.17,2.38-14.46,2.38-21.49-.49-6.5-2.65-9.65-7.84-9.81-14.81-.1-4.22-.02-8.44-.02-12.66Z"/>
  <path class="cls-2" d="m213.86,204.33c-3.15,0-6.3-.04-9.45.02-1.21.02-1.72-.47-1.77-1.62-.04-1.1.29-1.71,1.55-1.86,4.53-.54,4.32-2.01,2.98-5.51-.78-2.03-1.54-4.06-2.3-6.09-.28-.75-.65-1.17-1.61-1.16-4.72.06-9.45.03-14.17,0-.74,0-1.05.19-1.28.95-.78,2.61-1.73,5.17-2.54,7.77-.79,2.54-.19,3.39,2.48,3.71,2.35.28,2.77.73,2.51,2.56-.12.79-.41,1.24-1.3,1.24-4.79-.02-9.57-.02-14.36,0-.94,0-1.41-.4-1.43-1.33-.02-1-.24-2.29,1.15-2.39,3.04-.21,4.26-2.23,5.15-4.7,4.7-13.01,9.39-26.03,14.08-39.05.21-.58.31-1.2.43-1.81.15-.72.52-1.04,1.29-1.02,2.01.05,4.02.02,6.02-.34,1-.18,1.55.18,1.93,1.22,3.7,10.13,7.43,20.25,11.21,30.35,1.54,4.12,3.23,8.19,4.82,12.29.72,1.85,2.13,2.73,3.99,2.96,1.48.18,1.78,1.06,1.75,2.37-.04,1.5-.98,1.46-2.05,1.45-3.02-.03-6.05-.01-9.07-.01Zm-11.26-20.86c-2.19-5.86-4.33-11.54-6.55-17.48-1.94,5.6-3.77,10.93-5.66,16.24-.35.99-.29,1.29.86,1.27,3.71-.07,7.43-.02,11.35-.02Z"/>
  <path class="cls-2" d="m55.63,161.95c.05,2.01.18,3.7.01,5.4-.08.84-.11,1.64-1.18,1.44-1.08-.21-2.61.95-3.18-.94-.18-.6-.26-1.22-.45-1.81-1.27-4.08-5.14-7.03-9.37-7.47-11.71-1.23-15.87,6.99-16.87,14.47-.72,5.41-.66,10.78,1.18,15.96,2.07,5.81,5.72,10.16,12.12,11.32,5.56,1,12.04-1.05,14.22-7.6.61-1.83,1.81-1.2,2.84-1.2,1.2,0,1.52.9,1.41,1.98-.27,2.67-.75,5.31-1.31,7.94-.13.59-.43.96-1.03,1.18-9.87,3.53-19.76,4.72-29.38-.54-7.88-4.31-11.73-11.27-12.16-20.21-.38-7.96,1.8-14.99,7.49-20.68,5.24-5.24,11.8-7.54,19.11-7.89,4.17-.2,8.26.31,12.24,1.53,3.99,1.23,4.25,1.62,4.28,5.73,0,.57,0,1.13,0,1.39Z"/>
  <path class="cls-2" d="m284.8,220.07c1.23.42.84,1.42.67,2.21-.24,1.13-1.25.58-1.88.58-38.62.03-77.24.03-115.86.03-51.09,0-102.19,0-153.28,0-1.31,0-2.68.18-2.33-1.87.1-.61.49-.83,1.01-.95,1.06.04,2.13.11,3.19.11,85.4,0,170.8,0,256.21,0,4.09,0,8.18-.07,12.27-.1Z"/>
  <path class="cls-1" d="m69.96,264.86c-7.81,0-13.58-5.85-13.64-13.69-.07-7.88,6.2-13.97,13.73-14.05,7.06-.08,13.59,6.01,13.64,13.76.05,7.7-6.16,14.37-13.72,13.98Zm8.03-13.85c.05-5.03-3.2-8.73-7.76-8.83-4.59-.1-8.13,3.55-8.17,8.42-.05,5.43,3.19,9.26,7.97,9.2,4.43-.05,8.03-3.17,7.96-8.8Z"/>
  <path class="cls-1" d="m161.05,238.57c2.75,3.03,4.51,6.8,7.26,9.82,1.7,1.87,2.51,4.39,4.57,6.01.53-.36.24-.9.24-1.34.03-4.72.05-9.44,0-14.16-.01-1.05.25-1.37,1.33-1.38,4.05-.05,4.05-.1,4.05,3.98,0,7.05-.03,14.1.03,21.14.01,1.29-.37,1.69-1.66,1.82-2.75.3-4.56-.46-5.73-3.21-.72-1.68-2.33-2.96-3.44-4.5-1.88-2.59-3.68-5.24-5.51-7.86-.37-.54-.65-1.2-1.51-.93-.1-.01-.02-.39-.24-.11-.03.04,0,.12,0,.18,0,4.84-.05,9.68,0,14.52.01,1.38-.61,1.84-1.83,1.63-1.08-.18-2.85.72-2.86-1.39-.06-7.86-.03-15.71-.03-23.57,0-.72.23-1.28,1.02-1.3,1.47-.03,2.99-.34,4.31.64Z"/>
  <path class="cls-1" d="m137.24,237.64c3.29-.08,5.66,1.54,6.97,4.38,1.38,3,1.31,6.16-.64,8.95-.63.9-1.8,1.47-2.78,2.09-1.05.66-1.37,1.02-.43,2.32,2.02,2.79,3.65,5.86,5.59,9.08-1.96,0-3.74-.03-5.51.02-.74.02-1.01-.46-1.25-.95-1.06-2.12-2.18-4.2-3.42-6.23-1.61-2.63-2.15-3.01-5.33-2.08-.05-.04-.1-.07-.15-.11-.03.05-.1.1-.1.16,0,1.44,0,2.88,0,4.32q0,4.63-4.65,4.61l-.1-.02s-.02-.1-.02-.1c.01-7.97.08-15.94,0-23.91-.02-1.79.43-2.36,2.29-2.33,3.18.05,6.38.38,9.54-.2Zm-6.82,5.04c-.56.67-.25,1.45-.25,2.17,0,5.17,0,5.19,5.25,5.12.79-.01,1.8.43,2.33-.64,1.34-.86,2.2-2.86,1.68-4.34-.54-1.54-1.64-2.5-3.38-2.45-1.88.05-3.76-.18-5.63.15Z"/>
  <path class="cls-1" d="m206.67,237.52c1.09,1.58.43,3.32.35,4.97-.03.63-.95.41-1.48.41-3.02.01-6.04,0-9.06-.01-.24,0-.67-.18-.7-.11-.8,1.44-.17,3-.35,4.5-.1.83.44.88,1.07.88,2.46,0,4.91.08,7.36,0,1.17-.04,1.49.34,1.51,1.49.1,4.61.14,4.61-4.39,3.99-.31-.04-.62-.08-.94-.1-4.77-.32-4.73-.32-4.67,4.4.01,1.06.38,1.21,1.3,1.22,3.14.05,6.29.27,9.43.24,1.34-.01,1.52.5,1.51,1.63-.02,3.46.02,3.46-3.48,3.46-4.28,0-8.56-.02-12.84,0-.95,0-1.52-.12-1.52-1.31.06-8.31.07-16.62.09-24.92,1.3-.47,2.64-.33,3.98-.34,3.7-.02,7.41,0,11.11-.05.57,0,1.26.33,1.73-.33Z"/>
  <path class="cls-2" d="m117.85,131.57c1.77-4.58,3.45-8.85,5.07-13.14.38-1.01.87-1.5,2.05-1.39,1.37.13,2.77.04,4.15.02.6,0,1.15.02,1.32.73.16.67-.15,1.06-.78,1.27-1.04.33-1.13,1.13-1.1,2.09.16,4.59.29,9.19.37,13.78.02.93.39,1.46,1.22,1.62.68.14.73.52.71,1.07-.03.81-.61.64-1.09.64-2.27.03-4.53.06-6.8.06-.53,0-1.18.15-1.22-.75-.04-.81.45-.89,1.06-.99.92-.14,1.41-.67,1.34-1.67-.26-3.81.11-7.66-.46-11.8-1.93,4.8-3.73,9.3-5.55,13.8-.25.61-.29,1.39-1.18,1.51-1.05.15-1.63-.1-2.04-1.27-1.58-4.5-3.33-8.95-5.03-13.41-.08-.2-.24-.37-.58-.89,0,4.25.02,8.12-.01,11.99,0,1.03.56,1.49,1.42,1.68.65.14.98.37.88,1.11-.12.89-.73.68-1.27.68-1.57,0-3.15,0-4.72-.05-.5-.01-1.19.27-1.29-.65-.08-.75.24-.94.94-1.03,1.05-.14,1.38-.88,1.4-1.9.1-4.47.21-8.94.39-13.41.04-1.12-.11-1.98-1.36-2.26-.68-.15-.96-.61-.79-1.26.16-.59.67-.68,1.21-.65.06,0,.13,0,.19,0q5.79-.23,7.92,5.15c.6,1.5,1.22,2.99,1.8,4.49.59,1.5,1.15,3.01,1.84,4.82Z"/>
  <path class="cls-1" d="m113.77,256.4c-.43,4.98-4.85,8.56-9.49,8.46-1.56-.03-3.12.12-4.68-.31-3.95-1.09-6.75-4.36-7-8.41-.36-5.79-.09-11.59-.22-17.38-.02-.86.12-1.19,1.09-1.24,4.48-.23,4.48-.27,4.49,4.18,0,4.28-.02,8.57.04,12.85.03,2.51,1.44,4.38,3.56,4.95,2.54.68,4.96-.09,6.25-2,.97-.74,1.01-1.81,1.01-2.89,0-4.98.07-9.95,0-14.93-.04-2.41,1.67-1.62,2.89-1.79,1.36-.19,1.91.31,1.88,1.77-.08,4.91-.05,9.83-.04,14.74,0,.67-.25,1.39.21,2.01Z"/>
  <path class="cls-1" d="m255.1,264.87c-3.81.1-6.91-1.39-9.48-4.17-.8-.87-.56-1.46.33-1.84.83-.35,1.56-.79,2.13-1.48.36-.43.61-.38,1.04-.04.57.46,1.26.76,1.89,1.16,1.23.79,2.54,1.36,4.03,1.36,1.87,0,3.64-1.05,3.87-2.4.33-1.95-1.02-2.89-2.49-3.53-2.05-.89-4.28-1.4-6.28-2.39-5.61-2.8-4.82-9.98-1.44-12.48,3.2-2.38,6.81-2.46,10.52-1.31,1.42.44,2.42,1.55,3.73,2.18,1.22.58,1.37,1.53.12,2.4-.21.14-.39.32-.57.5-1.15,1.18-2.13,1.95-3.73.3-1.33-1.37-3.37-1.23-5.19-.92-.97.16-1.68.81-1.84,1.89-.16,1.11.21,1.95,1.22,2.51,2.09,1.16,4.45,1.59,6.61,2.57,5,2.27,6.59,8.05,3.29,12.41-1.92,2.53-4.66,3.41-7.76,3.29Z"/>
  <path class="cls-2" d="m283.59,138.26c-1.82,0-3.65,0-5.47,0-.49,0-1.03.08-1.03-.71,0-.61.11-.89.82-.91,1.18-.03,1.51-.78,1.5-1.9-.04-4.53-.04-9.06,0-13.59,0-1.07-.19-1.88-1.38-2.06-.76-.12-1.03-.49-.94-1.28.1-.87.65-.76,1.22-.74,3.77.1,7.54.06,11.3.31,6.69.45,9.44,6.51,8.54,11.94-.89,5.38-5.01,9.07-10.78,8.9-1.26-.04-2.52,0-3.78,0,0,.02,0,.04,0,.05Zm.54-10.64s.02,0,.03,0c0,1.13,0,2.26,0,3.39,0,1.19,0,2.39-.01,3.58,0,.92.25,1.62,1.34,1.64,3.34.07,5.7-.86,7.05-4.01.82-1.93,1.05-4,.77-6.07-.65-4.9-3.05-6.98-7.66-6.9-1.17.02-1.55.48-1.53,1.58.03,2.26.01,4.52.01,6.79Z"/>
  <path class="cls-1" d="m222.35,239.58c2.01,2.43,2.94,5.49,4.76,8.28,1.15-2.09,2.25-4.09,3.34-6.08.92-.71,1.53-1.6,1.56-2.81,0,0,.01.12.01.12,1.15-1.11,4.67-1.72,6.04-1.01.18.09.25.41.37.62-2.45,4.08-4.87,8.18-7.37,12.22-.82,1.32-1.3,2.63-1.23,4.22.12,2.64,0,5.29.06,7.93.02,1.02-.22,1.47-1.33,1.45-5.2-.09-4.47.52-4.13-3.92.4-5.29-.7-9.89-3.93-14.16-1.94-2.56-3.33-5.54-4.97-8.33,2.04-.29,4.08-.6,6.08.21l-.05-.09s.08-.05.08-.05c0,.23.08.38.34.38,0,0,.08.09.08.09.09.3.19.61.28.91Z"/>
  <path class="cls-2" d="m173.7,117.03c2.43.29,4.9-.08,7.29.7,2.61.84,4.12,2.46,4.28,4.65.2,2.63-1.04,4.45-3.32,5.55-.67.32-.92.37-.45,1.11,1.21,1.89,2.22,3.91,3.76,5.57.72.78,1.38,1.61,2.57,1.75.64.07.95.55.92,1.21-.03.89-.74.69-1.25.75-3.81.39-6.72-1.03-8.62-4.39-.67-1.18-1.35-2.37-1.86-3.62-.32-.8-.83-.86-1.47-.79-.83.09-.44.77-.47,1.19-.06,1.07.02,2.14-.03,3.21-.06,1.35,0,2.58,1.74,2.74.66.06.6.52.6.95,0,.62-.43.67-.9.67-2.45,0-4.91.02-7.36.03-.45,0-.89-.02-.89-.67,0-.54-.02-.99.74-.98,1.34,0,1.56-.81,1.55-1.99-.05-4.47-.05-8.94,0-13.41.01-1.15-.23-2.01-1.47-2.21-.87-.14-.94-.64-.83-1.34.13-.86.78-.65,1.31-.66,1.38-.01,2.77,0,4.15,0Zm1.37,6.28c0,1,.08,2.01-.02,3.01-.12,1.14.38,1.3,1.38,1.31,1.74.01,3.06-.62,3.83-2.15.85-1.7.64-3.45-.43-4.96-1.04-1.47-2.77-1.57-4.26-1.17-1.06.28-.33,1.62-.48,2.46-.09.49-.02,1-.02,1.5Z"/>
  <path class="cls-2" d="m90.87,138.56c-5.86-.02-10.05-4.38-9.9-10.58.17-6.78,4.25-11.21,10.68-11.31,5.66-.09,10.12,4.84,10.09,10.81-.03,6.42-4.62,11.1-10.87,11.08Zm5.95-10.64c-.27-2.16-.38-4.35-1.51-6.32-1.84-3.21-5.42-3.69-7.56-1-2.56,3.23-2.36,11.03.37,14.14,2.07,2.36,5.2,2.06,6.91-.59,1.24-1.91,1.53-4.05,1.78-6.23Z"/>
  <path class="cls-2" d="m264.75,138.29c-2.27,0-4.53,0-6.8,0-.52,0-1.2.22-1.25-.69-.04-.76.38-.97,1.05-.98,1.09-.03,1.24-.71,1.23-1.66-.04-4.6-.05-9.19,0-13.79.01-1.14-.12-2.02-1.43-2.17-.75-.09-.93-.52-.84-1.17.09-.7.67-.71,1.14-.69,4.53.2,9.06.25,13.58-.11.18-.01.4-.01.54.08.51.31.79,5.15.28,5.4-.7.36-1.23.2-1.71-.56-1.64-2.61-3.25-3.22-6.27-2.68-.62.11-.63.36-.61.85.05,1.82.07,3.65.08,5.47,0,.37-.13.89.41.83,1.48-.16,3.38.84,4.17-1.39.25-.7.82-.43,1.27-.44.57,0,.7.42.7.91,0,1.26,0,2.52,0,3.78,0,.44.07,1.02-.54,1-.46-.02-1.03.31-1.41-.49-.88-1.86-2.81-.85-4.22-1.3-.46-.15-.42.47-.42.84,0,1.76.01,3.52.03,5.29.01.91.43,1.39,1.4,1.36,1.38-.04,2.77-.07,4.15-.04,1.34.03,1.57-1.08,2.03-1.91.39-.71.58-1.68,1.66-1.4,1.16.31.74,1.32.62,2.05-.56,3.53-.58,3.52-4.16,3.51-1.57,0-3.15,0-4.72,0,0,.04,0,.07,0,.11Z"/>
  <path class="cls-2" d="m22.32,126.69c0-1.76-.08-3.53.03-5.29.07-1.27-.38-2.09-1.57-2.42-.65-.18-1.02-.34-.84-1.12.17-.75.63-.8,1.25-.8,2.39.02,4.78,0,7.18-.02.6,0,.96.19,1.05.79.08.57-.08,1-.74,1.07-1.56.15-1.84,1.13-1.81,2.5.07,3.21,0,6.42.03,9.63.03,3.4,1.56,5.3,4.32,5.21,2.83-.1,5.22-1.56,5.2-5.13-.02-3.27-.01-6.55.04-9.82.02-1.21-.3-2.13-1.62-2.32-.67-.09-.82-.42-.77-1,.05-.62.42-.89.99-.9,1.89-.01,3.78-.02,5.67,0,.57,0,.92.31.92.95,0,.5-.13.82-.71.9-1.47.19-1.62,1.2-1.65,2.46-.08,3.52.25,7.04-.27,10.55-.53,3.57-3.69,6.54-7.26,6.62-1.81.04-3.61.14-5.35-.64-2.57-1.14-4.01-3.14-4.05-5.94,0-.63-.03-1.26-.03-1.89,0-1.13,0-2.27,0-3.4h.01Z"/>
  <path class="cls-2" d="m220.11,138.34c-1.26,0-2.52.01-3.78,0-.48,0-1.07.11-1.16-.62-.08-.68.19-1.1.93-1.1,1.22,0,1.36-.8,1.36-1.77.01-4.53.05-9.07.07-13.6,0-1.11-.07-2.15-1.54-2.32-.58-.07-.86-.48-.72-1.09.13-.57.47-.8,1.08-.76,4.65.31,9.31.36,13.96,0,.13,0,.25-.04.38-.02.8.14.77.77.69,1.32-.21,1.43.64,3-.41,4.25-.27.32-1.3.22-1.45-.65-.39-2.17-1.91-2.43-3.76-2.45-3.44-.04-3.44-.1-3.43,3.34,0,.44-.08.9.02,1.32.22.97-.67,2.27.46,2.87,1.26.66,4.03-.21,4.78-1.33.45-.68,1-.37,1.49-.36.69.02.42.65.43,1.03.03,1.32.03,2.65,0,3.97,0,.39.21.97-.49,1-.54.03-1.04.11-1.41-.59-.76-1.41-3.46-2.23-4.87-1.66-.61.25-.38.72-.39,1.11-.03,1.39.08,2.78-.04,4.15-.12,1.42.42,2.2,1.81,2.24.75.02,1.09.38,1.05.99-.05.73-.67.75-1.27.74-1.26-.03-2.52,0-3.78,0,0,0,0,0,0,.01Z"/>
  <path class="cls-2" d="m207.89,138.26c-1.13,0-2.27,0-3.4,0-.48,0-1.07.16-1.13-.62-.04-.56.06-.93.77-1.02,1.34-.17,1.31-.96.91-2.05-1.15-3.18-1.11-3.19-4.49-3.19-.13,0-.25-.01-.38,0-.91.1-2.2-.47-2.67.25-.72,1.11-.95,2.54-1.31,3.86-.2.74.42,1.04.97,1.11.69.08,1.03.29.96,1.04-.09.92-.78.66-1.28.67-1.57.03-3.15-.02-4.72.02-.62.02-1.01-.27-1.09-.79-.07-.45.24-.82.75-.92,1.42-.28,1.75-1.51,2.14-2.6,1.86-5.19,3.79-10.36,5.45-15.62.56-1.76,1.73-1.18,2.77-1.36,1.05-.18,1.42.26,1.78,1.32,1.88,5.44,3.92,10.83,5.93,16.23.32.87.65,1.8,1.74,2.03.58.13.92.44.83,1.04-.13.82-.8.63-1.34.63-1.07,0-2.14,0-3.21,0,0,0,0-.02,0-.03Zm-7.48-15.77c-.84,2.5-1.57,4.68-2.32,6.9h4.87c-.83-2.24-1.62-4.39-2.54-6.9Z"/>
  <path class="cls-2" d="m57.15,120.39c0,.31.04.64,0,.94-.09.54.39,1.35-.68,1.44-.78.07-1.36-.16-1.57-.98-.41-1.56-1.46-2.42-2.99-2.77-1.35-.3-2.63.01-3.3,1.17-.69,1.19-.3,2.37.83,3.32,1.61,1.35,3.62,1.96,5.36,3.07,4.22,2.69,4.54,8.02.64,10.8-2.33,1.66-8.06,1.84-10.5.36-.49-.3-.66-.68-.66-1.23,0-.88-.06-1.76-.07-2.64,0-.57-.34-1.33.69-1.41.73-.06,1.36-.03,1.63.85.48,1.61,1.5,2.7,3.17,3.15,1.5.4,2.8.08,3.63-1.23.83-1.31.55-2.67-.48-3.79-1.39-1.5-3.31-2.19-5.06-3.12-2.43-1.3-3.85-3.12-3.64-5.98.25-3.44,2.89-5.62,7.11-5.69,1.36-.02,2.76.21,4.09.52,1.78.42,1.76.5,1.82,3.21Z"/>
  <path class="cls-1" d="m45.24,262.15c-3.65,3.98-10.62,3.73-13.35-.97-.49-.85-.51-1.45.49-1.94.61-.3,1.17-.74,1.68-1.19.72-.63,1.32-.58,1.9.17.11.15.26.27.4.4,1.25,1.18,2.54,2.13,4.22.68.07.07.19.2.22.18.2-.13.28-.32.17-.56h.14s.02.14.02.14c.95-.97,1.17-2.16,1.17-3.46-.02-5.04,0-10.07,0-15.11q0-2.62,2.67-2.62c.19,0,.38.02.57,0,1.17-.12,1.52.45,1.5,1.56-.04,3.71-.03,7.43,0,11.14.03,3.82.17,7.65-1.52,11.23,0,0-.05.07-.05.06-.06.09-.13.19-.2.28Z"/>
  <path class="cls-2" d="m10.74,138.65c-6.2.31-10.19-4.21-10.66-9.15-.66-6.97,2.85-11.53,9.17-12.6,1.87-.32,3.61-.14,5.36.35,2.07.58,3.42,3.44,2.63,5.41-.17.42-.5.59-.88.54-.51-.07-1.07.07-1.27-.77-.31-1.33-1.22-2.32-2.42-2.98-2.6-1.42-5.63-.21-6.75,2.9-1.34,3.73-1.26,7.49.57,11.09.95,1.87,2.43,2.98,4.65,2.91,2.12-.07,3.79-.8,4.45-3,.26-.87.88-1.05,1.6-.83.79.24.66.95.55,1.59-.67,3.72-1.9,4.52-7,4.53Z"/>
  <path class="cls-2" d="m246.23,127.53c0,2.2.02,4.4,0,6.6-.01,1.36.09,2.6,1.92,2.52.75-.03.78.53.78,1,0,.55-.41.7-.93.67-2.64-.17-5.27-.09-7.91.06-.55.03-1.16.02-1.2-.82-.04-.77.32-.92,1.01-.93,1.37-.02,1.72-.86,1.71-2.14-.05-4.34.02-8.68-.05-13.02-.01-.72.67-1.94-.59-2.15-1.33-.22-2.82-.3-3.69,1.17-.25.43-.53.91-.55,1.38-.05,1.05-.63,1.32-1.5,1.16-.96-.18-.93-1.04-.73-1.65.44-1.35-.3-3.11.54-3.99.9-.94,2.57.05,3.93,0,4.33-.16,8.68.2,13-.33,1-.12,1.38.18,1.33,1.2-.06,1.19.03,2.39,0,3.58,0,.49.27,1.16-.69,1.23-.84.07-1.16-.21-1.41-1.03-.78-2.56-1.47-2.92-4.05-2.8-.89.04-.97.36-.95,1.11.05,2.39.02,4.78.02,7.17Z"/>
  <path class="cls-2" d="m158.06,138.55c-5.89.53-10.4-3.78-10.95-8.74-.77-6.96,2.58-11.65,8.79-12.89,1.87-.37,3.62-.19,5.4.12,2.33.41,3.82,3.32,2.95,5.51-.19.49-.54.7-1.02.62-.39-.06-.85.07-1.04-.55-.2-.64-.49-1.31-.93-1.81-1.21-1.41-2.74-2.21-4.65-1.82-2.27.47-3.54,2.1-4.12,4.19-.83,3.03-.74,6.11.36,9.06.79,2.11,2.12,3.86,4.66,4.04,2.57.18,3.83-.53,4.87-2.91.35-.79.77-.99,1.53-.9.93.11.58.79.58,1.29-.02,3.4-1.06,4.45-4.72,4.77-.69.06-1.38,0-1.7,0Z"/>
  <path class="cls-2" d="m72.25,127.68c0,2.26.05,4.53-.02,6.79-.04,1.27.36,2.12,1.71,2.16.74.02,1.01.24.96.98-.06.89-.71.78-1.23.73-2.39-.23-4.77-.18-7.15,0-.61.05-1.51.3-1.67-.72-.16-1.06.66-.98,1.35-1.05.95-.11,1.44-.69,1.44-1.64,0-4.97,0-9.94,0-14.91,0-.29.1-.57-.31-.75-1.64-.73-3.93.29-4.56,2.07-.14.41-.24.84-.4,1.24-.25.63-.82.46-1.3.45-.53-.01-.53-.43-.54-.81-.01-.31-.02-.63,0-.94.12-1.31-.16-2.88.48-3.86.71-1.09,2.26-.02,3.46-.08,4.45-.22,8.92.35,13.37-.29.91-.13,1.26.24,1.23,1.15-.04,1.13.04,2.27-.03,3.39-.03.51.46,1.35-.61,1.45-.84.07-1.11-.33-1.34-1.16-.66-2.35-1.38-2.72-3.79-2.64-.83.03-1.07.26-1.05,1.07.05,2.45.02,4.91.02,7.36Z"/>
  <path class="cls-2" d="m284.8,220.07c-4.09.03-8.18.1-12.27.1-85.4,0-170.8,0-256.21,0-1.07,0-2.13-.07-3.19-.11,6.17-.04,12.33-.1,18.5-.1,83.83,0,167.66,0,251.49,0,.56,0,1.12.07,1.68.1Z"/>
  <path class="cls-2" d="m138.68,127.59c1.19,0,2.38.04,3.57-.02,1.02-.05,1.49.28,1.46,1.38-.03.95-.37,1.37-1.34,1.35-2.51-.03-5.02-.06-7.52,0-1.07.02-1.27-.66-1.26-1.4.02-.75.21-1.44,1.33-1.33,1.24.12,2.5.03,3.76.03Z"/>
  <path class="cls-1" d="m45.49,261.81c1.69-3.58,1.55-7.41,1.52-11.23-.03-3.71-.03-7.43,0-11.14.01-1.11-.33-1.68-1.5-1.56-.19.02-.38,0-.57,0q-2.67,0-2.67,2.62c0,5.04-.01,10.07,0,15.11,0,1.3-.22,2.5-1.17,3.46.8-2.01.89-4.1.87-6.24-.05-4.65.03-9.29-.06-13.94-.03-1.22.27-1.39,1.42-1.34,3.97.16,3.97.11,3.97,3.99,0,4.9.01,9.8-.03,14.69-.02,2.03-.48,3.95-1.79,5.58Z"/>
  <path class="cls-1" d="m113.77,256.4c-.47-.63-.21-1.34-.21-2.01-.01-4.91-.04-9.83.04-14.74.02-1.45-.53-1.96-1.88-1.77-1.22.17-2.93-.62-2.89,1.79.08,4.97.02,9.95,0,14.93,0,1.08-.04,2.15-1.01,2.89.59-1.53.76-3.12.75-4.76-.05-4.59.01-9.18-.03-13.77-.01-1.04.26-1.38,1.36-1.4,4.03-.07,4.07-.11,4.05,3.94-.03,4.97.18,9.94-.16,14.9Z"/>
  <path class="cls-1" d="m161.05,238.57c-1.32-.98-2.85-.67-4.31-.64-.8.02-1.02.58-1.02,1.3,0,7.86-.02,15.71.03,23.57.02,2.11,1.79,1.21,2.86,1.39,1.21.2,1.84-.25,1.83-1.63-.05-4.84,0-9.68,0-14.52,0-.06-.04-.15,0-.18.22-.27.14.1.24.11.03,5.15.03,10.3.1,15.44.01.85-.25,1-1.05,1.03-4.32.18-4.32.21-4.32-4.14,0-6.97.05-13.94-.04-20.91-.02-1.55.49-2.1,1.89-1.78,1.27.29,2.96-1.02,3.8.95Z"/>
  <path class="cls-1" d="m137.24,237.64c-3.17.58-6.37.25-9.54.2-1.85-.03-2.3.54-2.29,2.33.08,7.97.02,15.94,0,23.91-.5-.47-.26-1.07-.26-1.6-.02-7.81,0-15.61-.04-23.42,0-1.08.1-1.54,1.37-1.5,3.58.11,7.17.06,10.76.08Z"/>
  <path class="cls-1" d="m206.67,237.52c-.47.66-1.15.32-1.73.33-3.7.05-7.41.04-11.11.05-1.33,0-2.68-.13-3.98.34.12-1.21,1.05-.6,1.57-.61,5.08-.07,10.16-.08,15.24-.11Z"/>
  <path class="cls-1" d="m125.53,264.2q4.65.03,4.65-4.61c0-1.44,0-2.88,0-4.32,0-.05.07-.1.1-.16.05.04.1.07.15.11.05,2.76.08,5.52.14,8.28.01.57-.05.98-.79.92-1.41-.12-2.85.23-4.25-.23Z"/>
  <path class="cls-1" d="m238.44,238.7c-.12-.21-.19-.53-.37-.62-1.37-.71-4.9-.1-6.04,1.01.15-1.2.75-1.67,2.01-1.54,1.31.13,2.64.06,3.96,0,1.47-.07.8.59.45,1.16Z"/>
  <path class="cls-1" d="m221.62,238.33c-2-.81-4.04-.5-6.08-.21-.1-.17-.43-.5-.03-.51,1.92-.05,3.83-.02,5.75.02.38,0,.45.35.35.7Z"/>
  <path class="cls-1" d="m232.02,238.97c-.04,1.21-.64,2.1-1.56,2.81.52-.94,1.04-1.88,1.56-2.81Z"/>
  <path class="cls-1" d="m222.35,239.58c-.09-.31-.19-.61-.28-.91.27.25.44.53.28.91Z"/>
  <path class="cls-1" d="m40.96,258.93c.11.24.03.43-.17.56-.02.02-.14-.12-.22-.18.13-.13.26-.25.39-.37Z"/>
  <path class="cls-1" d="m45.24,262.15c.07-.09.13-.19.2-.28-.02.14-.08.23-.2.28Z"/>
  <path class="cls-1" d="m127.47,74.72l-.34.25c.01-.14.03-.28.04-.42.12.02.22.08.31.16Z"/>
  <path class="cls-1" d="m221.99,238.58c-.26,0-.34-.16-.34-.38.3-.04.28.2.34.38Z"/>
  <path class="cls-1" d="m176.47,75.17c.09-.03.18-.06.26-.09-.08.01-.15.03-.23.05,0,0-.03.04-.03.04Z"/>
  <path class="cls-1" d="m130.42,242.68c.02,1.95.03,3.9.06,5.86,0,.53-.2,1.21.75,1.15,2.18-.14,4.39.34,6.53-.37-.54,1.08-1.54.63-2.34.64-5.24.07-5.26.05-5.25-5.12,0-.72-.3-1.5.25-2.17Z"/>
</svg>