<?xml version="1.0" encoding="UTF-8"?>
<svg id="Capa_1" data-name="Capa 1" xmlns="http://www.w3.org/2000/svg" version="1.1" viewBox="0 0 298.3 264.9">
  <defs>
    <style>
      .cls-1 {
        fill: #2b388f;
      }

      .cls-1, .cls-2 {
        stroke-width: 0px;
      }

      .cls-2 {
        fill: #f28a38;
      }
    </style>
  </defs>
  <path class="cls-2" d="M176.5,75.1c-5.2-3.5-10.3-6.9-15.4-10.4-.9-.6-1.2-.6-1.5.6-2.5,11.1-5,22.2-7.2,33.4,0,.4-.1.8-.6,1-1.2-4.5-2-9.1-3-13.7-1.5-6.8-2.8-13.7-4.7-20.4-.4-1.5-.5-1.8-2-.6-3.7,2.8-7.6,5.2-11.5,7.8-1,.7-1.9,1.6-3.1,1.9,0,0-.2-.1-.3-.2,3.5-4.8,6.7-9.7,9.7-14.8.9-1.5.5-1.8-.9-2-10.9-1.9-21.8-3.9-32.7-6.1-.5-.1-1.1-.3-1.6-.8,9.4-1.9,18.8-3.8,28.3-5.6,2.1-.4,4.2-1.1,6.4-.9.9.1,1-.7.5-1.4-1-1.5-2-3-3-4.6-2.1-3.3-4.2-6.7-6.4-10.1,1.4-.1,2.5.7,3.4,1.4,3.3,2.8,7.4,4.5,10.8,7.2,2.4,1.9,2.4,1.7,3.1-1.3,2.8-11.6,4.8-23.4,7-35.5,1.2,4.1,1.8,8,2.5,11.9,1.5,8.5,3.7,16.7,5.7,25.1.2.8.4.9,1.2.6,1.2-.5,2-1.4,3-2.1,3.7-2.4,7.4-4.8,11.1-7.2.2-.1.5,0,1-.1-3.4,5.3-6.6,10.3-10,15.5,11.7,2.1,23.3,4.4,34.8,7.6-11.4,3.5-23.2,4.7-35,7.4,1.3,2.9,3.2,5.5,4.9,8.2,1.8,2.7,3.6,5.3,5.4,7.9,0,.1,0,.3,0,.5h0s0,0,0,0ZM117.1,50.9c.2,0,.3.2.5.2,9.8,0,19.5,0,29.3,0h0c-.5-.2-1.1-.3-1.7-.4,1.1-.2,2.2-.3,3.4-.5-.9-1.9-2.9-2.5-4.1-3.9-.8-.9-1.8-1.1-2.9-.8-7.7,1.9-15.5,3.2-23.3,4.6-.4,0-1.1-.1-1.1.7h0ZM152.3,18.8c-.4,3.6-.4,7.3,0,10.9v18.9c1.2-.9,1.9-1.6,2.7-2,3.6-1.8,3.8-4.4,2.7-8.1-2-6.8-3.4-13.7-5.1-20.7,0,.4-.2.7-.2,1h0ZM187.2,51.6c-.6,0-.8-.1-1.1-.2-9.4-.5-18.9-.1-28.3-.2-.7,0-1.8-.4-2.1.2-.5.8.7,1.1,1.2,1.6.2.2.2.6.4.8,1.4,2.2,2.8,2.8,5.2,2.3,8.1-1.5,16.2-3,24.7-4.6h0ZM151.1,53.8c-1.9,2.1-3.5,3.8-5.1,5.5-.3.4-.3.7-.2,1.2,1.8,7.7,3.5,15.4,5.3,23.4.3-10.1,0-19.8,0-30.1h0Z"/>
  <path class="cls-1" d="M243.5,167c0,9.4,0,18.3,0,27.3,0,1.2.2,2.4.4,3.6.3,1.6,1.8,2.5,4.3,2.6,1.1,0,2,.2,2.2,1.5.3,1.7-.2,2.3-2,2.3-5,0-10.1,0-15.1,0-1.3,0-2-.4-2-1.8s.3-2,1.8-2c3.5-.2,4.7-1.5,4.7-4.9,0-10.7,0-21.4,0-32.1,0-3.6-1.1-4.9-4.7-5.2-1.7-.2-2-1-2-2.3s1-1.5,2.2-1.5c4,0,8.1,0,12.1,0,1,0,1.7.2,2.3,1.1,8.9,11.4,17.9,22.7,27,34.1,0-9.1,0-18,0-27,0-2.6-2-4.3-4.9-4.4-1.5,0-2.2-.7-2.1-2.1,0-1.5,1-1.7,2.3-1.7,4.9,0,9.8,0,14.7,0,1.1,0,1.9.1,1.9,1.5s-.1,2.1-1.6,2.4c-3.7.6-4.6,1.7-4.6,5.5,0,13.1,0,26.2,0,39.3,0,1.5-.3,1.7-1.8,1.9-3.3.4-5.4-.8-7.5-3.4-7.7-9.9-15.7-19.6-23.6-29.4-1.3-1.6-2.6-3.2-4.2-5.1h0Z"/>
  <path class="cls-1" d="M153.2,177.7c3.9.5,7.2,1.1,10.2,3.1,3.9,2.6,5.7,6.3,5.2,10.9-.5,4.8-3,8.3-7.4,10.3-3.3,1.5-6.8,2.2-10.3,2.3-7.8.1-15.6,0-23.4,0-1.2,0-1.9-.2-1.9-1.6s.3-2.1,1.8-2.2c3.3-.2,3.8-.9,3.8-4.2,0-11,0-22,0-33.1,0-3.3-1-4.6-4.3-5-1.4-.2-1.8-.8-1.8-2.1,0-1.4.8-1.8,2.1-1.8,7.9,0,15.8,0,23.6,0,3.8,0,7.5.9,10.5,3.5,5.7,4.8,4.8,13.7-1.6,17.6-1.9,1.1-3.9,1.8-6.5,2.2h0ZM141.8,189.7h0c0,2.6,0,5.2,0,7.7,0,1.8.7,2.5,2.4,2.5,1.8,0,3.5,0,5.3,0,5.1-.4,8-3.5,8.2-8.6.2-6-2.4-9.5-8.1-10.5-2.1-.4-4.3,0-6.4-.2-1.1,0-1.4.2-1.4,1.3,0,2.6,0,5.3,0,7.9h0ZM141.8,167.7h0c0,2.3,0,4.6,0,7,0,.4-.3,1.2.4,1.2,3.1,0,6.4.8,9.1-1.2,3.3-2.3,3.7-5.9,3.2-9.6-.5-3.3-2.8-5.5-6.3-6.1-1.5-.3-3.1-.1-4.7-.1-1.3,0-1.9.7-1.8,2,0,2.3,0,4.5,0,6.8h0Z"/>
  <path class="cls-1" d="M68.8,176.1v-13c0-3.4-.9-4.5-4.3-4.8-1.5-.1-1.8-1-1.8-2.3,0-1.4.7-1.5,1.8-1.5,6.5,0,13,0,19.5,0,1.2,0,1.9.2,1.9,1.6s-.5,2.2-1.9,2.2c-2.5-.1-3.8,2-3.8,4.1,0,8.6,0,17.2,0,25.9,0,6.7,5,11.5,11.7,11.6,2,0,3.9,0,5.8-.5,4.9-1.4,8.3-5.4,8.6-10.6.4-8.7.5-17.4,0-26-.2-2.7-1.5-4.2-4.2-4.3-1.5-.1-2.2-.8-2.2-2.2,0-1.6,1.1-1.7,2.4-1.6,4.8,0,9.6,0,14.4,0,1.1,0,1.8.1,1.8,1.5s-.2,2.2-1.8,2.3c-3.4.3-4.3,1.4-4.3,4.8,0,7.1,0,14.2,0,21.4,0,2.7-.3,5.4-1,8-1.6,5.9-5.4,9.8-11.1,11.7-7.2,2.4-14.5,2.4-21.5-.5-6.5-2.6-9.7-7.8-9.8-14.8,0-4.2,0-8.4,0-12.7h0Z"/>
  <path class="cls-1" d="M213.9,204.3c-3.2,0-6.3,0-9.5,0-1.2,0-1.7-.5-1.8-1.6,0-1.1.3-1.7,1.5-1.9,4.5-.5,4.3-2,3-5.5-.8-2-1.5-4.1-2.3-6.1-.3-.8-.7-1.2-1.6-1.2-4.7,0-9.5,0-14.2,0-.7,0-1,.2-1.3,1-.8,2.6-1.7,5.2-2.5,7.8-.8,2.5-.2,3.4,2.5,3.7,2.3.3,2.8.7,2.5,2.6-.1.8-.4,1.2-1.3,1.2-4.8,0-9.6,0-14.4,0-.9,0-1.4-.4-1.4-1.3,0-1-.2-2.3,1.2-2.4,3-.2,4.3-2.2,5.2-4.7,4.7-13,9.4-26,14.1-39,.2-.6.3-1.2.4-1.8.2-.7.5-1,1.3-1,2,0,4,0,6-.3s1.5.2,1.9,1.2c3.7,10.1,7.4,20.2,11.2,30.4,1.5,4.1,3.2,8.2,4.8,12.3.7,1.9,2.1,2.7,4,3,1.5.2,1.8,1.1,1.8,2.4,0,1.5-1,1.5-2,1.5-3,0-6,0-9.1,0h0ZM202.6,183.5c-2.2-5.9-4.3-11.5-6.5-17.5-1.9,5.6-3.8,10.9-5.7,16.2-.3,1-.3,1.3.9,1.3,3.7,0,7.4,0,11.3,0h0Z"/>
  <path class="cls-1" d="M55.6,161.9c0,2,.2,3.7,0,5.4,0,.8-.1,1.6-1.2,1.4-1.1-.2-2.6,1-3.2-.9-.2-.6-.3-1.2-.5-1.8-1.3-4.1-5.1-7-9.4-7.5-11.7-1.2-15.9,7-16.9,14.5-.7,5.4-.7,10.8,1.2,16,2.1,5.8,5.7,10.2,12.1,11.3,5.6,1,12-1,14.2-7.6.6-1.8,1.8-1.2,2.8-1.2s1.5.9,1.4,2c-.3,2.7-.8,5.3-1.3,7.9-.1.6-.4,1-1,1.2-9.9,3.5-19.8,4.7-29.4-.5-7.9-4.3-11.7-11.3-12.2-20.2-.4-8,1.8-15,7.5-20.7s11.8-7.5,19.1-7.9c4.2-.2,8.3.3,12.2,1.5,4,1.2,4.2,1.6,4.3,5.7v1.4h0Z"/>
  <path class="cls-1" d="M284.8,220.1c1.2.4.8,1.4.7,2.2-.2,1.1-1.2.6-1.9.6-38.6,0-77.2,0-115.9,0H14.4c-1.3,0-2.7.2-2.3-1.9,0-.6.5-.8,1-1,1.1,0,2.1.1,3.2.1h256.2c4.1,0,8.2,0,12.3-.1h0Z"/>
  <path class="cls-2" d="M70,264.9c-7.8,0-13.6-5.9-13.6-13.7,0-7.9,6.2-14,13.7-14,7.1,0,13.6,6,13.6,13.8,0,7.7-6.2,14.4-13.7,14h0ZM78,251c0-5-3.2-8.7-7.8-8.8-4.6-.1-8.1,3.5-8.2,8.4,0,5.4,3.2,9.3,8,9.2,4.4,0,8-3.2,8-8.8h0Z"/>
  <path class="cls-2" d="M161,238.6c2.8,3,4.5,6.8,7.3,9.8,1.7,1.9,2.5,4.4,4.6,6,.5-.4.2-.9.2-1.3,0-4.7,0-9.4,0-14.2,0-1,.2-1.4,1.3-1.4,4,0,4-.1,4,4,0,7,0,14.1,0,21.1,0,1.3-.4,1.7-1.7,1.8-2.8.3-4.6-.5-5.7-3.2-.7-1.7-2.3-3-3.4-4.5-1.9-2.6-3.7-5.2-5.5-7.9-.4-.5-.7-1.2-1.5-.9,0,0,0-.4-.2-.1,0,0,0,.1,0,.2,0,4.8,0,9.7,0,14.5,0,1.4-.6,1.8-1.8,1.6-1.1-.2-2.8.7-2.9-1.4,0-7.9,0-15.7,0-23.6s.2-1.3,1-1.3c1.5,0,3-.3,4.3.6h0Z"/>
  <path class="cls-2" d="M137.2,237.6c3.3,0,5.7,1.5,7,4.4,1.4,3,1.3,6.2-.6,9-.6.9-1.8,1.5-2.8,2.1-1,.7-1.4,1-.4,2.3,2,2.8,3.7,5.9,5.6,9.1-2,0-3.7,0-5.5,0-.7,0-1-.5-1.2-1-1.1-2.1-2.2-4.2-3.4-6.2-1.6-2.6-2.2-3-5.3-2.1,0,0,0,0-.2-.1,0,0,0,.1,0,.2v4.3c0,3.1-1.5,4.6-4.7,4.6h0s0-.1,0-.1c0-8,0-15.9,0-23.9,0-1.8.4-2.4,2.3-2.3,3.2,0,6.4.4,9.5-.2h0ZM130.4,242.7c-.6.7-.2,1.5-.2,2.2,0,5.2,0,5.2,5.2,5.1.8,0,1.8.4,2.3-.6,1.3-.9,2.2-2.9,1.7-4.3-.5-1.5-1.6-2.5-3.4-2.5-1.9,0-3.8-.2-5.6.1h0Z"/>
  <path class="cls-2" d="M206.7,237.5c1.1,1.6.4,3.3.3,5,0,.6-1,.4-1.5.4-3,0-6,0-9.1,0-.2,0-.7-.2-.7-.1-.8,1.4-.2,3-.3,4.5,0,.8.4.9,1.1.9,2.5,0,4.9,0,7.4,0,1.2,0,1.5.3,1.5,1.5,0,4.6.1,4.6-4.4,4-.3,0-.6,0-.9-.1-4.8-.3-4.7-.3-4.7,4.4,0,1.1.4,1.2,1.3,1.2,3.1,0,6.3.3,9.4.2,1.3,0,1.5.5,1.5,1.6,0,3.5,0,3.5-3.5,3.5s-8.6,0-12.8,0c-1,0-1.5-.1-1.5-1.3,0-8.3,0-16.6,0-24.9,1.3-.5,2.6-.3,4-.3,3.7,0,7.4,0,11.1,0,.6,0,1.3.3,1.7-.3h0Z"/>
  <path class="cls-1" d="M117.8,131.6c1.8-4.6,3.5-8.9,5.1-13.1.4-1,.9-1.5,2-1.4,1.4.1,2.8,0,4.2,0,.6,0,1.2,0,1.3.7.2.7-.2,1.1-.8,1.3-1,.3-1.1,1.1-1.1,2.1.2,4.6.3,9.2.4,13.8,0,.9.4,1.5,1.2,1.6.7.1.7.5.7,1.1,0,.8-.6.6-1.1.6-2.3,0-4.5,0-6.8,0s-1.2.1-1.2-.8c0-.8.5-.9,1.1-1,.9-.1,1.4-.7,1.3-1.7-.3-3.8.1-7.7-.5-11.8-1.9,4.8-3.7,9.3-5.5,13.8-.2.6-.3,1.4-1.2,1.5-1,.1-1.6-.1-2-1.3-1.6-4.5-3.3-9-5-13.4,0-.2-.2-.4-.6-.9,0,4.2,0,8.1,0,12,0,1,.6,1.5,1.4,1.7.7.1,1,.4.9,1.1-.1.9-.7.7-1.3.7-1.6,0-3.2,0-4.7,0-.5,0-1.2.3-1.3-.6,0-.8.2-.9.9-1,1-.1,1.4-.9,1.4-1.9,0-4.5.2-8.9.4-13.4,0-1.1-.1-2-1.4-2.3-.7-.1-1-.6-.8-1.3.2-.6.7-.7,1.2-.6h.2c3.9-.2,6.5,1.6,7.9,5.1.6,1.5,1.2,3,1.8,4.5.6,1.5,1.2,3,1.8,4.8h0Z"/>
  <path class="cls-2" d="M113.8,256.4c-.4,5-4.8,8.6-9.5,8.5-1.6,0-3.1.1-4.7-.3-4-1.1-6.8-4.4-7-8.4-.4-5.8,0-11.6-.2-17.4,0-.9.1-1.2,1.1-1.2,4.5-.2,4.5-.3,4.5,4.2,0,4.3,0,8.6,0,12.9,0,2.5,1.4,4.4,3.6,5,2.5.7,5,0,6.2-2,1-.7,1-1.8,1-2.9,0-5,0-10,0-14.9,0-2.4,1.7-1.6,2.9-1.8,1.4-.2,1.9.3,1.9,1.8,0,4.9,0,9.8,0,14.7,0,.7-.2,1.4.2,2h0Z"/>
  <path class="cls-2" d="M255.1,264.9c-3.8.1-6.9-1.4-9.5-4.2-.8-.9-.6-1.5.3-1.8.8-.4,1.6-.8,2.1-1.5.4-.4.6-.4,1,0,.6.5,1.3.8,1.9,1.2,1.2.8,2.5,1.4,4,1.4s3.6-1,3.9-2.4c.3-2-1-2.9-2.5-3.5-2-.9-4.3-1.4-6.3-2.4-5.6-2.8-4.8-10-1.4-12.5,3.2-2.4,6.8-2.5,10.5-1.3,1.4.4,2.4,1.5,3.7,2.2,1.2.6,1.4,1.5.1,2.4-.2.1-.4.3-.6.5-1.2,1.2-2.1,2-3.7.3-1.3-1.4-3.4-1.2-5.2-.9-1,.2-1.7.8-1.8,1.9-.2,1.1.2,2,1.2,2.5,2.1,1.2,4.5,1.6,6.6,2.6,5,2.3,6.6,8,3.3,12.4-1.9,2.5-4.7,3.4-7.8,3.3h0Z"/>
  <path class="cls-1" d="M283.6,138.3h-5.5c-.5,0-1,0-1-.7s.1-.9.8-.9c1.2,0,1.5-.8,1.5-1.9,0-4.5,0-9.1,0-13.6,0-1.1-.2-1.9-1.4-2.1-.8-.1-1-.5-.9-1.3,0-.9.7-.8,1.2-.7,3.8.1,7.5,0,11.3.3,6.7.4,9.4,6.5,8.5,11.9-.9,5.4-5,9.1-10.8,8.9-1.3,0-2.5,0-3.8,0h0s0,0,0,0ZM284.1,127.6h0v3.4c0,1.2,0,2.4,0,3.6,0,.9.2,1.6,1.3,1.6,3.3,0,5.7-.9,7-4,.8-1.9,1-4,.8-6.1-.7-4.9-3-7-7.7-6.9-1.2,0-1.5.5-1.5,1.6,0,2.3,0,4.5,0,6.8h0Z"/>
  <path class="cls-2" d="M222.3,239.6c2,2.4,2.9,5.5,4.8,8.3,1.2-2.1,2.2-4.1,3.3-6.1.9-.7,1.5-1.6,1.6-2.8h0c1.2-1,4.7-1.6,6-.9.2,0,.2.4.4.6-2.5,4.1-4.9,8.2-7.4,12.2-.8,1.3-1.3,2.6-1.2,4.2.1,2.6,0,5.3,0,7.9,0,1-.2,1.5-1.3,1.5-5.2,0-4.5.5-4.1-3.9.4-5.3-.7-9.9-3.9-14.2-1.9-2.6-3.3-5.5-5-8.3,2-.3,4.1-.6,6.1.2h0c0,0,0-.1,0-.1,0,.2,0,.4.3.4h0c0,.4.2.7.3,1h0Z"/>
  <path class="cls-1" d="M173.7,117c2.4.3,4.9,0,7.3.7,2.6.8,4.1,2.5,4.3,4.7.2,2.6-1,4.5-3.3,5.5-.7.3-.9.4-.5,1.1,1.2,1.9,2.2,3.9,3.8,5.6.7.8,1.4,1.6,2.6,1.8.6,0,1,.5.9,1.2,0,.9-.7.7-1.2.8-3.8.4-6.7-1-8.6-4.4-.7-1.2-1.3-2.4-1.9-3.6-.3-.8-.8-.9-1.5-.8-.8,0-.4.8-.5,1.2,0,1.1,0,2.1,0,3.2,0,1.4,0,2.6,1.7,2.7.7,0,.6.5.6,1,0,.6-.4.7-.9.7-2.5,0-4.9,0-7.4,0-.5,0-.9,0-.9-.7s0-1,.7-1c1.3,0,1.6-.8,1.5-2,0-4.5,0-8.9,0-13.4,0-1.1-.2-2-1.5-2.2-.9-.1-.9-.6-.8-1.3.1-.9.8-.6,1.3-.7,1.4,0,2.8,0,4.2,0h0ZM175.1,123.3c0,1,0,2,0,3-.1,1.1.4,1.3,1.4,1.3,1.7,0,3.1-.6,3.8-2.1.8-1.7.6-3.5-.4-5-1-1.5-2.8-1.6-4.3-1.2-1.1.3-.3,1.6-.5,2.5,0,.5,0,1,0,1.5Z"/>
  <path class="cls-1" d="M90.9,138.6c-5.9,0-10-4.4-9.9-10.6.2-6.8,4.2-11.2,10.7-11.3,5.7,0,10.1,4.8,10.1,10.8,0,6.4-4.6,11.1-10.9,11.1ZM96.8,127.9c-.3-2.2-.4-4.4-1.5-6.3-1.8-3.2-5.4-3.7-7.6-1-2.6,3.2-2.4,11,.4,14.1,2.1,2.4,5.2,2.1,6.9-.6,1.2-1.9,1.5-4,1.8-6.2h0Z"/>
  <path class="cls-1" d="M264.7,138.3h-6.8c-.5,0-1.2.2-1.2-.7,0-.8.4-1,1-1,1.1,0,1.2-.7,1.2-1.7,0-4.6,0-9.2,0-13.8,0-1.1-.1-2-1.4-2.2-.8,0-.9-.5-.8-1.2,0-.7.7-.7,1.1-.7,4.5.2,9.1.2,13.6-.1.2,0,.4,0,.5,0,.5.3.8,5.1.3,5.4-.7.4-1.2.2-1.7-.6-1.6-2.6-3.2-3.2-6.3-2.7-.6.1-.6.4-.6.9,0,1.8,0,3.6,0,5.5,0,.4-.1.9.4.8,1.5-.2,3.4.8,4.2-1.4.2-.7.8-.4,1.3-.4.6,0,.7.4.7.9v3.8c0,.4,0,1-.5,1-.5,0-1,.3-1.4-.5-.9-1.9-2.8-.9-4.2-1.3-.5-.1-.4.5-.4.8,0,1.8,0,3.5,0,5.3,0,.9.4,1.4,1.4,1.4,1.4,0,2.8,0,4.2,0,1.3,0,1.6-1.1,2-1.9.4-.7.6-1.7,1.7-1.4,1.2.3.7,1.3.6,2-.6,3.5-.6,3.5-4.2,3.5h-4.7c0,.1,0,.1,0,.1Z"/>
  <path class="cls-1" d="M22.3,126.7c0-1.8,0-3.5,0-5.3,0-1.3-.4-2.1-1.6-2.4-.7-.2-1-.3-.8-1.1.2-.8.6-.8,1.2-.8,2.4,0,4.8,0,7.2,0,.6,0,1,.2,1,.8,0,.6,0,1-.7,1.1-1.6.1-1.8,1.1-1.8,2.5,0,3.2,0,6.4,0,9.6,0,3.4,1.6,5.3,4.3,5.2,2.8-.1,5.2-1.6,5.2-5.1,0-3.3,0-6.5,0-9.8,0-1.2-.3-2.1-1.6-2.3-.7,0-.8-.4-.8-1,0-.6.4-.9,1-.9,1.9,0,3.8,0,5.7,0,.6,0,.9.3.9.9s-.1.8-.7.9c-1.5.2-1.6,1.2-1.7,2.5,0,3.5.2,7-.3,10.5-.5,3.6-3.7,6.5-7.3,6.6-1.8,0-3.6.1-5.3-.6-2.6-1.1-4-3.1-4-5.9,0-.6,0-1.3,0-1.9v-3.4h0,0Z"/>
  <path class="cls-1" d="M220.1,138.3c-1.3,0-2.5,0-3.8,0-.5,0-1.1.1-1.2-.6,0-.7.2-1.1.9-1.1,1.2,0,1.4-.8,1.4-1.8,0-4.5,0-9.1,0-13.6,0-1.1,0-2.1-1.5-2.3-.6,0-.9-.5-.7-1.1.1-.6.5-.8,1.1-.8,4.7.3,9.3.4,14,0,.1,0,.2,0,.4,0,.8.1.8.8.7,1.3-.2,1.4.6,3-.4,4.2-.3.3-1.3.2-1.5-.6-.4-2.2-1.9-2.4-3.8-2.4-3.4,0-3.4-.1-3.4,3.3,0,.4,0,.9,0,1.3.2,1-.7,2.3.5,2.9,1.3.7,4-.2,4.8-1.3.5-.7,1-.4,1.5-.4.7,0,.4.6.4,1,0,1.3,0,2.6,0,4,0,.4.2,1-.5,1-.5,0-1,.1-1.4-.6-.8-1.4-3.5-2.2-4.9-1.7-.6.2-.4.7-.4,1.1,0,1.4,0,2.8,0,4.1-.1,1.4.4,2.2,1.8,2.2.8,0,1.1.4,1,1,0,.7-.7.8-1.3.7-1.3,0-2.5,0-3.8,0h0s0,0,0,0Z"/>
  <path class="cls-1" d="M207.9,138.3h-3.4c-.5,0-1.1.2-1.1-.6,0-.6,0-.9.8-1,1.3-.2,1.3-1,.9-2-1.2-3.2-1.1-3.2-4.5-3.2s-.2,0-.4,0c-.9.1-2.2-.5-2.7.2-.7,1.1-1,2.5-1.3,3.9-.2.7.4,1,1,1.1.7,0,1,.3,1,1,0,.9-.8.7-1.3.7-1.6,0-3.2,0-4.7,0-.6,0-1-.3-1.1-.8,0-.5.2-.8.8-.9,1.4-.3,1.8-1.5,2.1-2.6,1.9-5.2,3.8-10.4,5.5-15.6.6-1.8,1.7-1.2,2.8-1.4,1-.2,1.4.3,1.8,1.3,1.9,5.4,3.9,10.8,5.9,16.2.3.9.7,1.8,1.7,2,.6.1.9.4.8,1-.1.8-.8.6-1.3.6h-3.2s0,0,0,0ZM200.4,122.5c-.8,2.5-1.6,4.7-2.3,6.9h4.9c-.8-2.2-1.6-4.4-2.5-6.9h0Z"/>
  <path class="cls-1" d="M57.1,120.4c0,.3,0,.6,0,.9,0,.5.4,1.4-.7,1.4-.8,0-1.4-.2-1.6-1-.4-1.6-1.5-2.4-3-2.8-1.3-.3-2.6,0-3.3,1.2-.7,1.2-.3,2.4.8,3.3,1.6,1.4,3.6,2,5.4,3.1,4.2,2.7,4.5,8,.6,10.8-2.3,1.7-8.1,1.8-10.5.4-.5-.3-.7-.7-.7-1.2,0-.9,0-1.8,0-2.6,0-.6-.3-1.3.7-1.4.7,0,1.4,0,1.6.9.5,1.6,1.5,2.7,3.2,3.1,1.5.4,2.8,0,3.6-1.2s.5-2.7-.5-3.8c-1.4-1.5-3.3-2.2-5.1-3.1-2.4-1.3-3.8-3.1-3.6-6,.2-3.4,2.9-5.6,7.1-5.7,1.4,0,2.8.2,4.1.5,1.8.4,1.8.5,1.8,3.2h0Z"/>
  <path class="cls-2" d="M45.2,262.2c-3.7,4-10.6,3.7-13.3-1-.5-.9-.5-1.5.5-1.9.6-.3,1.2-.7,1.7-1.2.7-.6,1.3-.6,1.9.2.1.1.3.3.4.4,1.2,1.2,2.5,2.1,4.2.7,0,0,.2.2.2.2.2-.1.3-.3.2-.6h.2c1-.8,1.2-2,1.2-3.3,0-5,0-10.1,0-15.1s.9-2.6,2.7-2.6.4,0,.6,0c1.2-.1,1.5.5,1.5,1.6,0,3.7,0,7.4,0,11.1,0,3.8.2,7.6-1.5,11.2,0,0,0,0,0,0,0,0-.1.2-.2.3h0Z"/>
  <path class="cls-1" d="M10.7,138.7c-6.2.3-10.2-4.2-10.7-9.1-.7-7,2.9-11.5,9.2-12.6,1.9-.3,3.6-.1,5.4.4,2.1.6,3.4,3.4,2.6,5.4-.2.4-.5.6-.9.5-.5,0-1.1,0-1.3-.8-.3-1.3-1.2-2.3-2.4-3-2.6-1.4-5.6-.2-6.8,2.9-1.3,3.7-1.3,7.5.6,11.1,1,1.9,2.4,3,4.7,2.9,2.1,0,3.8-.8,4.5-3,.3-.9.9-1,1.6-.8.8.2.7,1,.5,1.6-.7,3.7-1.9,4.5-7,4.5h0Z"/>
  <path class="cls-1" d="M246.2,127.5c0,2.2,0,4.4,0,6.6,0,1.4,0,2.6,1.9,2.5.8,0,.8.5.8,1s-.4.7-.9.7c-2.6-.2-5.3,0-7.9,0-.5,0-1.2,0-1.2-.8,0-.8.3-.9,1-.9,1.4,0,1.7-.9,1.7-2.1,0-4.3,0-8.7,0-13,0-.7.7-1.9-.6-2.1-1.3-.2-2.8-.3-3.7,1.2-.2.4-.5.9-.5,1.4,0,1-.6,1.3-1.5,1.2-1-.2-.9-1-.7-1.6.4-1.4-.3-3.1.5-4,.9-.9,2.6,0,3.9,0,4.3-.2,8.7.2,13-.3,1-.1,1.4.2,1.3,1.2,0,1.2,0,2.4,0,3.6,0,.5.3,1.2-.7,1.2-.8,0-1.2-.2-1.4-1-.8-2.6-1.5-2.9-4-2.8-.9,0-1,.4-1,1.1,0,2.4,0,4.8,0,7.2h0Z"/>
  <path class="cls-1" d="M158.1,138.5c-5.9.5-10.4-3.8-11-8.7-.8-7,2.6-11.6,8.8-12.9,1.9-.4,3.6-.2,5.4.1,2.3.4,3.8,3.3,3,5.5-.2.5-.5.7-1,.6-.4,0-.8,0-1-.5-.2-.6-.5-1.3-.9-1.8-1.2-1.4-2.7-2.2-4.7-1.8-2.3.5-3.5,2.1-4.1,4.2-.8,3-.7,6.1.4,9.1.8,2.1,2.1,3.9,4.7,4,2.6.2,3.8-.5,4.9-2.9.3-.8.8-1,1.5-.9.9.1.6.8.6,1.3,0,3.4-1.1,4.5-4.7,4.8-.7,0-1.4,0-1.7,0h0Z"/>
  <path class="cls-1" d="M72.2,127.7c0,2.3,0,4.5,0,6.8,0,1.3.4,2.1,1.7,2.2.7,0,1,.2,1,1,0,.9-.7.8-1.2.7-2.4-.2-4.8-.2-7.2,0-.6,0-1.5.3-1.7-.7-.2-1.1.7-1,1.3-1,1-.1,1.4-.7,1.4-1.6v-14.9c0-.3,0-.6-.3-.8-1.6-.7-3.9.3-4.6,2.1-.1.4-.2.8-.4,1.2-.2.6-.8.5-1.3.5-.5,0-.5-.4-.5-.8,0-.3,0-.6,0-.9.1-1.3-.2-2.9.5-3.9.7-1.1,2.3,0,3.5,0,4.5-.2,8.9.4,13.4-.3.9-.1,1.3.2,1.2,1.1,0,1.1,0,2.3,0,3.4,0,.5.5,1.4-.6,1.5-.8,0-1.1-.3-1.3-1.2-.7-2.4-1.4-2.7-3.8-2.6-.8,0-1.1.3-1,1.1,0,2.4,0,4.9,0,7.4h0Z"/>
  <path class="cls-1" d="M284.8,220.1c-4.1,0-8.2.1-12.3.1H16.3c-1.1,0-2.1,0-3.2-.1,6.2,0,12.3-.1,18.5-.1h251.5c.6,0,1.1,0,1.7.1h0Z"/>
  <path class="cls-1" d="M138.7,127.6c1.2,0,2.4,0,3.6,0,1,0,1.5.3,1.5,1.4,0,1-.4,1.4-1.3,1.4-2.5,0-5,0-7.5,0-1.1,0-1.3-.7-1.3-1.4,0-.8.2-1.4,1.3-1.3,1.2.1,2.5,0,3.8,0h0Z"/>
  <path class="cls-2" d="M45.5,261.8c1.7-3.6,1.5-7.4,1.5-11.2,0-3.7,0-7.4,0-11.1,0-1.1-.3-1.7-1.5-1.6-.2,0-.4,0-.6,0-1.8,0-2.7.9-2.7,2.6,0,5,0,10.1,0,15.1,0,1.3-.2,2.5-1.2,3.5.8-2,.9-4.1.9-6.2,0-4.6,0-9.3,0-13.9,0-1.2.3-1.4,1.4-1.3,4,.2,4,.1,4,4s0,9.8,0,14.7c0,2-.5,4-1.8,5.6h0Z"/>
  <path class="cls-2" d="M113.8,256.4c-.5-.6-.2-1.3-.2-2,0-4.9,0-9.8,0-14.7,0-1.5-.5-2-1.9-1.8-1.2.2-2.9-.6-2.9,1.8,0,5,0,10,0,14.9,0,1.1,0,2.1-1,2.9.6-1.5.8-3.1.8-4.8,0-4.6,0-9.2,0-13.8,0-1,.3-1.4,1.4-1.4,4,0,4.1-.1,4,3.9,0,5,.2,9.9-.2,14.9h0Z"/>
  <path class="cls-2" d="M161,238.6c-1.3-1-2.8-.7-4.3-.6-.8,0-1,.6-1,1.3,0,7.9,0,15.7,0,23.6,0,2.1,1.8,1.2,2.9,1.4,1.2.2,1.8-.2,1.8-1.6,0-4.8,0-9.7,0-14.5s0-.1,0-.2c.2-.3.1.1.2.1,0,5.1,0,10.3,0,15.4,0,.9-.2,1-1,1-4.3.2-4.3.2-4.3-4.1,0-7,0-13.9,0-20.9,0-1.5.5-2.1,1.9-1.8,1.3.3,3-1,3.8,1h0Z"/>
  <path class="cls-2" d="M137.2,237.6c-3.2.6-6.4.2-9.5.2-1.8,0-2.3.5-2.3,2.3,0,8,0,15.9,0,23.9-.5-.5-.3-1.1-.3-1.6,0-7.8,0-15.6,0-23.4,0-1.1,0-1.5,1.4-1.5,3.6.1,7.2,0,10.8,0h0Z"/>
  <path class="cls-2" d="M206.7,237.5c-.5.7-1.2.3-1.7.3-3.7,0-7.4,0-11.1,0-1.3,0-2.7-.1-4,.3.1-1.2,1-.6,1.6-.6,5.1,0,10.2,0,15.2-.1h0Z"/>
  <path class="cls-2" d="M125.5,264.2c3.1,0,4.7-1.5,4.7-4.6v-4.3s0-.1,0-.2c0,0,0,0,.2.1,0,2.8,0,5.5.1,8.3,0,.6,0,1-.8.9-1.4-.1-2.8.2-4.2-.2h0Z"/>
  <path class="cls-2" d="M238.4,238.7c-.1-.2-.2-.5-.4-.6-1.4-.7-4.9-.1-6,1,.2-1.2.8-1.7,2-1.5,1.3.1,2.6,0,4,0,1.5,0,.8.6.5,1.2h0Z"/>
  <path class="cls-2" d="M221.6,238.3c-2-.8-4-.5-6.1-.2,0-.2-.4-.5,0-.5,1.9,0,3.8,0,5.8,0,.4,0,.5.4.3.7h0Z"/>
  <path class="cls-2" d="M232,239c0,1.2-.6,2.1-1.6,2.8.5-.9,1-1.9,1.6-2.8Z"/>
  <path class="cls-2" d="M222.3,239.6c0-.3-.2-.6-.3-.9.3.2.4.5.3.9Z"/>
  <path class="cls-2" d="M41,258.9c.1.2,0,.4-.2.6,0,0-.1-.1-.2-.2.1-.1.3-.2.4-.4h0Z"/>
  <path class="cls-2" d="M45.2,262.2c0,0,.1-.2.2-.3,0,.1,0,.2-.2.3Z"/>
  <path class="cls-2" d="M127.5,74.7l-.3.2c0-.1,0-.3,0-.4.1,0,.2,0,.3.2h0Z"/>
  <path class="cls-2" d="M222,238.6c-.3,0-.3-.2-.3-.4.3,0,.3.2.3.4Z"/>
  <path class="cls-2" d="M176.5,75.2c0,0,.2,0,.3,0,0,0-.2,0-.2,0h0Z"/>
  <path class="cls-2" d="M130.4,242.7c0,2,0,3.9,0,5.9,0,.5-.2,1.2.8,1.1,2.2-.1,4.4.3,6.5-.4-.5,1.1-1.5.6-2.3.6-5.2,0-5.3,0-5.2-5.1,0-.7-.3-1.5.2-2.2h0Z"/>
</svg>