<?xml version="1.0" encoding="UTF-8"?>
<svg id="Capa_1" data-name="Capa 1" xmlns="http://www.w3.org/2000/svg" viewBox="0 0 256.68 248.91">
  <defs>
    <style>
      .cls-1 {
        fill: #f28a38;
      }

      .cls-1, .cls-2 {
        stroke-width: 0px;
      }

      .cls-2 {
        fill: #fff;
      }
    </style>
  </defs>
  <path class="cls-1" d="m131.31,73.67c-12.25,0-24.5.04-36.75-.04-1.58,0-1.9.46-1.81,1.9.13,2.1.05,4.22.02,6.33-.03,2.03-1.24,3.51-3.18,3.76-2.64.35-5.29.42-7.94.09-2.18-.27-3.31-1.56-3.31-3.74,0-2.29-.08-4.59.03-6.88.06-1.25-.38-1.54-1.51-1.45-1.02.09-2.05.04-3.08.01-1.66-.04-2.96-1.24-3.09-2.89-.13-1.75.03-3.49.35-5.22.06-.33.24-.83.48-.92,1.99-.73,1.78-2.32,1.6-3.9-.75-6.53-1.35-13.07-1.03-19.66.19-3.94,2.07-6.96,5.22-9.08,3.22-2.16,6.87-3.04,10.78-2.56,2.65.33,2.66.26,3.3-2.43,1.26-5.35,2.37-10.75,3.98-16.01.98-3.19,3.03-5.21,6.01-6.82C109.13-.01,117.59.64,125.84.19c7.58-.42,15.19-.09,22.77.62,3.78.35,7.55.89,10.97,2.43,3.97,1.79,7.15,4.56,8.18,9.16,1.17,5.26,2.46,10.5,3.62,15.77.23,1.06.69,1.31,1.7,1.29,3.24-.08,6.57-.41,9.58,1.16,4.6,2.4,8.26,6.19,8.07,12.38-.19,6.31-.68,12.58-1.29,18.85-.1.97.12,1.49.91,2.08,1.81,1.35,2.3,6.74.92,8.56-.83,1.09-1.96,1.23-3.22,1.2-1.26-.03-2.97-.42-3.66.23-.64.6-.21,2.36-.22,3.61-.01,1.45.04,2.9,0,4.34-.04,2.01-1.02,3.38-2.94,3.75-2.99.56-6.03.44-8.99-.09-1.53-.27-2.38-1.58-2.4-3.22-.03-2.29-.1-4.59,0-6.87.07-1.41-.34-1.8-1.78-1.8-12.25.06-24.5.04-36.75.04Zm-34.35-48.49c7.21-2.22,14.32-2.08,21.27-2.44,15.42-.78,30.89-.81,46.19,2.02,1.06.2,1.21,0,1.03-1.02-.6-3.55-1.48-7.04-2.45-10.5-.84-2.99-2.86-4.64-5.87-5.17-3.96-.71-7.96-1.12-11.97-1.49-13.35-1.22-26.6-.48-39.83,1.46-2.25.33-3.72,1.48-4.65,3.29-2.15,4.21-2.68,8.88-3.72,13.85Zm34.33,34.8h0c9.72,0,19.44,0,29.15,0q3.32,0,3.31,3.27c0,2.68,0,2.64,2.73,2.66,1.42.01,2.31-.25,2.01-1.98-.15-.88.03-1.81-.05-2.71-.1-1.07.33-1.29,1.34-1.28,4.04.05,8.09.06,12.13-.02,1.93-.04,2.55-.83,2.11-2.65-.33-1.36-1.48-1.73-2.78-1.72-3.86.01-7.73.01-11.59,0-.55,0-1.15.21-1.28-.76-.59-4.33-3.31-6.81-7.34-7.92-6.72-1.86-13.66-2.21-20.57-2.49-9.53-.39-19.07-.27-28.57.7-3.28.34-6.62.55-9.8,1.45-4.11,1.17-7.28,3.42-7.9,8.08-.14,1.04-.88.95-1.61.95-3.8,0-7.61-.03-11.41,0-1.63.02-2.69.99-2.63,2.35.08,1.65,1.15,2.05,2.61,2.04,3.92-.03,7.85.03,11.77-.02.94-.01,1.29.21,1.23,1.2-.09,1.38-.06,2.78-.02,4.16.01.48-.13,1.13.81,1.01,3.92-.48,3.98-.46,3.95-4.6-.01-1.41.34-1.79,1.79-1.78,10.2.07,20.4.04,30.6.04Zm46.89-10.96c3.55,0,6.69-3.01,6.53-6.55-.19-4.07-2.36-6.42-6.71-6.54-3.59-.1-6.58,2.97-6.56,6.53.02,3.68,2.98,6.56,6.74,6.56Zm-93.58-13.03c-4.43.01-6.58,2.33-6.66,6.38-.07,3.63,2.88,6.73,6.4,6.63,4.34-.12,6.55-2.21,6.67-6.51.1-3.74-2.71-6.51-6.41-6.51Z"/>
  <path class="cls-2" d="m213.27,160.11c0,7.42,0,14.85,0,22.27,0,.12,0,.24,0,.36.07,3.72.64,4.51,4.26,5.14,1.42.25,1.55,1.07,1.52,2.13-.04,1.17-.73,1.47-1.82,1.4-4.1-.25-8.2-.2-12.3.01-1.53.08-1.76-.75-2-1.91-.29-1.4.76-1.46,1.57-1.68,2.97-.8,3.82-1.84,3.82-4.91,0-8.87.03-17.74.01-26.62,0-3.43-.75-4.48-4.05-5.03-1.58-.26-1.48-1.13-1.37-2.15.12-1.18.78-1.44,2.01-1.37,3.31.18,6.64.17,9.95.13,1.03-.01,1.6.35,2.22,1.13,7.55,9.59,15.14,19.15,22.71,28.72.21.27.34.61.72.78-.29-7.83.51-15.53-.32-23.19-.25-2.3-1.43-3.56-4.33-4.04-1.51-.25-1.55-1-1.44-2.11.12-1.26.79-1.34,1.97-1.31,4.22.12,8.45.04,12.67-.03,1.08-.02,1.98-.01,2,1.36.02,1.24-.39,2.02-1.88,2.03-2.27.01-3.36,1.04-3.58,3.38-.43,4.57-.06,9.16-.09,13.74-.05,7.12,0,14.24.04,21.36,0,1.46-.28,1.99-2.03,2.28-3.02.51-4.57-.82-6.25-2.93-7.38-9.28-14.88-18.45-22.34-27.66-.4-.5-.85-.95-1.28-1.43-.13.05-.26.1-.39.15Z"/>
  <path class="cls-2" d="m137.77,167.98c3.06,1,5.71,1.85,7.99,3.62,4.08,3.15,4.72,9.86,1.37,13.82-3.58,4.23-8.29,5.8-13.54,5.93-6.7.17-13.4,0-20.1.08-1.46.02-1.67-.85-1.88-1.87-.25-1.21.53-1.58,1.5-1.79,2.99-.63,3.55-1.31,3.55-4.35,0-9.12,0-18.23,0-27.35,0-3.64-.47-4.21-4.03-4.89-1.14-.22-1.42-.97-1.39-1.97.03-1.07.57-1.4,1.63-1.38,6.28.06,12.56.02,18.83.1,3.31.04,6.52.59,9.54,2.14,4.95,2.54,5.77,8.72,4.11,12.78-.92,2.24-2.8,3.37-4.9,4.23-.76.31-1.56.52-2.69.89Zm-8.83,19.59c.78-.05,1.92-.08,3.05-.19,3.94-.37,6.61-2.76,7.14-6.34.69-4.7-.83-7.96-4.56-9.47-2.42-.98-4.99-1.15-7.59-1.08-.93.03-1,.48-1.05,1.24-.27,4.45-.26,8.91-.12,13.36.08,2.47.15,2.47,3.12,2.47Zm7.67-28.24c.2-6.38-4.39-8.22-9.32-7.63-.93.11-1.25.49-1.24,1.49.03,3.55-.08,7.1-.13,10.65q-.04,3.05,3.01,2.89c4.92-.26,7.67-2.91,7.67-7.41Z"/>
  <path class="cls-2" d="m61.98,165.24c0-2.22.02-6.02,0-9.82-.02-2.99-.85-3.92-3.84-4.24-1.64-.18-1.15-1.4-1.22-2.32-.09-1.05.54-1.37,1.49-1.27,5.84.59,11.68.38,17.52.13.96-.04,1.55.2,1.62,1.17.06.96.08,2.01-1.19,2.27-3.86.81-4.18,1.2-4.23,5.06-.08,5.61-.26,11.22-.25,16.82,0,2.93.09,5.88,1.3,8.65,1.75,4,4.81,5.91,9.13,6.08,3.02.12,5.8-.43,8.37-2.1,3.49-2.29,4.81-5.76,4.93-9.64.19-6.03.06-12.07.02-18.1,0-1.2-.23-2.4-.36-3.59-.22-2.03-1.64-2.87-3.4-3.08-1.52-.18-1.46-1.02-1.36-2.13.11-1.32.77-1.39,1.94-1.35,3.92.13,7.84.09,11.76.05,1.14-.01,2.01-.03,2.01,1.52,0,1.41-.49,1.89-1.92,1.86-2.08-.05-2.76.71-3.24,2.81-.27,1.19-.34,2.38-.33,3.58.05,6.64.15,13.29-.42,19.9-.52,6.08-3.11,11.02-9.3,13.27-6.99,2.54-13.98,2.59-20.8-.51-5.1-2.32-7.6-6.47-7.93-12.05-.23-3.8-.2-7.6-.32-12.98Z"/>
  <path class="cls-2" d="m187.75,191.39c-2.11.12-5.01-.18-7.9.16-.92.11-1.75-.07-1.6-1.32.11-.9-.51-2.06,1.28-2.18,2.9-.2,3.17-.74,2.35-3.52-.59-2-1.24-3.98-1.81-5.98-.25-.9-.61-1.35-1.69-1.32-3.86.08-7.73.04-11.59,0-.8,0-1.34.06-1.57,1.02-.51,2.2-1.15,4.37-1.71,6.57-.53,2.12.11,3.18,2.31,3.25,1.66.05,1.6.91,1.6,2.08,0,1.37-.87,1.37-1.82,1.36-3.62-.04-7.24-.16-10.86-.08-1.43.03-1.92-.51-2.09-1.78-.18-1.33.66-1.79,1.65-1.82,1.67-.06,2.37-1,2.96-2.38,4.92-11.43,8.47-23.37,13.01-34.94,1.14-2.92,1.09-2.94,4.25-2.95,4.23-.02,4.19,0,5.68,3.95,4.11,10.96,7.75,22.1,12.21,32.94.78,1.9,1.82,3.32,4.03,3.52,1.44.13,1.37,1.3,1.36,2.28-.02,1.02-.75,1.19-1.65,1.17-2.53-.04-5.07-.01-8.39-.01Zm-20.81-18.12h11.33c-1.86-5.49-3.69-10.88-5.63-16.6-1.96,5.72-3.81,11.1-5.7,16.6Z"/>
  <path class="cls-2" d="m51.11,155.78c.04.8.12,1.89.13,2.97,0,.73.35,1.75-.85,1.81-1.05.05-2.39.52-2.86-1.08-.39-1.32-.88-2.59-1.54-3.8-3.43-6.24-15.19-6.54-19.2,1.24-1.44,2.79-2.42,5.73-2.69,8.84-.47,5.49-.32,10.92,2.34,15.96,3.33,6.33,12.48,8.58,18,4.41,1.88-1.42,3.12-3.37,3.96-5.5.55-1.39,1.41-.97,2.29-.81.99.17,1.36.77,1.16,1.8-.4,2.12-.76,4.24-1.08,6.38-.11.72-.57,1.04-1.12,1.28-9.83,4.3-19.53,5.15-28.77-1.46-4.96-3.55-7.36-8.65-7.75-14.61-.4-6,.64-11.78,4.4-16.67,4.52-5.89,10.54-9.12,18.06-9.37,4.48-.15,8.83.44,13.14,1.72,1.87.55,2.55,1.51,2.41,3.35-.08,1.08-.01,2.17-.01,3.54Z"/>
  <path class="cls-2" d="m131.15,209.55c-39,0-78,0-117,0-.24,0-.48-.02-.72,0-.97.09-1.43-.27-1.46-1.32-.02-1.11.54-1.29,1.47-1.28,5.74.02,11.47.01,17.21.01,72.39,0,144.78,0,217.16,0,.36,0,.73.02,1.09,0,.97-.05,1.62.22,1.65,1.36.04,1.28-.77,1.25-1.67,1.25-10.08-.01-20.16-.01-30.25-.01-29.16,0-58.32,0-87.48,0Z"/>
  <path class="cls-2" d="m105.68,116.39c1.69,0,3.38-.04,5.07.02.89.03,1.29-.15,1.24-1.17-.09-2.11-.04-4.22-.04-6.34,0-1.11-.39-1.89-1.64-1.92-1.05-.02-1.33-.6-1.26-1.54.06-.91.63-1.02,1.37-1.01,3.14.02,6.28.03,9.41.01.7,0,1.16.16,1.21.97.05.81-.07,1.5-1.05,1.52-1.64.04-1.94,1.03-1.94,2.41.03,5.85.05,11.71,0,17.56-.01,1.56.46,2.62,2.1,2.77,1.32.12.86,1.03.87,1.72.02.93-.66.86-1.27.79-3.19-.34-6.39-.22-9.59-.16-.62.01-1.1-.07-1.1-.82,0-.62-.28-1.49.66-1.61,2.17-.27,2.26-1.76,2.23-3.42-.03-1.87-.01-3.74.03-5.61.02-.85-.09-1.27-1.16-1.23-3.49.14-6.99.17-10.49.16-.83,0-1.03.25-1.01,1.01.04,2.17-.03,4.35.03,6.52.03,1.29.51,2.38,1.99,2.57,1.13.15,1.33.84,1.19,1.8-.15,1.07-.98.96-1.67.86-3.07-.44-6.14-.29-9.22-.22-.87.02-1.35-.2-1.45-1.14-.1-.96.35-1.32,1.19-1.39,1.61-.13,2.09-1.13,2.09-2.59-.02-5.67-.03-11.35.01-17.02.01-1.63-.55-2.69-2.24-2.85-1.01-.1-1.34-.5-1.21-1.52.12-.93.54-1.13,1.41-1.11,3.14.05,6.28.01,9.41.03.61,0,1.38-.25,1.35.88-.02.86-.03,1.59-1.14,1.65-1.4.07-1.81.93-1.78,2.19.04,2.05.09,4.11.02,6.16-.03.92.28,1.12,1.12,1.09,1.75-.05,3.5-.02,5.25-.02Z"/>
  <path class="cls-2" d="m176.54,121.91c.04-4.16.58-8.2,0-12.27-.23-1.59-.91-2.48-2.39-2.6-1.18-.1-1.39-.64-1.33-1.63.06-1.13.85-.96,1.56-.96,2.47,0,4.95,0,7.42,0,.64,0,1.23,0,1.22.89,0,.67.08,1.52-.81,1.54-2.37.06-2.28,1.73-2.27,3.31.03,6.58.11,13.15.12,19.73,0,.69.52,1.9-.5,2-1.13.11-2.48.78-3.52-.51-3.88-4.83-7.8-9.62-11.71-14.43-1.18-1.44-2.36-2.88-3.81-4.64,0,1.25,0,2.23,0,3.2,0,3.56,0,7.12.02,10.68,0,1.79.48,3.25,2.64,3.33,1.13.04.92.85.97,1.55.08.93-.51.91-1.15.91-2.53,0-5.07-.06-7.6.06-.95.04-1.11-.47-1.32-1.09-.26-.78.22-1.17.86-1.29,1.84-.35,2.17-1.68,2.17-3.22-.03-5.67-.11-11.34-.14-17.01,0-1.5-.54-2.43-2.17-2.45-.84-.01-1.21-.46-1.14-1.27.07-.79.32-1.32,1.32-1.29,2.23.07,4.47.08,6.7,0,1.07-.04,1.45.65,1.96,1.31,3.73,4.86,7.45,9.72,11.2,14.55.46.59,1.09,1.05,1.71,1.64Z"/>
  <path class="cls-1" d="m62.65,232.72c0,4.61-.06,9.11.03,13.61.03,1.51-.28,2.13-1.97,2.07-3.28-.1-3.29,0-3.18-3.44.2-6.57-.15-13.14-.29-19.71-.03-1.57.38-2.03,2-2.08,2.2-.06,3.71.34,4.6,2.65.4,1.05,1.63,1.85,2.34,2.88,2.45,3.57,5.13,6.97,8.08,10.31,0-4.22,0-8.4,0-12.58,0-.54.04-1.09-.04-1.63-.18-1.24.25-1.63,1.55-1.61,3.45.07,3.5,0,3.53,3.52.06,6.75.05,13.51.11,20.26.01,1.09-.33,1.32-1.43,1.45-2.22.25-3.57-.5-4.9-2.33-3.32-4.56-6.92-8.91-10.44-13.39Z"/>
  <path class="cls-2" d="m137.31,131.99c-3.08,0-6.16-.02-9.23.01-.85,0-1.56-.01-1.64-1.13-.07-.96.2-1.36,1.25-1.49,1.45-.17,2.05-1.16,2.04-2.67-.05-5.67-.03-11.34-.02-17.02,0-1.56-.33-2.75-2.25-2.74-.82,0-1.11-.55-1.07-1.35.04-.79.34-1.18,1.22-1.18,6.28.03,12.55.03,18.83,0,1.04,0,1.38.48,1.41,1.41.04,1.21.08,2.41.17,3.61.14,1.86-.47,2.53-2.28,2.6-.82.03-.81-.6-.98-1.05-1.26-3.29-5.18-5.14-8.42-4.01-.63.22-.43.64-.43,1.01-.01,2.53.03,5.07,0,7.6-.01.87.29,1.19,1.15,1.15,1.02-.06,2.05,0,3.08-.05,1.13-.05,2.08-.56,2.16-1.73.1-1.35.94-1.05,1.75-1.13,1.19-.12,1.04.77,1.1,1.41.19,1.86.19,3.73-.03,5.6-.07.62.06,1.44-.99,1.34-.75-.07-1.64.39-1.84-1-.25-1.76-1.73-1.88-3.18-1.89-3.18-.02-3.19-.03-3.19,3.15,0,1.75,0,3.5.06,5.25.03.96.43,1.52,1.56,1.4,1.13-.13,2.31.05,3.43-.11,2.55-.38,4.19-1.94,5.03-4.32.37-1.04,1.01-.82,1.82-.7.95.15,1.21.64,1.11,1.48-.24,1.9-.48,3.81-.72,5.71-.12.92-.75.89-1.47.89-3.14-.03-6.27-.01-9.41-.01,0-.02,0-.03,0-.05Z"/>
  <path class="cls-1" d="m149.72,234.67c1.63,0,3.26.05,4.89-.02,1.06-.04,1.35.4,1.35,1.39-.03,7.39-5.56,12.73-13.05,12.68-5.62-.03-9.54-2.83-11.78-7.71-2.11-4.62-1.82-9.34,1.51-13.41,4.07-4.96,12.26-6.39,17.98-2.76.84.53,1.28,1.55,2.3,1.91.07.02.67.73.46,1.39-.4,1.22-1.6,1.05-2.42,1.53-.84.51-1.52,1.01-2.54-.03-3.23-3.3-8.44-2.55-11.09.04-2.48,2.43-3.21,7.65-.62,11.22,3.22,4.43,10.93,4.18,13.28-.64.5-1.02.63-1.49-.78-1.41-1.44.09-2.91-.08-4.34.05-1.51.14-1.94-.51-1.76-1.87.05-.36.05-.73,0-1.08-.14-1.07.42-1.38,1.37-1.37,1.75.02,3.5,0,5.25,0,0,.03,0,.05,0,.08Z"/>
  <path class="cls-2" d="m31.19,115.82c0-2.23-.03-4.47,0-6.7.02-1.29-.37-2.13-1.79-2.13-.83,0-1.52-.26-1.39-1.21.1-.8.48-1.38,1.55-1.36,3.26.07,6.51.03,9.77.02.73,0,1.32.02,1.3,1.01-.02.81-.12,1.5-1.1,1.52-1.17.02-1.82.52-1.81,1.73.03,4.94-.35,9.89,0,14.83.23,3.26,2.29,5.5,5.29,5.89,3.31.44,6.14-1.26,7.14-4.38.27-.84.39-1.76.41-2.65.12-4.4.18-8.8-.12-13.2-.11-1.57-1.19-1.8-2.27-2.1-.62-.17-1.23-.23-.99-1.1.2-.71.12-1.59,1.3-1.56,2.41.05,4.82.03,7.23,0,.83-.01,1.24.31,1.24,1.15,0,.73-.18,1.4-1.04,1.38-1.81-.05-1.99,1.01-1.97,2.47.06,4.16.05,8.33.05,12.49,0,5.77-3.49,9.73-9.25,10.42-3.98.48-7.8.22-10.91-2.79-2-1.93-2.53-4.42-2.64-7.03-.09-2.23-.02-4.46-.02-6.7Z"/>
  <path class="cls-1" d="m186.24,235.75c0,3.74-.04,7.48.02,11.21.02,1.13-.36,1.47-1.45,1.44-4.58-.14-3.74.67-3.87-3.77-.05-1.75-.08-3.5.02-5.24.05-.99-.14-1.37-1.23-1.35-2.89.07-5.79.07-8.68-.02-1.03-.03-1.18.36-1.17,1.23.05,2.47-.03,4.95.06,7.41.05,1.28-.24,1.78-1.66,1.76-3.52-.05-3.52.03-3.54-3.52-.04-6.69-.06-13.38-.16-20.07-.02-1.29.39-1.63,1.64-1.62,3.69.03,3.69-.02,3.67,3.6-.01,1.69.05,3.38-.02,5.06-.04,1.03.13,1.5,1.35,1.45,2.83-.12,5.66-.09,8.5-.06.92.01,1.24-.25,1.2-1.22-.09-2.41,0-4.82-.11-7.23-.05-1.12.14-1.6,1.42-1.6,3.98-.02,3.98-.07,3.98,3.86,0,2.89,0,5.79,0,8.68,0,0,0,0,0,0Z"/>
  <path class="cls-2" d="m22.03,132.07c-1.69,0-3.39-.1-5.06.04-1.02.09-1.1-.55-1.25-1.16-.18-.72.15-1.16.93-1.16,1.7,0,1.78-1,1.48-2.3q-.91-3.91-4.92-3.9c-.78,0-1.57-.05-2.35.02-1,.09-2.43-.53-2.9.28-.78,1.35-1.18,2.99-1.15,4.63.01.74.59,1.08,1.21,1.12,1.14.06,1.11.74,1.1,1.59-.02,1.21-.89.73-1.43.74-1.99.04-3.98,0-5.97.02-.85.01-1.52-.04-1.69-1.11-.16-1.04.53-1.32,1.23-1.39,1.38-.15,1.71-1.19,2.09-2.18,2.6-6.83,4.95-13.75,7.21-20.7.31-.95.16-2.46,1.96-2.17,1.81.29,3.89-.87,4.9,2.11,2.42,7.15,5.25,14.15,7.91,21.21.35.93.71,1.72,1.93,1.75,1.04.03,1.09.82,1.06,1.68-.03,1.13-.8.81-1.4.82-1.63.02-3.26,0-4.89,0,0,.02,0,.03,0,.05Zm-6.06-11.18c-1.2-3.54-2.37-7.02-3.65-10.8-1.27,3.85-2.39,7.27-3.55,10.8h7.21Z"/>
  <path class="cls-2" d="m239.48,118c-.15,2.55.31,5.17,1.71,7.58,2.72,4.7,9.19,4.81,12.01.18.34-.55.61-1.14.85-1.75.28-.7.77-.91,1.41-.67.58.22,1.34.34,1.21,1.29-.21,1.54-.36,3.1-.63,4.63-.1.58-.46,1.02-1.07,1.34-5.64,2.95-12.65,3.05-17.76-.92-3.13-2.42-4.64-5.71-4.7-9.64-.08-5.52,1.13-10.53,6.1-13.8,5.23-3.44,10.74-3,16.33-1,.64.23.9.71.93,1.39.07,1.44.19,2.89.29,4.33.04.69.04,1.38-.89,1.47-.83.08-1.64.17-1.94-.95-.65-2.42-2.14-4.14-4.59-4.82-4.25-1.17-7.92,1.51-8.89,6.32-.32,1.61-.36,3.22-.35,5.04Z"/>
  <path class="cls-2" d="m202.18,117.57c0,3.08,0,6.15,0,9.23,0,1.61.38,2.89,2.38,2.79.83-.04,1.2.36,1.15,1.21-.04.9-.41,1.22-1.35,1.21-3.5-.05-7-.07-10.5.01-.99.02-1.23-.41-1.39-1.19-.19-.96.45-1.2,1.14-1.22,2.06-.05,2.37-1.34,2.4-3.02.08-6.03.19-12.06.34-18.09.03-1.06-.05-1.59-1.37-1.55-3.1.08-4.49.91-5.39,3.91-.24.8-.56.94-1.21.83-.69-.11-1.52-.09-1.44-1.17,0-.12,0-.24,0-.36-.19-5.67-.19-5.64,5.45-5.63,5.85.01,11.7,0,17.55-.08,1.21-.02,1.79.26,1.81,1.52.02,1.39.03,2.78.19,4.15.16,1.35-.7,1.61-1.67,1.85-1.25.32-1.11-.64-1.34-1.37-.83-2.72-3.48-4.15-6.4-3.62-.94.17-.56.76-.57,1.19-.03,3.13-.01,6.27-.01,9.4h.22Z"/>
  <path class="cls-2" d="m76.35,117.01c.25,3.56-.06,7.12.3,10.67.12,1.21.57,1.87,1.89,1.87.82,0,1.69.08,1.56,1.39-.12,1.22-.92,1.04-1.69,1.04-3.38,0-6.76,0-10.14.01-.68,0-1.28.09-1.3-.95-.02-.86.07-1.48,1.05-1.49,2.01,0,2.27-1.28,2.3-2.9.09-5.97.19-11.95.37-17.92.04-1.35-.22-1.86-1.72-1.8-3.01.13-4.36.96-5.13,3.94-.23.91-.69.86-1.26.79-.68-.09-1.56-.06-1.54-1.11.04-1.69.12-3.38.22-5.06.05-.82.57-1.1,1.36-1.07,7.3.23,14.6.13,21.9.02,1.06-.02,1.39.45,1.37,1.41-.02,1.45-.12,2.91.03,4.34.15,1.44-.84,1.54-1.75,1.77-1.24.31-.97-.84-1.15-1.38-.94-2.81-3.19-4.13-6.15-3.63-.81.14-.54.55-.53.99,0,3.02,0,6.03,0,9.05Z"/>
  <path class="cls-1" d="m96.68,222.86c3.34.06,5.91,1.05,8.18,2.9.77.63.96,1.17.1,1.86-.42.34-.8.74-1.16,1.14-.77.84-1.41.97-2.42.14-1.67-1.36-3.6-2.16-5.85-1.28-.87.34-1.57.71-1.68,1.77-.12,1.11.42,1.85,1.26,2.42,1.16.78,2.51,1.22,3.83,1.47,2.72.5,4.61,2.21,6.38,4.06,2.12,2.22,1.06,7.51-1.77,9.52-4.26,3.02-9.58,2.7-13.46-.8-.21-.19-.52-.26-.77-.41-1.42-.86-1.45-1.25-.18-2.27.23-.19.52-.37.64-.63.92-1.79,2.04-1.42,3.28-.37,1.66,1.41,3.58,1.88,5.72,1.54,1.16-.18,2.03-.74,2.36-1.92.35-1.23-.23-2.05-1.2-2.76-.99-.73-2.14-1.06-3.27-1.45-1.42-.49-2.81-1.01-4.15-1.71-2.67-1.41-4.04-3.56-3.74-6.6.28-2.82,1.93-4.72,4.45-5.87,1.21-.55,2.49-.88,3.45-.75Z"/>
  <path class="cls-2" d="m222.55,132c-1.69,0-3.38,0-5.06,0-.66,0-1.18-.04-1.22-.92-.03-.79-.04-1.46.99-1.54,1.86-.15,2.31-1.33,2.3-3-.04-5.42-.03-10.85-.01-16.27,0-1.76-.2-3.27-2.48-3.4-.89-.05-.82-.85-.8-1.53.02-.72.39-.91,1.03-.91,3.44.01,6.87.01,10.31,0,.65,0,1.03.23,1.03.94,0,.67.09,1.46-.84,1.49-1.97.07-2.1,1.32-2.09,2.85.04,5.73.05,11.45,0,17.18-.02,1.56.44,2.64,2.07,2.79,1.22.11.81.9.86,1.55.06.92-.57.9-1.19.9-1.63,0-3.25,0-4.88,0,0-.05,0-.1,0-.14Z"/>
  <path class="cls-1" d="m206.92,238.12c0,2.96-.05,5.92.03,8.87.03,1.14-.35,1.42-1.45,1.41-3.81-.02-3.78.02-3.76-3.78.03-5.01-.06-10.02.03-15.03.03-1.43-.46-1.74-1.75-1.63-1.32.11-2.66-.04-3.98.04-1.04.06-1.36-.4-1.43-1.35-.26-3.34-.21-3.41,3.14-3.41,4.89,0,9.78.04,14.67-.03,1.32-.02,1.79.29,1.75,1.69-.08,3.08,0,3.08-3.05,3.08q-4.24,0-4.23,4.15c0,1.99,0,3.98,0,5.98h.03Z"/>
  <path class="cls-1" d="m41.86,235.79c0-3.67.04-7.34-.03-11.01-.02-1.16.25-1.57,1.49-1.57,3.81,0,3.81-.05,3.81,3.83,0,6.62-.02,13.24.02,19.86,0,1.14-.21,1.55-1.48,1.52-3.83-.1-3.82-.04-3.79-3.79.02-2.95,0-5.9,0-8.84,0,0-.02,0-.03,0Z"/>
  <path class="cls-1" d="m120.82,235.77c0,3.67-.04,7.35.02,11.02.02,1.14-.23,1.58-1.49,1.58-3.75,0-3.75.06-3.75-3.64,0-6.63.02-13.26-.05-19.88-.01-1.27.37-1.64,1.63-1.63,3.62.03,3.61-.02,3.59,3.52-.02,3.01,0,6.02,0,9.03.02,0,.04,0,.05,0Z"/>
  <path class="cls-1" d="m163.4,55.61c-10.06,0-19.95,0-29.85,0-10.92,0-21.84-.02-32.75-.05-.5,0-1.2.32-1.48-.23-.29-.58.2-1.14.54-1.62,1.13-1.6,2.69-2.51,4.61-2.89,4.3-.84,8.66-1.15,13.02-1.43,7.35-.47,14.71-.65,22.06-.29,6.11.3,12.23.63,18.26,1.72,2.65.48,4.71,1.72,5.59,4.78Z"/>
</svg>