<svg width="120" height="112" viewBox="0 0 120 112" fill="none" xmlns="http://www.w3.org/2000/svg">
<path fill-rule="evenodd" clip-rule="evenodd" d="M60 15.851L64.5903 10.7871C77.266 -3.19661 97.8175 -3.19661 110.493 10.7871C123.169 24.7708 123.169 47.4428 110.493 61.4265L69.1806 107.002C64.1103 112.596 55.8897 112.596 50.8194 107.002L9.5068 61.4265C-3.16894 47.4428 -3.16893 24.7708 9.50681 10.7871C22.1825 -3.19661 42.734 -3.19661 55.4097 10.7871L60 15.851ZM90 14.1615C87.5147 14.1615 85.5 16.2303 85.5 18.7823C85.5 21.3343 87.5147 23.403 90 23.403C94.1421 23.403 97.5 26.851 97.5 31.1043C97.5 33.6562 99.5147 35.725 102 35.725C104.485 35.725 106.5 33.6562 106.5 31.1043C106.5 21.7471 99.1127 14.1615 90 14.1615Z" fill="#208DEF"/>
</svg>
