<?xml version="1.0" encoding="UTF-8"?>
<svg id="Capa_1" data-name="Capa 1" xmlns="http://www.w3.org/2000/svg" viewBox="0 0 805.13 269.57">
  <defs>
    <style>
      .cls-1 {
        fill: #ec6a29;
      }

      .cls-2 {
        fill: #fff;
      }
    </style>
  </defs>
  <g>
    <path class="cls-2" d="M398.29,83.84c0-4.65,1.02-9.59-.2-13.89-.37-1.29-.76-2.57-1.19-3.83-.49-1.45-1.01-2.88-1.57-4.28-.43-1.06-.87-2.1-1.33-3.13,0,0-.01,0-.01-.01-.81-1.81-1.69-3.59-2.64-5.34-.48-.87-.97-1.74-1.47-2.6-.51-.86-1.04-1.71-1.58-2.55-1.46-2.25-3.03-4.44-4.73-6.57-1.1-1.38-2.25-2.67-3.46-3.88-1.32-1.33-2.69-2.56-4.11-3.71-1.07-.86-2.17-1.68-3.29-2.44-.56-.39-1.13-.76-1.7-1.13-.57-.36-1.15-.72-1.73-1.06-.44-.26-.88-.51-1.32-.76-1.33-.74-2.69-1.44-4.07-2.1-.62-.3-1.24-.58-1.86-.86t-.01-.01c-1.33-.59-2.67-1.15-4.03-1.69h-.01c-1.36-.53-2.73-1.04-4.12-1.54-.69-.25-1.39-.5-2.09-.73-.71-.24-1.41-.48-2.12-.71-.91-.3-1.81-.63-2.73-.93-.31-.12-.61-.22-.92-.31-.39-.13-.79-.26-1.2-.36-.47-.14-.95-.27-1.44-.37-.4-.08-.8-.15-1.21-.21-.91-.13-1.81-.24-2.72-.34-1.35-.15-2.7-.25-4.04-.32-3.08-.16-6.14-.13-9.19.07-1.13.07-2.27.17-3.4.29h0c-1.13.12-2.26.26-3.39.43-.57.07-1.15.16-1.72.26-.66.11-1.32.23-1.97.35-.48.09-.96.18-1.45.28-3.37.7-6.73,1.57-10.09,2.59-8.77,2.68-16.41,7.31-23.21,13.05-1.82,1.53-3.52,3.13-5.12,4.79-.54.55-1.06,1.11-1.56,1.68-.29.32-.58.65-.86.98t0,.01c-.5.59-1,1.19-1.48,1.79-1.43,1.81-2.75,3.69-3.96,5.62-1.8,2.91-3.35,5.96-4.64,9.15-.28.71-.55,1.42-.81,2.14-.26.72-.5,1.45-.74,2.19-.59,1.84-1.09,3.71-1.5,5.63-.24,1.15-.46,2.31-.65,3.49-.13.79-.24,1.58-.34,2.38-.05.4-.1.8-.14,1.2-.15,1.37-.28,2.74-.39,4.11-.61,7.74-.43,15.47,2.12,22.78.8,2.34,1.86,4.63,3.2,6.87,3.81,6.34,6.86,12.99,12.28,18.51.36.37.73.73,1.11,1.09,1.92,1.79,3.93,3.58,5.97,5.27,1.02.84,2.04,1.65,3.06,2.44,1.03.79,2.05,1.54,3.07,2.25,4.98,3.48,10.3,6.1,15.88,7.95,1.35.45,2.72.85,4.09,1.21,6.21,1.62,12.7,2.35,19.39,2.29,1.3-.01,2.59-.05,3.87-.13.42-.02.85-.05,1.27-.08.57-.04,1.13-.09,1.69-.14.75-.07,1.49-.15,2.23-.24h.01c1.48-.18,2.94-.4,4.39-.67.48-.09.97-.18,1.45-.28.66-.14,1.32-.28,1.97-.43.49-.11.98-.23,1.46-.36,2.19-.55,4.35-1.22,6.47-1.99.71-.26,1.41-.52,2.11-.8.46-.18.93-.38,1.39-.57.61-.26,1.23-.53,1.84-.81h.01c1.33-.62,2.65-1.27,3.96-1.96,1.31-.7,2.6-1.44,3.89-2.22.53-.33,1.06-.66,1.59-1,1.59-1.02,3.16-2.12,4.71-3.28,9.74-7.32,16.83-16.43,21.74-27.41,3.59-8.02,3.98-16.51,3.31-25.1h0ZM383.19,80.13c.05.01.1.02.15.03.05.02.1.03.15.05.07.02.13.04.19.07.06.03.12.06.18.09.09.05.18.11.26.17.02.01.04.03.06.05.09.07.17.15.24.23.05.05.1.1.14.16.08.11.16.23.23.36.07.12.13.26.17.4.05.14.09.28.11.43h0c.03.15.04.31.04.47,0,.11,0,.22-.02.33-.17,1.58-1.28,2.57-2.71,2.77-2.12.3-4.3.26-6.05.35-2.82-.29-5.4.52-7.64-.89-2.34-1.47-3.09-3.32.02-4.63,4.71-1.98,9.65-1.26,14.48-.44ZM352.55,58.52c.16-.36.42-.71.65-1.05.04-.05.08-.1.1-.15.14-.19.26-.37.35-.55.31-.63.65-1.22,1.02-1.79.37-.57.77-1.11,1.19-1.63.21-.26.43-.51.65-.75.22-.25.45-.49.68-.72.2-.21.41-.4.62-.6.16-.15.33-.3.5-.44.22-.2.45-.39.69-.58.26-.22.53-.43.81-.63.29-.22.59-.43.9-.64.38-.26.77-.51,1.16-.76,1.13-.69,2.31-1.33,3.52-1.92.23-.11.48-.22.75-.31.14-.04.28-.09.43-.12.08-.02.16-.03.25-.05.12-.02.23-.04.35-.05.12-.01.24-.02.36-.02.34,0,.68.05,1.01.17.13.05.26.11.38.18.14.08.28.18.42.3.12.12.24.25.36.4.07.1.14.21.21.32.1.16.18.34.26.53.04.09.07.18.09.28-.46.75-.72,1.55-1.27,2.03-3.92,3.4-7.86,6.79-11.91,10.04-.13.11-.27.2-.42.3-.03.03-.06.05-.09.06t-.01,0c-.18.11-.36.2-.56.27-.02.01-.04.02-.06.02-.08.04-.16.06-.24.08-.01.01-.02,0-.02,0-.08.03-.15.05-.23.06-.05.02-.09.03-.14.03-.08.02-.16.03-.23.03-.11.02-.22.03-.33.02h-.07c-.05,0-.09,0-.13-.01-.07,0-.14-.01-.21-.02-.14-.02-.28-.05-.41-.09-.26-.08-.52-.21-.76-.38-.14-.1-.26-.2-.35-.31-.03-.03-.06-.06-.08-.09-.09-.1-.15-.19-.2-.29-.04-.08-.07-.15-.09-.23-.08-.32-.02-.63.1-.94ZM328.78,41.42h0c0-3.32-.06-5.5.02-7.66.01-.12.02-.24.03-.35.03-.29.1-.54.19-.77.03-.07.06-.14.09-.2.05-.1.12-.2.19-.3.06-.09.14-.18.22-.26.12-.12.26-.22.41-.31.15-.08.31-.16.48-.22.09-.03.18-.06.27-.08.18-.05.38-.08.58-.11.22-.02.45-.03.68-.03.38,0,.76.03,1.11.09.18.03.35.08.51.14.16.05.31.12.45.2.14.08.27.17.38.28.06.06.12.12.17.18.03.04.06.08.09.13.03.03.05.07.06.1.02.04.04.07.06.12.03.06.05.12.07.18.03.08.06.17.07.27.02.07.03.14.04.22.01.08.02.17.02.26.14,5.4.96,10.85-.82,16.16-.03.09-.06.18-.1.27-.03.09-.07.17-.1.25-.05.15-.11.28-.17.4-.06.13-.12.25-.19.36-.04.07-.08.13-.13.19-.04.06-.08.11-.13.17-.1.12-.2.22-.31.27-.03.03-.07.05-.1.07-.05.04-.1.06-.16.07-.03.01-.05.02-.08.02-.13.04-.26.04-.41,0-.05,0-.08-.02-.12-.03-.5-.13-1.08-.6-1.78-1.41-2.6-3.01-1.3-6.53-1.59-8.68ZM294.36,47.92c.04-.18.09-.37.16-.56.09-.25.22-.46.37-.62.15-.17.32-.29.52-.38.1-.05.2-.09.31-.13.31-.11.66-.16,1.01-.2.53-.06,1.15.03,1.83.25.14.04.28.09.42.14.1.04.2.08.3.12.1.04.2.08.31.13.15.06.31.14.47.22.55.27,1.12.6,1.69.97.13.08.26.17.39.26.9.61,1.81,1.33,2.65,2.11.2.17.39.35.57.53.14.14.29.28.43.43.19.2.38.41.56.61.36.39.68.78.98,1.17.23.3.43.6.62.9.19.29.36.59.5.87.35.72.57,1.41.59,2.02h0v.14s0,.08,0,.13c-.01.18-.02.36-.04.53-.01.09-.02.17-.04.26-.02.12-.04.24-.07.35-.03.12-.06.23-.1.34-.05.13-.11.26-.18.38-.06.11-.13.21-.22.3-.13.13-.29.24-.46.29-.33.11-.74.08-1.26-.13h-.01c-.16-.07-.33-.16-.51-.26-.18-.1-.38-.23-.59-.38-3.5-2.5-6.79-5.3-10.13-8.03-.09-.07-.17-.15-.25-.23-.08-.08-.15-.16-.22-.24-.54-.64-.76-1.43-.6-2.29ZM283.6,86.17c-2.62-.13-5.25-.21-7.87-.43-.41-.04-.88-.13-1.25-.32-.13-.06-.25-.14-.35-.24-.09-.07-.16-.15-.21-.25-.03-.04-.06-.08-.07-.13-.08-.17-.12-.36-.12-.59,0-.07.01-.14.03-.21.04-.14.1-.28.18-.41.25-.42.66-.82,1-1.16,1.12-1.12,2.45-1.91,4.1-1.91,4.03-.02,8.05-.03,12.07,0,.13,0,.25.01.37.02.12.01.24.02.35.04.07.01.15.02.21.04.17.03.33.07.47.13.05.02.11.04.16.06.02,0,.04.01.05.02.08.03.16.07.23.12.19.11.36.25.51.41.08.08.14.17.2.27.07.11.13.23.18.36.04.09.07.18.09.27.04.14.07.3.09.47.02.15.03.32.03.49v.05c0,.13,0,.25-.02.36-.02.23-.06.44-.12.63-.08.29-.21.54-.36.76-.08.1-.16.19-.26.27-.1.09-.2.16-.31.23-.07.05-.15.09-.23.13-.14.07-.3.13-.46.17-.37.11-.8.15-1.26.16-2.48.04-4.95,0-7.43,0v.19ZM308.87,113.87c-.04.07-.07.14-.11.21-.08.16-.18.3-.28.45-.22.31-.45.61-.69.91-.47.6-.95,1.18-1.46,1.73-.25.28-.51.55-.77.81-.52.54-1.06,1.05-1.62,1.55-1.31,1.16-2.71,2.21-4.2,3.15-.21.14-.43.27-.65.4-.52.32-1.05.63-1.59.92-.66.35-1.33.68-2.02,1-.35.17-.7.33-1.06.48-.09.04-.18.07-.27.1-.07.02-.15.05-.22.07-.07.02-.15.03-.23.05-.07.01-.14.02-.22.03-.17.01-.35.01-.52-.01-.1-.02-.19-.04-.28-.07-.09-.04-.18-.08-.26-.13-.08-.06-.16-.12-.23-.19-.09-.1-.18-.21-.26-.35-.05-.08-.09-.16-.12-.24-.07-.16-.12-.31-.16-.46-.01-.01-.01-.02-.01-.03-.01-.07-.02-.13-.03-.2-.03-.15-.03-.31,0-.46,0-.04,0-.07,0-.11,0-.04,0-.07.01-.11v-.03c.02-.09.04-.19.07-.28.03-.11.06-.23.11-.34.04-.11.09-.22.14-.32.11-.22.24-.43.38-.63.14-.21.29-.41.45-.6,3.2-3.88,7.6-6.25,11.58-9.15.25-.18.48-.39.73-.58.09-.08.18-.15.27-.21.16-.12.33-.23.51-.32.08-.05.16-.09.25-.12.07-.04.15-.07.23-.09.01-.01.03-.01.04-.01.09-.04.19-.06.3-.07.03-.01.06-.01.1-.02.12-.02.25-.03.38-.03h.02c.06,0,.12.01.18.01h.01c.63.18,1.07.48,1.37.84t0,.01c.48.62.51,1.42.24,2.18-.04.09-.07.18-.11.26ZM335.16,138.9c-.01.14-.02.29-.02.44-.01.17-.02.35-.03.52,0,.16-.02.33-.04.49-.01.11-.02.21-.04.31-.02.12-.04.23-.07.35-.02.1-.05.19-.08.27-.02.08-.05.16-.09.23-.03.07-.07.14-.11.21-.04.07-.08.13-.13.19-.06.08-.13.15-.21.22-.1.09-.21.17-.33.22-.08.05-.17.09-.27.12-.27.09-.59.14-.98.14-.29,0-.55-.03-.78-.09-.04,0-.08-.01-.12-.03-.07-.02-.13-.04-.19-.07-.13-.05-.25-.11-.36-.18-.25-.15-.45-.34-.62-.57-.05-.06-.09-.13-.14-.2-.06-.1-.12-.21-.17-.32-.09-.19-.16-.39-.22-.59-.06-.2-.11-.41-.14-.61-.02-.15-.04-.31-.06-.47-.02-.16-.03-.31-.04-.46-.06-1.23-.11-2.47-.14-3.71-.03-.97-.05-1.94-.06-2.9-.03-2.42,0-4.84.08-7.26.01-.29.02-.61.05-.93,0-.11,0-.22.03-.33.01-.12.02-.24.05-.36.01-.12.03-.24.06-.35.04-.2.09-.4.16-.6.05-.11.09-.22.14-.32.06-.13.13-.25.21-.37.07-.11.15-.21.24-.3.08-.08.16-.15.25-.21.18-.14.39-.24.63-.32.12-.04.25-.07.38-.09.14-.02.28-.04.44-.04.42-.02.75.07,1.03.22.08.04.16.1.24.16t.01.01c.07.06.14.13.2.2.13.15.25.31.34.49.08.14.15.29.21.45.08.18.15.37.21.56.2.58.37,1.18.63,1.66.04.08.08.17.12.25.07.17.13.35.17.52.02.1.04.19.06.29.02.09.04.18.05.27.02.09.04.18.05.27.04.17.07.34.11.49-1.06,4.09-.48,8.14-.71,12.13ZM346.68,109.33c-.34.2-.69.4-1.04.58-.95.49-1.94.93-2.95,1.3t-.01,0c-.4.15-.8.28-1.2.41-1.2.38-2.44.67-3.7.9-.43.08-.86.14-1.29.19-.32.04-.63.08-.95.11-.62.06-1.25.1-1.88.12-.01.01-.03.01-.04,0-1.02.03-2.04.01-3.06-.06-.72-.04-1.45-.12-2.17-.22-.91-.13-1.81-.3-2.69-.51-1.35-.31-2.66-.73-3.93-1.24-.48-.2-.96-.41-1.43-.63-.35-.17-.69-.35-1.02-.52-.34-.18-.67-.36-.99-.56-.97-.57-1.89-1.22-2.76-1.93-.7-.57-1.35-1.15-1.97-1.74-.21-.2-.41-.4-.61-.6-2.19-2.21-3.9-4.57-5.17-7.06-.23-.45-.44-.9-.64-1.35-.81-1.84-1.39-3.73-1.75-5.67-.07-.38-.14-.77-.19-1.16-.02-.09-.03-.19-.04-.29-.05-.34-.09-.7-.12-1.05v-.07s-.01-.01-.01-.02c-.03-.24-.04-.48-.05-.73-.02-.18-.03-.36-.03-.54h-.01s0-.03.01-.03c-.01,0-.01-.01-.01-.02,0,0,0-.01.01-.02-.01-.01-.01-.02,0-.04-.01-.02-.01-.05-.01-.07-.02-.31-.03-.62-.02-.93v-.2s-.01-.06-.01-.1h0c0-.53.02-1.05.05-1.57,0-.07,0-.14.01-.21s.01-.15.02-.22c0-.13.01-.26.02-.38.02-.24.05-.48.08-.72,0-.01,0-.02,0-.03.02-.23.04-.45.07-.68.03-.24.06-.48.1-.72.08-.57.18-1.14.3-1.71-.01-.01-.01-.02,0-.02.03-.16.06-.33.11-.49-.01-.03,0-.06.02-.09.02-.09.05-.19.07-.29.09-.41.19-.83.3-1.24,2.96-11.24,10.52-19.69,25.6-19.14,1.84.06,3.67,0,5.51,0,.09.48.19.97.28,1.45v.02c-8.13-.68-12.85,4.93-17.99,9.37-3,2.59-4.51,6.65-4.79,10.77-.15,2.31-.18,4.62.05,6.89.04.39.09.77.14,1.16.07.56.17,1.11.28,1.67.32,1.62.81,3.22,1.51,4.81.29.66.62,1.25,1,1.79.25.36.51.69.78,1,.7.79,1.5,1.46,2.36,2.06.51.34,1.04.67,1.58.98h.01c.27.16.54.31.81.45,0,0,.01,0,.01.01.28.15.56.3.84.45.6.31,1.22.59,1.84.82.05.02.11.04.16.05.1.04.21.08.32.12.41.15.82.28,1.24.38.39.11.78.2,1.17.27.14.03.27.06.41.07.28.05.56.1.85.13.18.02.35.04.53.06.03.01.06.01.08.01h.02s.04.02.07.01t.02,0s0,.01.02,0c.15.01.29.02.43.03.08,0,.16,0,.23,0,.03,0,.05,0,.07.01.06,0,.11.01.17.01.03.01.04.01.05,0,.01.01.01,0,.01,0t.02,0s0,.01.02,0c.19.01.38.01.57.01h.07c.17,0,.33,0,.49-.01.05,0,.1-.01.15-.01.01,0,.01.01.01.01,0,0,.02-.01.02-.01.16,0,.32-.01.49-.02.08,0,.16-.01.25-.02.12-.01.23-.01.35-.02.06-.01.11-.01.17-.02.07,0,.14-.01.21-.02.17-.02.35-.04.52-.07.08-.01.16-.03.24-.04.03,0,.06,0,.1-.01.02,0,.04,0,.06-.01.17-.03.35-.06.52-.1.05,0,.1-.01.15-.03.14-.04.29-.07.44-.1.21-.04.42-.09.63-.15h0c.08-.02.16-.04.23-.07.19-.04.39-.1.58-.17.04-.02.08-.03.12-.04.1-.03.2-.06.3-.1.05-.01.11-.03.16-.06.15-.04.3-.1.45-.16h0s.05-.02.07-.03c.17-.07.34-.14.51-.22.05-.01.1-.03.15-.06.03,0,.06-.01.08-.03.03-.01.06-.02.08-.03h0c.29-.14.58-.28.87-.42.27-.14.54-.29.8-.45.01,0,.02,0,.03,0h0s.04-.03.06-.04c.2-.11.39-.23.57-.36.06-.03.12-.07.18-.11h0s.07-.06.11-.08c.23-.15.45-.31.66-.48,1.01-.76,1.93-1.65,2.72-2.64.29-.39.58-.78.85-1.19.15-.23.29-.46.43-.7h0c.14-.25.27-.49.39-.74.11-.22.22-.45.31-.68.02-.03.03-.06.03-.09.02-.03.03-.06.04-.09.01-.02.03-.06.04-.08.06-.14.12-.29.17-.44.02-.06.04-.12.06-.18.03-.06.05-.13.07-.19.07-.2.13-.41.19-.61v-.02s.04-.1.05-.16c.05-.15.09-.3.12-.46.02-.07.04-.15.05-.23.03-.09.05-.17.06-.26.01-.07.02-.15.04-.23.02-.08.03-.16.04-.25.01-.05.02-.11.03-.17.02-.11.04-.22.05-.33.01-.09.02-.17.04-.25.02-.08.03-.17.04-.26.03-.3.06-.6.07-.9,0,0-.01,0,0-.01t0-.03c.01-.09.01-.17.01-.25v-.11c.01-.22.01-.43.01-.65.01-.12,0-.23-.01-.35.01-.1,0-.21-.01-.31,0-.03,0-.06-.01-.1t0-.02s.01-.02,0-.03c.01-.01.01-.02,0-.05,0-.03-.01-.06-.01-.1-.02-.3-.05-.6-.09-.89-.35-2.54-1.42-4.79-3.33-6.65-.07-.08-.15-.16-.24-.23-.08-.09-.17-.17-.26-.25-2.23-1.96-8.8-.07-12.04,2.65-2.03,1.7-1.84,3.86-1.71,5.97.22,3.62-1.74,5.28-4.93,5.38-1.2.04-1.96-.26-2.45-.75-.38-.38-.59-.88-.72-1.44-.23-.97-.2-2.13-.29-3.16-.76-8.55,4.04-14.46,10.87-17.48,3.57-1.57,7.76-2.28,11.76-1.36.01,0,.02.01.02.01,1.02.24,2.03.59,3.01,1.05h.01c.98.48,1.94,1.08,2.86,1.8.22.17.43.34.64.52.01,0,.02.02.02.02.42.36.82.73,1.21,1.12.98.99,1.85,2.07,2.57,3.24.13.2.25.41.36.62.29.52.56,1.06.79,1.61.22.5.4,1.02.56,1.56.16.54.29,1.09.4,1.66.05.28.09.57.13.86,1,7.92-.7,15.36-5.44,21.77-.28.38-.56.74-.86,1.09t0,.01c-.29.35-.6.69-.94,1.01-.32.33-.66.65-1.01.95-.34.31-.7.6-1.07.88-.21.16-.42.32-.64.47-.25.18-.5.35-.75.51-.29.19-.59.38-.89.55ZM368.49,125.9c-.18-.03-.37-.07-.55-.11t-.02,0c-.09-.03-.18-.06-.27-.09-.09-.04-.19-.07-.29-.11h0c-.09-.05-.19-.09-.28-.13,0,0-.01,0-.01,0-.09-.05-.19-.1-.28-.14h-.01c-.09-.06-.19-.11-.28-.16-1.15-.64-2.21-1.36-3.22-2.14,0,0-.01.01-.01,0-.38-.3-.74-.61-1.1-.92-.36-.31-.72-.62-1.06-.95-.23-.22-.46-.45-.68-.67-1.79-1.8-3.38-3.8-4.89-5.88-.51-.71-1.37-1.49-.82-2.48.09-.17.2-.31.32-.42.06-.05.12-.1.18-.14s.12-.08.19-.11c.06-.03.13-.05.19-.07.07-.02.13-.04.19-.05.3-.05.58-.03.8-.01.15.02.27.04.34.03h0c.49-.06.96-.06,1.39-.03.19.02.37.04.55.07.16.02.32.05.47.09.52.12,1,.3,1.44.52.57.29,1.09.64,1.57,1.03.36.29.71.6,1.04.91.17.16.34.31.5.47.06.06.11.11.17.16.11.11.22.21.33.31.24.22.48.45.72.68.29.28.58.57.87.87.86.88,1.7,1.78,2.58,2.65.23.23.46.46.7.68t.01.01c.23.23.48.45.72.67.12.1.23.21.33.31.14.15.27.29.38.44.11.14.21.29.3.44.05.08.09.16.13.24.05.09.09.19.12.28.05.12.08.24.1.37.02.07.03.14.04.21.09.71-.14,1.44-.7,2.18-.07.09-.14.18-.21.25-.13.12-.26.24-.39.34-.07.04-.14.09-.21.13-.07.04-.14.07-.21.11-.07.02-.14.05-.21.07-.07.03-.14.05-.22.06-.23.04-.47.05-.71.03-.01,0-.02,0-.03,0Z"/>
    <path class="cls-2" d="M398.28,83.83c0-4.65,1.02-9.58-.2-13.89-.36-1.29-.76-2.56-1.18-3.82-.49-1.45-1.01-2.88-1.57-4.28-.43-1.06-.87-2.1-1.33-3.13,0,0-.01,0-.01-.01-.81-1.81-1.69-3.59-2.64-5.34-.48-.87-.97-1.74-1.47-2.6-.51-.86-1.04-1.71-1.58-2.55-1.46-2.25-3.03-4.44-4.73-6.57-1.1-1.38-2.25-2.67-3.46-3.88-1.32-1.33-2.69-2.56-4.11-3.71-1.07-.86-2.17-1.68-3.29-2.44-.56-.39-1.13-.76-1.7-1.13-.57-.36-1.15-.72-1.73-1.06-.44-.26-.88-.51-1.32-.76-1.33-.74-2.69-1.44-4.07-2.1-.62-.3-1.24-.58-1.86-.86t-.01-.01c-1.32-.59-2.67-1.16-4.03-1.69h-.01c-1.36-.54-2.73-1.05-4.12-1.54-.69-.25-1.39-.5-2.09-.73-.71-.24-1.41-.48-2.12-.71-.91-.3-1.81-.63-2.73-.93-.31-.12-.61-.22-.92-.31-.39-.13-.79-.26-1.2-.36-.47-.14-.95-.27-1.44-.37-.4-.09-.8-.16-1.22-.22-.9-.13-1.81-.24-2.71-.33-1.35-.15-2.7-.25-4.04-.32-3.08-.16-6.14-.13-9.19.07-1.13.07-2.27.17-3.4.29h0c-1.13.12-2.26.26-3.39.43-.57.07-1.15.16-1.72.26-.66.11-1.32.23-1.97.35-.48.09-.96.18-1.45.28-3.37.68-6.74,1.55-10.1,2.58-8.77,2.68-16.41,7.31-23.21,13.05-1.81,1.53-3.52,3.13-5.11,4.8-.54.55-1.06,1.11-1.56,1.68-.29.32-.58.65-.86.98t0,.01c-.5.59-1,1.19-1.48,1.79-1.44,1.81-2.76,3.69-3.96,5.62-1.81,2.91-3.36,5.96-4.64,9.15-.28.71-.55,1.42-.81,2.14-.26.72-.5,1.45-.74,2.19-.59,1.84-1.09,3.71-1.5,5.63-.25,1.15-.47,2.31-.65,3.49-.13.79-.24,1.58-.34,2.38-.06.4-.11.79-.15,1.19-.15,1.37-.28,2.75-.38,4.12-.61,7.74-.43,15.47,2.12,22.78.8,2.34,1.86,4.63,3.2,6.87,3.81,6.34,6.86,12.99,12.28,18.51.36.37.73.73,1.11,1.09,1.92,1.79,3.93,3.58,5.97,5.27,1.02.84,2.04,1.65,3.06,2.44,1.03.79,2.05,1.54,3.07,2.25,4.98,3.48,10.3,6.1,15.88,7.95,1.35.45,2.72.85,4.09,1.21,6.21,1.61,12.7,2.34,19.38,2.28,1.31-.01,2.6-.05,3.88-.12.42-.02.85-.05,1.27-.08.57-.04,1.13-.09,1.69-.14.75-.07,1.49-.15,2.23-.24h.01c1.48-.18,2.94-.41,4.39-.67.48-.09.97-.18,1.45-.28.66-.14,1.32-.28,1.97-.43.49-.11.98-.23,1.46-.36,2.19-.56,4.35-1.23,6.47-1.99.71-.26,1.41-.52,2.11-.8.46-.18.93-.38,1.39-.57.61-.26,1.23-.53,1.84-.81h.01c1.33-.62,2.65-1.27,3.96-1.96,1.31-.7,2.6-1.44,3.89-2.22.53-.33,1.06-.66,1.59-1,1.59-1.03,3.16-2.13,4.7-3.29,9.73-7.32,16.82-16.43,21.74-27.41,3.6-8.02,3.98-16.51,3.31-25.1h-.01ZM352.55,58.52c.15-.36.4-.71.65-1.05.04-.05.08-.1.1-.15.13-.19.25-.38.34-.56.31-.62.65-1.21,1.03-1.78.37-.57.77-1.11,1.19-1.63.21-.26.42-.51.65-.75.21-.25.44-.49.68-.72.2-.21.41-.4.62-.6.16-.15.33-.3.5-.44.22-.2.45-.39.69-.58.26-.22.53-.43.81-.63.29-.22.59-.43.9-.64.38-.26.77-.51,1.16-.76,1.13-.71,2.3-1.34,3.51-1.93.23-.12.49-.22.76-.3.14-.04.28-.09.43-.12.08-.02.16-.03.25-.05.12-.02.23-.04.35-.05.12-.01.24-.02.36-.02.34,0,.68.05,1.01.17.13.05.26.11.38.18.14.08.28.18.42.3.12.12.24.25.36.4.07.1.14.21.21.32.1.16.18.34.26.53.04.09.07.18.09.28-.46.75-.72,1.55-1.27,2.03-3.92,3.4-7.86,6.79-11.91,10.04-.13.11-.27.2-.42.3-.03.03-.06.05-.09.06t-.01,0c-.18.11-.36.2-.56.27-.02.01-.04.02-.06.02-.08.04-.16.06-.24.08-.01.01-.02,0-.02,0-.08.03-.15.05-.23.06-.05.02-.09.03-.14.03-.08.02-.16.03-.23.03-.11.02-.22.03-.33.02h-.07c-.05,0-.09,0-.13-.01-.07,0-.14-.01-.21-.02-.14-.02-.28-.05-.41-.09-.26-.08-.52-.21-.76-.38-.14-.1-.26-.2-.35-.31-.03-.03-.06-.06-.08-.09-.09-.1-.15-.19-.2-.29-.04-.08-.07-.15-.09-.23-.08-.32-.02-.63.1-.94ZM295.43,50.68c-.09-.07-.17-.15-.25-.23-.08-.08-.15-.16-.22-.24-.54-.64-.76-1.43-.6-2.29.04-.18.09-.37.16-.56.09-.25.22-.46.37-.62.15-.17.32-.29.52-.38.1-.05.2-.09.31-.13.31-.11.66-.16,1.01-.2.53-.06,1.15.03,1.83.25.14.04.28.09.42.14.1.04.2.08.3.12.1.04.2.08.31.13.15.06.31.14.47.22.55.27,1.12.6,1.69.97.13.08.26.17.39.26.9.61,1.81,1.33,2.65,2.11.2.17.39.35.57.53.14.13.29.27.43.43.19.2.38.41.56.61.36.39.68.78.98,1.17.23.3.43.6.62.9.19.29.36.59.5.87.37.72.58,1.41.6,2.02h.01s0,.09-.01.14c.01.04,0,.08,0,.13-.01.18-.02.36-.04.53,0,.09-.01.18-.04.26-.02.12-.04.24-.07.35-.03.12-.06.23-.1.34-.05.13-.11.26-.18.38-.06.11-.13.21-.22.3-.13.13-.29.24-.46.29-.33.11-.74.08-1.26-.13h-.01c-.16-.07-.33-.16-.51-.26-.18-.1-.38-.23-.59-.38-3.5-2.5-6.79-5.3-10.13-8.03ZM328.78,41.42h0c0-3.32-.06-5.5.02-7.66.01-.12.02-.24.03-.35.03-.29.1-.54.19-.77.03-.07.06-.14.09-.2.05-.1.12-.2.19-.3.06-.09.14-.18.22-.26.12-.12.26-.22.41-.31.15-.08.31-.16.48-.22.09-.03.18-.06.27-.08.18-.05.38-.08.58-.11.22-.03.44-.04.68-.04.38,0,.76.03,1.11.1.18.03.35.08.51.14.16.05.31.12.45.2.14.08.27.17.38.28.06.06.12.12.17.18.03.04.06.08.09.13.03.03.05.07.06.1.02.04.04.07.06.12.03.06.05.12.07.18.03.08.06.17.07.27.02.07.03.14.04.22.01.08.02.17.02.26.14,5.4.96,10.85-.82,16.16-.03.09-.06.18-.1.27-.03.09-.07.17-.1.25-.05.15-.11.28-.17.4-.06.13-.12.25-.19.36-.04.07-.08.13-.13.19-.04.06-.08.11-.13.17-.1.12-.2.22-.31.27-.03.03-.07.05-.1.07-.05.04-.1.06-.16.07-.03.01-.05.02-.08.02-.13.04-.26.04-.41,0-.05,0-.08-.02-.12-.03-.5-.13-1.08-.6-1.78-1.41-2.6-3.01-1.3-6.53-1.59-8.68ZM283.6,86v.19c-2.63-.13-5.26-.2-7.87-.43-.41-.04-.87-.13-1.25-.34-.13-.06-.25-.14-.35-.24-.09-.07-.16-.15-.21-.25-.03-.04-.06-.08-.07-.13-.08-.17-.12-.36-.12-.59,0-.07.01-.14.03-.21.04-.14.1-.28.18-.41.25-.42.66-.82,1-1.16,1.12-1.12,2.45-1.91,4.1-1.91,4.03-.02,8.05-.03,12.07,0,.13,0,.25.01.37.02.12.01.24.02.35.04.07.01.15.02.21.04.17.03.33.07.47.13.05.02.11.04.16.06.02,0,.04.01.05.02.08.03.16.07.23.12.19.11.36.25.51.41.08.08.14.17.2.27.07.11.13.23.18.36.04.09.07.18.09.27.04.14.07.3.09.47.02.15.03.32.03.49v.05c0,.13,0,.25-.02.36-.02.23-.06.44-.12.63-.08.29-.21.54-.36.76-.08.1-.16.19-.26.27-.09.09-.2.17-.31.23-.07.06-.15.1-.23.13-.14.07-.3.13-.46.17-.37.12-.8.17-1.26.18-2.47.03-4.95,0-7.43,0ZM308.98,113.61c-.04.09-.07.18-.11.26-.03.07-.06.14-.11.21-.08.16-.18.3-.28.45-.22.31-.45.61-.69.91-.47.6-.95,1.18-1.46,1.73-.25.28-.51.55-.77.81-.52.54-1.06,1.05-1.62,1.55-1.31,1.16-2.71,2.21-4.2,3.15-.21.14-.43.27-.65.4-.52.32-1.05.63-1.59.92-.66.35-1.33.68-2.02,1-.35.17-.7.33-1.06.48-.09.04-.18.07-.27.1-.07.02-.15.05-.22.07-.07.02-.15.03-.23.05-.07.01-.14.02-.22.03-.17.01-.35.01-.52-.01-.1-.02-.19-.04-.28-.07-.09-.04-.18-.08-.26-.13-.08-.06-.16-.12-.23-.19-.09-.1-.18-.21-.26-.35-.05-.08-.09-.16-.12-.24-.07-.16-.12-.31-.16-.46-.01-.01-.01-.02-.01-.03-.01-.07-.03-.13-.03-.2-.03-.15-.03-.31,0-.46,0-.04,0-.07,0-.11,0-.04,0-.07.01-.11v-.03c.01-.09.04-.19.07-.28.02-.11.06-.23.11-.34.04-.11.08-.21.14-.32.11-.22.24-.43.38-.63.14-.21.29-.41.45-.6,3.2-3.88,7.6-6.25,11.58-9.15.25-.18.48-.39.73-.58.09-.08.18-.15.27-.21.16-.12.33-.23.51-.32.08-.05.16-.09.25-.12.07-.04.15-.07.23-.09.01-.01.03-.01.04-.01.1-.03.19-.06.3-.07.03-.01.06-.01.1-.02.12,0,.24-.03.38-.03h.22c.63.19,1.08.49,1.36.85t0,.01c.49.62.52,1.42.24,2.18ZM335.16,138.9c-.01.14-.02.29-.02.44-.01.17-.02.35-.03.52,0,.16-.02.33-.04.49-.01.11-.02.21-.04.31-.02.12-.04.23-.07.35-.02.1-.05.19-.08.27-.02.08-.05.16-.09.23-.03.07-.07.14-.11.21-.04.07-.08.13-.13.19-.06.08-.13.15-.21.22-.1.09-.21.17-.33.22-.08.05-.17.09-.27.12-.27.09-.59.14-.98.14-.29,0-.55-.03-.78-.09-.04,0-.08-.01-.12-.03-.06-.01-.13-.03-.19-.07-.13-.05-.25-.11-.36-.18-.25-.15-.45-.34-.62-.57-.05-.06-.09-.13-.14-.2-.06-.1-.12-.21-.17-.32-.09-.19-.16-.39-.22-.59-.06-.2-.11-.41-.14-.61-.02-.15-.04-.31-.06-.47-.02-.16-.03-.31-.04-.46-.06-1.23-.11-2.47-.14-3.71-.03-.97-.05-1.94-.06-2.9-.03-2.42,0-4.84.08-7.26.01-.29.02-.61.05-.93,0-.11,0-.22.03-.33.01-.12.02-.24.05-.36.01-.12.03-.24.06-.35.04-.2.09-.4.16-.6.05-.11.09-.22.14-.32.06-.13.13-.25.21-.37.07-.11.15-.21.24-.3.08-.08.16-.15.25-.21.18-.14.39-.25.63-.32.12-.05.24-.08.38-.09.13-.03.28-.05.44-.05.42-.02.75.07,1.03.23.08.04.16.1.24.16t.01.01c.08.06.15.13.2.2.13.15.25.31.34.49.08.14.15.29.21.45.08.18.15.37.21.56.2.58.37,1.18.63,1.66.04.08.08.17.12.25.07.17.13.35.17.52.02.1.04.19.06.29.02.09.04.18.05.27.02.09.04.18.05.27.04.17.07.34.11.49-1.06,4.09-.48,8.14-.71,12.13ZM352.85,103.88c-.27.37-.56.73-.87,1.07t0,.01c-.29.35-.6.69-.94,1.01-.32.33-.66.65-1.01.95-.34.31-.7.6-1.07.88-.21.16-.42.32-.64.47-.25.18-.5.35-.75.51-.29.19-.59.38-.89.55-.34.2-.69.4-1.04.58-.95.49-1.94.93-2.95,1.3t-.01,0c-.4.15-.8.28-1.2.41-1.21.39-2.44.69-3.7.9-.43.08-.86.14-1.29.19-.32.04-.63.08-.95.11-.62.06-1.25.1-1.88.12-.01.01-.03.01-.04,0-1.02.03-2.04.01-3.06-.06-.72-.04-1.45-.12-2.17-.22-.91-.13-1.81-.3-2.69-.51-1.35-.31-2.66-.73-3.93-1.24-.48-.2-.96-.41-1.43-.63-.35-.17-.69-.35-1.02-.52-.34-.18-.67-.36-.99-.56-.97-.56-1.89-1.2-2.75-1.91-.7-.57-1.36-1.16-1.98-1.76-.21-.2-.41-.4-.61-.6-2.19-2.21-3.9-4.57-5.17-7.06-.23-.45-.44-.9-.64-1.35-.81-1.84-1.39-3.73-1.75-5.67-.07-.38-.14-.77-.19-1.16-.02-.09-.03-.19-.04-.29-.05-.34-.09-.7-.12-1.05v-.07s-.01-.01-.01-.02c-.03-.24-.04-.48-.05-.73-.02-.18-.03-.36-.03-.54h-.01s0-.03.01-.03c-.01,0-.01-.01-.01-.02,0,0,0-.01.01-.02-.01-.01-.01-.02,0-.04-.01-.02-.01-.05-.01-.07-.02-.31-.03-.62-.02-.93v-.2s-.01-.06-.01-.1h0c0-.53.02-1.05.05-1.57,0-.07,0-.14.01-.21s.01-.15.02-.22c0-.13.01-.26.02-.38.02-.24.05-.48.08-.72,0-.01,0-.02,0-.03.02-.23.04-.45.07-.68.03-.24.06-.48.1-.72.08-.57.18-1.14.3-1.71-.01-.01-.01-.02,0-.02.03-.16.06-.33.11-.49-.01-.03,0-.06.02-.09.02-.09.05-.19.07-.29.09-.41.19-.83.3-1.24,2.96-11.24,10.52-19.69,25.6-19.14,1.84.06,3.67,0,5.51,0h.01c.09.49.19.98.28,1.47v.02c-8.13-.69-12.85,4.93-17.99,9.37-3,2.59-4.51,6.64-4.79,10.77-.15,2.32-.18,4.61.04,6.87.04.39.09.77.14,1.16.07.56.17,1.11.28,1.67.32,1.62.81,3.22,1.51,4.81.29.66.62,1.25,1,1.79.25.36.51.69.78,1,.7.79,1.5,1.46,2.36,2.06.51.34,1.04.67,1.58.98h.01c.27.16.54.31.81.45,0,0,.01,0,.01.01.28.15.56.3.84.45.6.31,1.22.59,1.84.82.05.02.11.04.16.05.1.04.21.08.32.12.41.15.82.28,1.24.38.39.11.78.2,1.17.27.14.03.27.06.41.07.28.05.56.1.85.13.18.02.35.04.53.06.03.01.06.01.08.01h.02s.04.02.07.01t.02,0s0,.01.02,0c.15.01.29.02.43.03.08,0,.16,0,.23,0,.03,0,.05,0,.07.01.06,0,.11.01.17.01.03.01.04.01.05,0,.01.01.01,0,.01,0t.02,0s0,.01.02,0c.19.01.38.01.57.01h.07c.17,0,.33,0,.49-.01.05,0,.1-.01.15-.01.01,0,.01.01.01.01,0,0,.02-.01.02-.01.16,0,.32-.01.49-.02.08,0,.16-.01.25-.02.12-.01.23-.01.35-.02.06-.01.11-.01.17-.02.07,0,.14-.01.21-.02.17-.02.35-.04.52-.07.08-.01.16-.03.24-.04.03,0,.06,0,.1-.01.02,0,.04,0,.06-.01.17-.03.35-.06.52-.1.05,0,.1-.01.15-.03.14-.04.29-.07.44-.1.21-.04.42-.09.63-.15h0c.08-.02.16-.04.23-.07.19-.04.39-.1.58-.17.04-.02.08-.03.12-.04.1-.03.2-.06.3-.1.05-.01.11-.03.16-.06.15-.04.3-.1.45-.16h0s.05-.02.07-.03c.17-.07.34-.14.51-.22.05-.01.1-.03.15-.06.03,0,.06-.01.08-.03.03-.01.06-.02.08-.03h0c.29-.14.58-.28.87-.42.27-.14.54-.29.8-.45.01,0,.02,0,.03,0h0s.04-.03.06-.04c.2-.11.39-.23.57-.36.06-.03.12-.07.18-.11h0s.07-.06.11-.08c.23-.15.45-.31.66-.48,1.01-.76,1.93-1.65,2.72-2.64.29-.39.58-.78.85-1.19.15-.23.29-.46.43-.7h0c.14-.25.27-.49.39-.74.11-.22.22-.45.31-.68.02-.03.03-.06.03-.09.02-.03.03-.06.04-.09.01-.02.03-.06.04-.08.06-.14.12-.29.17-.44.02-.06.04-.12.06-.18.03-.06.05-.13.07-.19.07-.2.13-.41.19-.61v-.02s.04-.1.05-.16c.05-.15.09-.3.12-.46.02-.07.04-.15.05-.23.03-.09.05-.17.06-.26.01-.07.02-.15.04-.23.02-.08.03-.16.04-.25.01-.05.02-.11.03-.17.02-.11.04-.22.05-.33.01-.09.02-.17.04-.25.02-.08.03-.17.04-.26.03-.3.06-.6.07-.9,0,0-.01,0,0-.01t0-.03c.01-.09.01-.17.01-.25v-.11c.01-.22.01-.43.01-.65.01-.12,0-.23-.01-.35.01-.1,0-.21-.01-.31,0-.03,0-.06-.01-.1t0-.02s.01-.02,0-.03c.01-.01.01-.02,0-.05,0-.03-.01-.06-.01-.1-.02-.3-.05-.6-.09-.89-.35-2.54-1.42-4.79-3.33-6.65-.07-.08-.15-.16-.24-.23-.08-.08-.17-.16-.25-.23-2.22-1.96-8.8-.07-12.04,2.65-2.03,1.7-1.84,3.86-1.71,5.97.22,3.61-1.75,5.28-4.93,5.38-1.2.04-1.97-.26-2.46-.77-.38-.38-.59-.88-.72-1.44-.23-.97-.2-2.13-.29-3.16-.76-8.55,4.04-14.46,10.87-17.48,3.57-1.57,7.76-2.28,11.76-1.36.01,0,.02.01.02.01,1.02.24,2.03.59,3.01,1.05h.01c.98.48,1.94,1.08,2.86,1.8.22.17.43.34.64.52.01,0,.02.02.02.02.42.36.82.73,1.21,1.12.98.99,1.85,2.07,2.57,3.24.13.2.25.41.36.62.29.52.56,1.06.79,1.61.22.5.4,1.02.56,1.56.16.54.29,1.09.4,1.66.06.29.1.58.14.88,1,7.93-.7,15.37-5.44,21.77ZM370.68,124.91c-.07.09-.14.18-.21.25-.13.12-.26.24-.39.34-.07.04-.14.09-.21.13-.07.04-.14.07-.21.11-.07.02-.14.05-.21.07-.07.03-.14.05-.22.06-.23.04-.47.05-.71.03-.01,0-.02,0-.03,0-.18-.03-.37-.07-.55-.11t-.02,0c-.09-.03-.18-.06-.27-.09-.09-.04-.19-.07-.29-.11h0c-.09-.05-.19-.09-.28-.13,0,0-.01,0-.01,0-.09-.05-.19-.1-.28-.14h-.01c-.09-.06-.19-.11-.28-.16-1.15-.64-2.21-1.36-3.22-2.14,0,0-.01.01-.01,0-.38-.3-.74-.61-1.1-.92-.36-.31-.72-.62-1.06-.95-.23-.22-.46-.45-.68-.67-1.79-1.8-3.38-3.8-4.89-5.88-.51-.71-1.37-1.49-.82-2.48.09-.17.2-.31.32-.42.06-.06.12-.11.18-.14.06-.05.13-.09.19-.11.06-.03.13-.05.19-.07.06-.03.13-.04.19-.05.29-.06.58-.03.8-.01.15.01.27.03.34.02h0c.5-.06.96-.06,1.39-.02.19.01.37.03.55.07.17.02.32.05.47.09.52.12,1,.3,1.44.52.57.28,1.09.64,1.57,1.03.36.29.71.6,1.04.91.17.16.34.31.5.47.06.06.11.11.17.16.11.1.22.2.33.3.24.23.48.45.72.69.29.28.58.57.87.87.86.88,1.7,1.78,2.58,2.65.23.23.46.46.7.68t.01.01c.24.23.48.45.72.66.12.11.23.21.33.32.14.15.27.29.38.44.11.14.21.29.3.44.05.08.09.16.13.24.05.09.09.19.12.28.05.12.08.24.1.37.02.07.03.14.04.21.09.71-.14,1.44-.7,2.18ZM385.09,82.97c-.17,1.58-1.28,2.57-2.71,2.77-2.12.3-4.3.26-6.05.35-2.82-.29-5.4.52-7.64-.89-2.34-1.47-3.09-3.32.02-4.63,4.71-1.98,9.65-1.26,14.48-.44.05.01.1.02.15.03.05.02.1.03.15.05.07.02.13.04.19.07.06.03.12.06.18.09.09.05.18.11.26.17.02.01.04.03.06.05.09.07.17.15.24.23.05.05.1.1.14.16.08.11.16.23.23.36.07.12.13.26.17.4.05.14.09.28.11.43h0c.03.15.04.31.04.47,0,.11,0,.22-.02.33Z"/>
    <g>
      <path class="cls-2" d="M169.32,217.53v-22.76c0-11.14-.36-11.48-11.47-10.9-.46.02-.93.02-1.39.08-2.55.32-3.84,1.35-3.34,4.31.72,4.28.49,8.65.15,12.97-1.07,13.28-1.28,26.58.17,39.82.31,2.88-2.42,6.82.98,8.42,2.69,1.27,6.38.36,9.62.59,4.14.29,5.4-1.73,5.34-5.59-.15-8.98-.05-17.96-.03-26.95h-.03Z"/>
      <path class="cls-2" d="M223.57,184.93c-8.69-3.6-17.55-2.28-25.62,1.5-7.67,3.59-12.76,10.15-16.01,18.19-7.17,17.76,1.57,35.38,15.85,43.74,4.18,2.45,9.26,2.25,14,3.02,9.89,1.61,17.76-3.14,24.45-8.92,7.23-6.24,10.21-15.14,9.48-23.6.02-17.67-6.51-27.45-22.17-33.93h.02ZM207.16,234.88c-3.1-.59-5.51-3.24-7.71-5.58-6.28-6.66-4.4-21.59,3.08-26.54,5.17-3.42,10.81-4.42,16.32-2.22,7.42,2.96,11.05,8.88,10.07,16.5.76,13.13-9.51,20.18-21.76,17.84h0Z"/>
      <path class="cls-2" d="M491.55,183.19c-22.25-1.55-35.87,15.41-36.08,32.44-.27,22.7,13.32,36.58,36.09,35.95,15.01-.41,30.47-13.89,29.99-34.22.22-21.88-13.87-33.06-30-34.18h0ZM489.66,234.96c-10.99.64-17.21-5.48-17.56-15.28-.44-12.08,5.99-21.08,16.11-19.96,9.54-1.04,16.71,7.99,16.74,16,.07,14.37-5.39,18.66-15.29,19.24Z"/>
      <path class="cls-2" d="M649.69,244.33c-3.96-4.13-8-8.18-11.24-12.95-1.78-2.63-1.64-4.66,1.2-6.11,5.4-2.75,8.27-7.42,9.15-13.07,1.97-12.53-2.19-22.31-12.64-25.83-6.57-2.22-13.76-1.84-20.74-1.58h-9.3c-6.72,0-8.1,1.36-8.11,8.21-.04,15.04-.02,30.08-.03,45.12,0,11.78.67,12.35,12.34,11.94,3.12-.11,4.58-1.12,4.44-4.36-.15-3.4-.18-6.83.01-10.23.13-2.35-1.22-6.26,1.08-6.69,2.66-.5,4.33,3.27,6.24,5.39.39.43.33,1.26.72,1.69,3.91,4.3,6.2,10.03,11.87,12.8,4.43,2.16,8.79.96,13.22.43,1.34-.16,3.03.26,3.65-1.37.64-1.66-.91-2.41-1.85-3.39h-.01ZM632.85,209.88c-.88,3.29-3.32,4.68-6.63,4.7h-4.17c-1.99-.52-5.6,1.47-6.73-1.49-1.41-3.7-.87-7.92-.14-11.9.08-.46.85-1.15,1.29-1.14,4.62.07,9.22-1.5,13.81,1.5,3.65,2.39,3.43,5.11,2.57,8.33Z"/>
      <path class="cls-2" d="M124.69,218.98c-2.51-3.61-1.37-5.97.78-8.6,5.95-7.25,11.96-14.45,17.96-21.65,1.73-2.08,2.01-3.8-1.32-3.9-4.96-.14-9.92,0-14.88.12-1.38.04-2.9.39-3.78,1.56-5.4,7.2-10.73,14.46-16.58,22.38,0-5.73-.01-10.53,0-15.33.02-6.52-3.23-9.74-9.76-9.66-6.13.08-6.97.88-6.98,7.04-.03,16.44-.01,32.87,0,49.31,0,9.29.05,9.32,9.07,9.83.77.04,1.56.07,2.31.26,3.97.96,5.44-.8,5.38-4.62-.08-5.58-.03-11.16.01-16.75,0-1.19-.39-2.77.97-3.35,1.72-.74,1.82,1.2,2.52,2.05,1.96,2.38,3.89,4.72,5.46,7.45,2.27,3.96,5.51,7.37,8.32,10.95,3.69,4.71,9.97,4.26,15.61,3.92,1.92-.12,4.49.83,5.46-1.44.94-2.19-.81-3.99-2.14-5.76-6.03-8.01-12.65-15.55-18.39-23.81h-.02Z"/>
      <path class="cls-2" d="M350.11,224.67c-6.48-7.37-6.98-9.21-1.25-16.68.66-.86,1.13-1.88,1.85-2.68,2.9-3.21,4.75-7.29,8.31-9.94,3.03-2.25,5.24-6.07,4.79-8.93-.49-3.18-5.03-1.2-7.76-1.67-.75-.13-1.56.05-2.32-.03-3.71-.38-6.71.58-9.63,3.22-5.14,4.67-8.47,10.65-12.63,16.01-.57.73-.88,1.76-2.03,1.56-1.36-.23-1.58-1.41-1.61-2.5-.09-2.95-.09-5.89-.09-8.84-.02-10.39-.34-10.58-10.71-10.39-3.8.07-5.26,1.52-5.2,5.29.14,9.15.04,18.31.05,27.47,0,7.76-.04,15.52.01,23.28.06,9.67-1.43,10.38,9.5,10.31,5.89-.04,6.3-.1,6.35-6.06.05-5.43.02-10.86.08-16.29.01-1.09.17-2.27,1.54-2.53,1.13-.22,1.54.64,2.03,1.49,4.19,7.39,9.62,13.84,15.28,20.12,1.52,1.69,3.27,2.96,5.56,3.03,4.5.12,9,.14,13.5.07,2.14-.03,3.48-.81,1.7-3.12-5.73-7.43-11.12-15.16-17.31-22.19h-.01Z"/>
      <path class="cls-2" d="M584.91,209.43v-20.5c0-1.93-.07-3.83-2.67-4.11-2.77-.29-5.54-.65-8.31-.93-2.4-.25-3.89.8-4.22,3.24-.26,1.99-.6,3.99-.62,5.99-.06,10.09.05,20.19-.08,30.28-.04,3.19.21,6.78-2.45,9.13-3.7,3.26-8.05,4.8-12.87,2.46-4.37-2.12-6.11-5.8-6.06-10.61.11-10.4.07-20.81.03-31.21-.04-10.06,1.14-9.06-9.23-9.37-4.58-.14-5.85,1.54-5.77,5.93.23,13.35.07,26.71.1,40.06,0,1.54-.13,3.25.47,4.59,8.74,19.62,27.8,21.71,42.44,11.25,6.25-4.47,9.68-11.56,9.31-19.9-.25-5.42-.05-10.87-.05-16.3h-.02Z"/>
      <path class="cls-2" d="M705.66,226.14c-3.43-8.76-11.62-12.39-19.34-15.9-2.52-1.14-4.99-1.83-6.84-4-1.32-1.55-2.99-2.98-1.77-5.27,1.31-2.44,3.5-3.46,6.23-3.1,2.68.35,4.94,1.69,7.05,3.32,2.5,1.93,5.37,2.03,7.79.44,3.09-2.03,5.16-8.61,3.46-10.76-4.17-5.29-10.52-6.39-16.02-8.1-2.89.41-5.18.84-7.49,1.04-7.29.62-15.6,6.2-17.08,12.39-1.78,7.43-2.02,14.88,5.27,20.03,2.89,2.04,5.95,3.9,9.11,5.48,3.58,1.79,7.37,3.16,11.07,4.74,2.46,1.05,2.72,3.27,2.56,5.46-.11,1.47-.21,3.62-2.09,3.74-4.49.28-9.17,1.86-13.26-1.8-2.32-2.08-5.98-3.56-8.34-2.55-2.8,1.2-5.59,3.97-6.4,7.53-.79,3.51,1.61,5.87,4.1,7.19,10.47,5.54,21.32,8.43,32.67,2.35,6.02-3.23,11.66-16.23,9.31-22.23h.01Z"/>
      <path class="cls-2" d="M290.6,214.85c-5.37-2.37-10.46-5.37-15.8-7.84-3.12-1.44-3.5-3.82-2.71-6.52.84-2.89,3.44-2.72,5.8-2.5,2.89.28,5.1,2.18,7.61,3.37,4.65,2.2,6.9,1.29,8.62-3.42.26-.72.28-1.7.78-2.14,4.14-3.65.73-6.41-1.75-7.64-4.43-2.21-8.7-5.85-13.67-4.28-2.06,0-3.47-.1-4.86.02-8.08.7-14.68,4.3-17.11,12.15-2.14,6.91-3.3,14.43,3.84,20.04,2.34,1.84,4.81,3.39,7.43,4.72,4.13,2.1,8.33,4.08,12.52,6.07,2.35,1.11,3.76,2.64,3.08,5.48-.65,2.76-2.44,3.39-5.07,3.75-5.6.76-9.89-2.22-14.29-4.61-4.1-2.22-5.75-2.11-7.86,2.03-.63,1.23-1.14,2.54-1.89,3.7-1.61,2.49-1.36,4.51.87,6.57,2.12,1.97,4.78,2.7,7.21,3.99,9.9,5.22,19.62,5.61,29.05-.66,6.64-4.41,9.44-10.93,8.27-18.88-.92-6.2-4.07-10.76-10.06-13.4h0Z"/>
      <path class="cls-2" d="M446.17,184.78c-6.66-.07-13.33-.02-19.99-.03h-16.27c-9.82,0-10.61.95-9.46,10.67.41,3.45,2.21,4.89,5.6,4.67,2.78-.18,5.57-.2,8.35-.37,3.43-.21,4.86,1.47,4.61,4.76-.23,3.08-1.11,6.24-.69,9.22,1.28,9.12.54,18.25.69,27.38.15,9.16.03,9.16,9.38,8.94h.46c5.6-.2,7.56-1.99,6.85-7.4-1.37-10.36-.58-20.73-.74-31.09-.17-11.5-.05-11.5,11.44-11.79,5.22-.13,6.22-1.23,6.23-6.9.02-5.84-1.65-8-6.44-8.05h-.02Z"/>
    </g>
    <g>
      <path class="cls-2" d="M89.14,48.99c12.87-.16,25.74-.75,38.61-1,8.32-.16,10.26-1.45,9.88-9.91-.1-2.17-.03-4.34,0-6.52.14-9.07-.88-10.37-9.87-10.39-22.19-.06-44.38.12-66.57.11-2.85,0-5.33.6-7.55,2.33-.95,1.9-.67,3.96-.67,5.95,0,37.57,0,75.13.02,112.7h0c1.27,3.69,3.91,5.09,7.75,5.12,7.28.05,14.56.55,21.83.53,15.67-.03,31.33-.24,47-.41,3.3-.04,6.36-1,6.6-4.81.39-6.11,1.9-12.17.22-18.41-.79-2.95-1.81-3.94-4.87-3.91-14.43.13-28.86-.09-43.29.07-3.48.04-5.09-.66-4.79-4.5.3-3.85.16-7.76-.06-11.63-.19-3.3.81-4.75,4.4-4.69,9.62.16,19.24.05,28.86-.06,2.46-.03,4.94-.3,7.38-.68,2.78-.44,4.31-1.96,4.23-5.07-.13-4.96.08-9.92.04-14.89-.04-5.13-1.87-6.89-6.93-6.9-11.02,0-22.04-.12-33.05.05-3.66.06-5.04-1.25-4.87-4.87.19-4.18.22-8.39-.03-12.56-.26-4.29,1.56-5.63,5.72-5.69v.04Z"/>
      <path class="cls-2" d="M189,54.02c9.58-6.9,20.71-8.24,32.1-4.64,5.53,1.75,10.05,5.24,14.05,9.46,2.5,2.63,6,3.25,8.62,1.02,4.82-4.1,9.03-8.91,13.54-13.37,2.15-2.13,2.23-4.36.16-6.38-3.42-3.35-6.62-6.93-10.63-9.67-7.6-5.21-15.65-9.05-24.78-11.11-11.36-2.56-22.61-2.04-33.29,1.43-12.14,3.95-22.82,10.97-30.9,21.28-6.62,8.44-11.38,17.83-12.66,28.51-.92,7.69-1.6,15.33-.49,23.34,1.34,9.61,3.83,18.67,8.9,26.53,12.59,19.52,30.81,29.72,54.21,30.02,11.46.68,21.99-2.23,31.69-7.91,5.45-3.19,11.14-6.16,15.62-10.84,2.31-2.42,2.63-4.71.48-7.31-3.62-4.36-7.23-8.72-10.84-13.09-1.99-2.41-4.34-2.59-6.87-.99-3.44,2.17-6.84,4.39-10.22,6.65-9.44,6.3-20.05,6.64-29.9,2.99-12.85-4.76-20.49-15.45-22.55-28.82-2.23-14.49,1.19-28.04,13.75-37.09h.01Z"/>
    </g>
    <g>
      <path class="cls-2" d="M751.61,133.33c-.7-3.06-2.05-3.84-5-3.97-4.52-.2-8.98-.85-13.22-2.96-8.44-4.21-14.33-10.86-19.4-18.57-3.41-5.18-3.68-5.25,1.75-7.84,6.74-3.21,12.57-7.54,16.29-14.04,6.37-11.12,7.32-22.94,3.77-35.22-2.13-7.36-5.5-14.25-11.22-19.14-9.14-7.82-20.5-10.79-32.32-11.14-14.42-.42-28.87-.21-43.3-.25-7.2-.02-9.6,2.32-9.24,9.45.76,15.35.29,30.71.36,46.07.1,21.54-.04,43.08-.03,64.62,0,5.13,1.28,6.58,6.35,6.79,5.54.23,11.1-.04,16.63.2,4.46.19,6.08-1.77,6.03-6.07-.14-10.55-.1-21.11-.05-31.66.01-2.18-.98-5.12,2.15-5.9,2.9-.72,5.85-.4,7.85,2.45,2.28,3.24,4.45,6.59,7,9.61,6.18,7.29,11.54,15.25,18.64,21.8,8.33,7.7,17.96,12.2,29.13,13.57.02.05.06.11.13.21.09.11.25.19.4.21,4.17.66,8.35.99,12.54.06,1.56-.55,3.55-.76,3.97-2.66,1.13-5.14,2.01-10.27.78-15.63h0ZM698.48,80.32c-1.47.61-2.82,1.11-4.4,1.11-7.29,0-14.58-.09-21.86.08-2.68.06-3.49-.78-3.34-3.44.23-4.17.06-8.37.06-12.56s.07-8.69-.04-13.02c-.05-2.14.66-3.13,2.9-3.12,8.2.07,16.4-.13,24.59.14,4.89.16,10.17,5,11.08,10.28,1.36,7.89,1.2,16.28-8.98,20.54h-.01Z"/>
      <path class="cls-2" d="M609.62,20.52c-5.09-.4-10.26-.5-15.35-.15-6.31.43-7.57,2.16-7.56,8.52.02,22.04.09,44.09,0,66.13-.02,4.24.23,8.46-1.63,12.67-5.47,12.44-15.29,16.07-27.45,12.64-6.3-1.77-11.86-10.91-11.88-18.88-.07-24.06-.26-48.13-.02-72.19.07-6.82-1.99-8.94-9.24-8.8-5.07.1-10.18.57-15.28.63-3.93.04-5.53,1.95-5.52,5.78.06,13.66.02,27.32.02,40.98h.08c0,11.49.12,22.98-.04,34.46-.12,8.28,1.82,15.9,5.91,23.1,5.83,10.25,14.54,17.48,25.45,20.89,13.1,4.09,26.33,4.09,39.72-1.26,18.37-7.33,28.96-23.73,29.49-39.94.84-25.59.21-51.22.15-76.84-.01-5.3-1.65-7.36-6.84-7.76v.02Z"/>
      <path class="cls-2" d="M495.86,21.38c-3.5-1.97-6.7-.16-10-.18-23.75-.12-47.49-.05-71.24-.03-2.63,0-5.28-.06-7.89.17-3.08.27-4.62,1.91-4.5,5.25.18,5.11,0,10.24.03,15.36.01,4.14,3.02,6.99,7.15,7,7.56.02,15.12.25,22.68.13,4.19-.07,5.7,1.54,5.64,5.77-.19,14.27-.07,28.55-.07,42.83h.02c0,14.43.08,28.86-.05,43.3-.04,4.08,1.38,6.06,5.65,5.96,5.89-.14,11.8-.14,17.69.04,3.25.1,4.63-1.13,5.12-4.39,1.32-8.67.27-17.29.14-25.95-.32-20.79-.18-41.58-.32-62.37-.02-3.56,1.34-4.96,4.97-4.88,6.98.16,13.96.05,20.94-.1,5.64-.12,7.38-2.03,7.39-7.64,0-4.97-.08-9.93.02-14.9.05-2.65-1-4.01-3.39-5.36h.02Z"/>
    </g>
    <path class="cls-2" d="M345.98,96.75c-4.87,6.11-14.39,8.09-21.9,4.2-1.12-.59-2.23-1.19-3.25-1.89,1.02.69,2.11,1.29,3.24,1.87,7.51,3.89,17.03,1.92,21.91-4.18Z"/>
    <path class="cls-2" d="M331.7,58.07c-15.08-.55-22.64,7.9-25.6,19.14-1.22,4.62-1.5,9.23-.67,13.64-.84-4.41-.56-9.03.66-13.66,2.96-11.24,10.52-19.69,25.6-19.14,1.84.07,3.68,0,5.52,0v.02c-1.84,0-3.67.06-5.51,0Z"/>
    <path class="cls-2" d="M333.93,69.36c3.57-1.57,7.77-2.28,11.77-1.34-4-.92-8.19-.21-11.76,1.36-6.83,3.02-11.63,8.93-10.87,17.48.09,1.03.06,2.19.29,3.16-.24-.97-.21-2.14-.3-3.18-.76-8.55,4.04-14.46,10.87-17.48Z"/>
    <path class="cls-2" d="M348.73,69.08c-.98-.46-1.99-.81-3.01-1.05,1.02.23,2.03.58,3.01,1.05Z"/>
    <path class="cls-2" d="M349.04,85.34c.17,1.21.18,2.48.04,3.8-.26,2.43-1.05,4.58-2.25,6.42,1.19-1.85,1.98-4.01,2.24-6.44.14-1.32.13-2.58-.03-3.78Z"/>
    <path class="cls-2" d="M351.59,70.86c.22.18.44.35.65.54-.21-.18-.42-.35-.64-.52-.92-.72-1.88-1.32-2.86-1.79.98.46,1.93,1.05,2.85,1.77Z"/>
    <path class="cls-2" d="M369.23,125.87c-.87.18-1.83-.19-2.74-.7-2.3-1.28-4.29-2.88-6.07-4.69,1.79,1.8,3.78,3.4,6.07,4.68.92.51,1.87.87,2.74.71Z"/>
    <path class="cls-2" d="M332.76,142.61c.39,0,.71-.05.98-.14-.27.1-.59.15-.98.15-.29,0-.55-.03-.78-.1.23.06.49.09.78.09Z"/>
    <path class="cls-2" d="M353.17,60.38c.24.17.5.3.76.38-.27-.07-.52-.2-.76-.38Z"/>
    <path class="cls-2" d="M370.27,47.95c-.46.75-.72,1.56-1.27,2.03-3.93,3.4-7.87,6.79-11.91,10.04-.86.69-2.08,1.08-3.16.74,1.08.33,2.29-.06,3.15-.75,4.05-3.25,7.99-6.64,11.91-10.04.55-.48.81-1.28,1.27-2.03-.03-.1-.06-.19-.09-.28.04.09.07.19.1.29Z"/>
    <path class="cls-2" d="M291.93,124.98c.08.14.17.25.26.35-.11-.09-.19-.21-.27-.34-.05-.08-.09-.17-.11-.25.03.08.07.16.12.24Z"/>
    <path class="cls-2" d="M292.96,125.72c.17.02.35.02.52.01-.18.03-.35.02-.52-.01Z"/>
    <path class="cls-2" d="M293.66,81.63c-.48-.77-1.39-1.09-2.55-1.11-4.02-.03-8.04-.02-12.07,0-1.65,0-2.98.79-4.1,1.91-.34.34-.75.74-1,1.16.23-.42.65-.83,1-1.18,1.12-1.12,2.45-1.9,4.1-1.91,4.02-.01,8.04-.02,12.07,0,1.17.01,2.08.34,2.55,1.13Z"/>
    <path class="cls-2" d="M294.51,47.36c.09-.26.22-.46.38-.62-.15.16-.28.37-.37.62-.07.19-.12.38-.16.56.03-.18.08-.37.15-.56Z"/>
    <path class="cls-2" d="M307.93,59.48c-.33.12-.74.09-1.26-.13.52.21.93.24,1.26.13Z"/>
  </g>
  <g>
    <path class="cls-1" d="M337.5,59.54c-8.14-.68-12.86,4.93-18,9.37-3,2.59-4.51,6.65-4.79,10.77-.33,4.95-.09,9.81,1.98,14.53,1.52,3.48,4.36,5.16,7.38,6.72,10.07,5.22,23.76-.11,25-11.81.46-4.36-.68-8.12-3.86-10.91-2.23-1.96-8.8-.07-12.04,2.65-2.03,1.7-1.84,3.86-1.71,5.97.22,3.62-1.74,5.28-4.93,5.38-3.7.12-3.26-2.96-3.47-5.37-.76-8.55,4.04-14.46,10.87-17.48,5.4-2.38,12.24-2.78,17.66,1.5,3.54,2.8,6.1,6.59,6.69,11.23,1,7.92-.7,15.36-5.44,21.77-8,10.81-26.77,12.01-37.27,3.41-9.98-8.17-12.37-19.11-9.48-30.08,2.96-11.24,10.52-19.69,25.6-19.14,1.84.07,3.68,0,5.52,0,.09.49.19.98.28,1.47v.02Z"/>
    <path class="cls-1" d="M328.78,41.41c0-3.31-.06-5.49.02-7.65.07-1.95,1.35-2.64,3.14-2.63,1.53,0,2.99.42,3.03,2.17.14,5.4.96,10.85-.82,16.16-.87,2.57-1.92,2.79-3.78.64-2.6-3.01-1.3-6.53-1.59-8.68h0Z"/>
    <path class="cls-1" d="M356.92,111.34c3.76-.35,5.54,1.78,7.46,3.54,1.94,1.77,3.64,3.82,5.6,5.56,1.57,1.39,1.89,2.9.7,4.47-1.15,1.52-2.73,1.08-4.19.26-4.59-2.55-7.94-6.4-10.96-10.57-.51-.71-1.37-1.49-.82-2.48.64-1.17,1.91-.73,2.21-.77h0Z"/>
    <path class="cls-1" d="M335.87,126.77c-1.06,4.09-.48,8.14-.71,12.13-.1,1.67.07,3.71-2.4,3.72-2.26,0-2.76-1.99-2.84-3.6-.23-4.62-.28-9.25-.12-13.87.06-1.7.16-4.16,2.64-4.22,2.13-.06,2.11,2.35,2.87,3.75.35.65.4,1.47.56,2.1h0Z"/>
    <path class="cls-1" d="M370.27,47.95c-.46.75-.72,1.56-1.27,2.03-3.93,3.4-7.87,6.79-11.91,10.04-1.07.86-2.7,1.26-3.92.36-1.72-1.26-.05-2.54.48-3.61,2.5-5.02,6.91-8.1,11.74-10.46,1.52-.75,3.98-1.15,4.89,1.65h-.01Z"/>
    <path class="cls-1" d="M307.37,110.57c2.15.66,2.13,2.56,1.11,3.96-3.61,4.96-8.42,8.53-14.06,10.95-.87.38-1.96.47-2.5-.49-.79-1.43-.05-2.72.85-3.82,3.2-3.88,7.6-6.25,11.58-9.15.87-.64,1.56-1.52,3.01-1.44h.01Z"/>
    <path class="cls-1" d="M376.33,86.09c-2.82-.29-5.4.52-7.64-.89-2.34-1.47-3.09-3.32.02-4.63,4.71-1.98,9.65-1.26,14.48-.44,1.19.2,2.06,1.43,1.9,2.84-.17,1.58-1.28,2.57-2.71,2.77-2.12.3-4.3.26-6.05.35Z"/>
    <path class="cls-1" d="M283.6,86.17c-2.62-.13-5.25-.21-7.87-.43-.89-.08-2.02-.41-2-1.53,0-.61.69-1.28,1.21-1.8,1.12-1.12,2.45-1.9,4.1-1.91,4.02-.01,8.04-.02,12.07,0,1.78.02,2.96.77,2.94,2.77-.02,2.01-1.26,2.69-3.02,2.71-2.48.04-4.95,0-7.43,0v.19Z"/>
    <path class="cls-1" d="M309.05,56.76c-.03,2.1-.76,3.91-3.49,1.95-3.5-2.5-6.79-5.3-10.13-8.03-1.03-.84-1.39-2.02-.92-3.32.37-1.01,1.26-1.22,2.22-1.33,3.71-.42,12.17,6.68,12.31,10.73h.01Z"/>
  </g>
</svg>