<?xml version="1.0" encoding="UTF-8"?>
<svg id="Capa_1" data-name="Capa 1" xmlns="http://www.w3.org/2000/svg" version="1.1" viewBox="0 0 1703 395.4">
  <defs>
    <style>
      .cls-1 {
        fill: #f9e5bf;
      }

      .cls-1, .cls-2, .cls-3, .cls-4, .cls-5 {
        stroke-width: 0px;
      }

      .cls-2 {
        fill: #06633d;
      }

      .cls-3 {
        fill: #32af87;
      }

      .cls-4 {
        fill: #5f9d46;
      }

      .cls-5 {
        fill: #e7441e;
      }
    </style>
  </defs>
  <g>
    <path class="cls-5" d="M737.1,242.7c0-15.6,0-31.1,0-46.7,0-2.5,0-5.3-1.8-7.2-1.5-1.7-3.9-2.1-6.2-2.4-4.3-.5-8.6-.5-12.9,0-1.9.2-3.9.6-5,2.1-.9,1.2-1,2.9-1,4.5-.2,19.4-.3,38.8-.5,58.2,0,9.7-.2,19.4-.2,29.1,0,6.5-2.4,15.9,6.7,16.7,5,.4,10,.4,15-.3,1.6-.2,3.4-.5,4.5-1.7,1.4-1.4,1.5-3.7,1.5-5.7,0-15.6,0-31.1,0-46.7Z"/>
    <path class="cls-5" d="M827.9,188.1c-14.5-6-29.4-3.8-42.9,2.5-12.8,6-21.3,17-26.8,30.4-12,29.7,2.6,59.2,26.5,73.2,7,4.1,15.5,3.8,23.4,5.1,16.5,2.7,29.7-5.2,40.9-14.9,12.1-10.4,17.1-25.3,15.9-39.5,0-29.6-10.9-45.9-37.1-56.7h0,0ZM800.5,271.7c-5.2-1-9.2-5.4-12.9-9.3-10.5-11.1-7.4-36.1,5.2-44.4,8.6-5.7,18.1-7.4,27.3-3.7,12.4,5,18.5,14.9,16.8,27.6,1.3,22-15.9,33.7-36.4,29.8h0Z"/>
    <path class="cls-5" d="M1276.1,185.2c-37.2-2.6-60,25.8-60.3,54.3-.5,38,22.3,61.2,60.4,60.1,25.1-.7,51-23.2,50.2-57.2.4-36.6-23.2-55.3-50.2-57.2h0ZM1272.9,271.8c-18.4,1.1-28.8-9.2-29.4-25.6-.7-20.2,10-35.3,27-33.4,16-1.7,28,13.4,28,26.8.1,24-9,31.2-25.6,32.2h0Z"/>
    <path class="cls-5" d="M1540.8,287.2c-.2-.2-.4-.4-.6-.6-6.9-6.2-13.1-13.2-18.3-20.8-1.2-1.8-2.5-3.9-2-6,.6-2.7,3.6-4.1,6-5.4,10-5.7,14-18.3,14-29.7,0-9.6-2.6-19.6-9.3-26.4-10-10.2-26.1-10.7-40.4-10.6-8,0-16,.2-24,.3-3.4,0-7.2.2-9.6,2.7-2.3,2.4-2.4,6-2.5,9.3-.1,17.8-.1,35.7,0,53.5s0,17.8.1,26.7c0,6.6-.6,14,7.3,16.5,4.4,1.5,9.3.9,13.9.2,1.9-.3,3.9-.6,5.2-2,1.5-1.6,1.6-4,1.5-6.2,0-7.7-.2-15.4-.3-23.1,0-1.3,0-2.7.9-3.5,1.7-1.6,4.4,0,6,1.6,5.1,5.3,8.6,11.9,12.9,17.9s9.6,11.7,16.6,14c7,2.3,14.6.9,21.9-.5.8-.2,1.7-.3,2.3-.9,2.1-1.7.3-4.9-1.7-7ZM1512.4,229.9c-.6,1.9-1.5,3.8-3,5.2-2.1,1.9-5.1,2.6-7.9,2.7s-5.7-.3-8.5,0c-3,.2-6.5,1-8.8-1-4.9-4.1-2.6-15.2-1.5-20.3.2-.8.4-1.6,1-2.1.5-.4,1.2-.5,1.8-.6,3.7-.6,7.4-.8,11.2-.7,3.3.1,6.7.5,9.8,2s5.7,4,6.5,7.2c.6,2.3.3,4.8-.3,7.2,0,.2-.1.4-.2.6Z"/>
    <path class="cls-5" d="M662.5,245.1c-4.2-6-2.3-10,1.3-14.4,9.9-12.1,20-24.2,30-36.2,2.9-3.5,3.4-6.4-2.2-6.5-8.3-.2-16.6,0-24.9.2-2.3,0-4.8.6-6.3,2.6-9,12-17.9,24.2-27.7,37.4,0-9.6,0-17.6,0-25.6,0-10.9-5.4-16.3-16.3-16.1-10.3.1-11.7,1.5-11.7,11.8,0,27.5,0,55,0,82.5,0,15.5,0,15.6,15.2,16.4,1.3,0,2.6.1,3.9.4,6.6,1.6,9.1-1.3,9-7.7-.1-9.3,0-18.7,0-28,0-2-.6-4.6,1.6-5.6,2.9-1.2,3.1,2,4.2,3.4,3.3,4,6.5,7.9,9.1,12.5,3.8,6.6,9.2,12.3,13.9,18.3,6.2,7.9,16.7,7.1,26.1,6.6,3.2-.2,7.5,1.4,9.1-2.4,1.6-3.7-1.4-6.7-3.6-9.6-10.1-13.4-21.2-26-30.8-39.8h0,0Z"/>
    <path class="cls-5" d="M1039.6,254.5c-1.3-1.7-2.7-3.4-4-5.1-2-2.5-4.1-5.2-4.5-8.5-.6-4.1,1.7-8.1,4.1-11.5,5.4-8,11.5-15.6,18.2-22.6,3.6-3.8,7.6-7.6,9-12.7.5-1.8.5-4.1-1-5.2-.8-.7-2-.8-3-.9-7.4-.8-15.1-1.5-22,1.2-13.3,5.2-18.8,20.8-28.6,31.2-1.1,1.2-2.7,2.3-4.1,1.6-1.2-.6-1.4-2.3-1.4-3.7,0-6.6,0-13.1,0-19.7,0-4-.3-8.6-3.5-10.9-1.7-1.3-4-1.6-6.1-1.7-3.7-.2-7.5,0-11.2.6-1.4.2-2.8.5-3.8,1.5-1.8,1.5-1.9,4.2-1.9,6.5,0,18.9,0,37.9,0,56.8,0,9.3,0,18.6,0,27.8,0,7.9-2,15.4,7.7,17.7s7.7.5,11.6,0c1.9-.2,4-.5,5.4-1.8,1.8-1.7,1.9-4.4,1.9-6.9,0-9.2,0-18.4,0-27.5,0-2.1.6-5,2.7-5.2,1.6-.1,2.8,1.4,3.6,2.8,6.4,10.5,13.8,20.4,21.9,29.7,2.6,3,5.4,5.9,9.1,7.5,3.8,1.6,8,1.5,12.1,1.4,5-.1,9.9-.2,14.9-.3.9,0,1.9,0,2.6-.7,1.5-1.3.3-3.7-.9-5.2-9.5-12.1-19-24.2-28.6-36.3Z"/>
    <path class="cls-5" d="M1432.4,229.1c-.1-11.3-.3-22.6-.4-33.9,0-2.2-.2-4.6-1.8-6.1-1.3-1.2-3.2-1.4-5-1.6-3.7-.3-7.3-.6-11-.9-1.8-.1-3.7-.3-5.2.6-2.4,1.4-2.8,4.7-2.9,7.4-.7,17.1-.8,34.2-.4,51.3.2,6.7.3,13.7-3.1,19.5-2.8,4.7-8,7.9-13.4,8.3s-11-2-14.5-6.2c-5.1-6.2-5.3-15-5.2-23,.2-17.5.3-35,.5-52.5,0-1.4,0-2.9-1-3.9-.8-.8-2-1.1-3.1-1.3-4.4-.7-8.8-.9-13.2-.7-2.2.1-4.6.5-6.1,2.1-1.5,1.7-1.6,4.2-1.7,6.5-.1,17.5-.2,35-.4,52.6-.1,16.2,0,29.1,12.8,40.7,6.3,5.7,14,10.1,22.4,11.5,8.6,1.4,17.6-.4,25.7-3.7,7.7-3.2,15-7.8,19.7-14.6,7.4-10.6,7.5-24.5,7.4-37.5,0-4.9-.1-9.8-.2-14.7Z"/>
    <path class="cls-5" d="M1633.7,257.2c-.7-2.7-1.9-5.3-3.4-7.6-7.8-11.8-23-15.5-35.2-22.5-4.2-2.4-8.6-6.3-7.8-11,.6-3.4,3.8-5.9,7.3-6.4s6.9.7,9.9,2.4c3.2,1.8,6.2,4.1,9.7,5,6.5,1.6,13.9-3.1,15.1-9.7,1-5.3-1.6-10.8-5.6-14.3s-9.3-5.4-14.5-6.6c-12.4-2.6-26-1.3-36.4,5.9-10.4,7.2-16.7,20.8-13.3,33,2.1,7.5,7.6,13.7,14,18.1s13.7,7.3,21,10c4.2,1.6,8.7,3.3,11.5,6.8s2.8,9.7-1.1,11.9c-1.5.9-3.2,1.1-4.9,1.2-4.8.5-9.8.9-14.1-1.2-2.8-1.4-5.1-3.7-7.8-5.2-4.4-2.3-10.1-2-14.3.8-14.3,9.6-2.6,21.7,8.1,26.6,10,4.6,21.4,6.7,32.3,4.7,10.9-2.1,21.1-8.5,26.6-18.1,4.1-7.1,5.3-16,3.1-23.9Z"/>
    <path class="cls-5" d="M940,238.1c-6.9-3.9-14.9-6.7-22.1-10.3-2.9-1.4-5.7-3.1-7.6-5.7s-2.6-6.3-1-9c2.2-3.7,7.6-4.1,11.6-2.7s7.5,4.3,11.5,5.8,9.3,1.4,11.8-2.2c1.4-2,1.5-4.5,2.6-6.6,1.2-2.3,3.5-4.1,3.5-6.7,0-2.6-2.1-4.6-4.3-6.1-9-6.3-20.1-9.8-31.1-9s-21.7,6.5-27.9,15.5c-6.2,9.1-7.4,21.6-2.1,31.3,3.8,7,10.5,12,17.5,15.6,6.2,3.2,12.8,5.5,19.1,8.5,3.7,1.8,7.8,4.4,8.2,8.5.3,3.2-2,6.3-5,7.7s-6.4,1.3-9.6.8c-6.5-1.1-12.5-4.2-18.1-7.6-2.8-1.7-6.3-3.4-9.1-1.8-1.2.7-1.9,1.8-2.7,2.9-2.1,3.2-6,8.7-6.2,12.6s3.3,6.5,6.5,8.8c10,7,22.1,11.5,34.4,11.1,12.2-.4,24.5-6.1,31.5-16.2,7-10,7.9-24.4,1-34.5-3.2-4.7-7.7-8.1-12.6-10.9Z"/>
    <path class="cls-5" d="M1200.2,188c-22.2-.3-44.4-.2-66.6,0-2.2,0-4.6,0-6.5,1.2-2.7,1.5-4.2,4.7-4.3,7.9-.3,6.5,1.2,15.7,8.9,16.6,3.8.4,7.6-.7,11.4-1.1s8.2.5,10.2,3.7c1.3,2.1,1.4,4.7,1.4,7.2,0,20,0,40,0,59.9,0,3.4.1,7.2,2.3,9.9,2.7,3.3,7.6,3.7,11.9,3.8,4.9.1,10.9-.4,13-4.9,1-2,.8-4.3.7-6.5-1.4-20.8-1.7-41.6-.9-62.4,0-2,.2-4,1.1-5.8,2.4-4.4,8.5-4.7,13.5-4.4s11.1.1,13.6-4.2c1.2-2.1,1.2-4.7,1.2-7.1,0-4.9-.8-10.8-5.2-12.9-1.7-.8-3.7-.8-5.6-.9,0,0,0,0-.1,0Z"/>
  </g>
  <g>
    <path class="cls-5" d="M385.6,162.3c-16.2-3.8-28.1-21-31.3-36.7-7.1-35.6,22.9-68.1,59.2-60.4,11.4,2.4,21.9,8.7,29.3,17.8,3.6,4.5,6.5,9.6,8.4,15,1,2.8,1.7,5.6,2.1,8.5.2,1.5.4,3,.5,4.5,0,1.3.4,3.1.2,4.3-.3,1.5-1.6,1.1-2.8,1.1-15.5.2-31.1,0-46.6,0-.8,1.2-2.2.9-3.1,1.4-3.5,2.3-4.1,5.6-5,9.1-.1.5-1.1.4-1.2.8-2.5,11.5-6.7,23.4-9.7,34.6h0Z"/>
    <path class="cls-5" d="M476.7,69.9c4.2-.8,7.5,4.2,4.7,7.2-.6.7-9.8,5.4-11.4,6.1-2.4,1.1-7.8,3.9-10.2,3.4-3.1-.6-4.5-5.1-2-7.2l18.9-9.5h0Z"/>
    <path class="cls-5" d="M401.5,25.9c2.8-2.3,6.5-.1,7,3.2.5,3.4.5,17.1,0,20.5-.7,4.6-7.9,4.2-8.4,1.2.6-6.8-.9-15.1,0-21.8.1-.9.7-2.6,1.4-3.1h0Z"/>
    <path class="cls-5" d="M349.7,78.5c4.3,3.3,1.1,8.9-3.5,8.1-1.3-.2-15.4-7.6-16.7-8.7-3.8-3.1-1.7-8.7,3.1-8,1.5.2,15.6,7.4,17.1,8.6Z"/>
    <path class="cls-5" d="M434.1,61.2c-1.7-1.3-1.6-3.8-.9-5.7.4-1.2,8.7-13.1,9.9-14.3,3.7-3.9,9.3.4,8.1,4.5-.3,1.1-8.4,12.2-9.8,13.8-1.8,2.3-4.7,3.8-7.3,1.7h0Z"/>
    <path class="cls-5" d="M358,40.3c1.2-1.3,4.9-2,6.2-.1,1.7,4.6,11.9,14.3,10.5,18.9-.9,3-5.3,3.8-7.6,1.2-.9-.9-9.2-13.3-9.5-14.1-.5-1.5-.6-4.8.5-5.9Z"/>
    <path class="cls-5" d="M349.8,142.5c2.9,2.3,2.3,5.2-.5,7.3-1.7,1.3-12.5,8-14,8.4-4.4,1.2-6.9-4.4-4.5-7.3,2.3-2.7,11.8-6.1,14.8-9.1,1.3-.3,3.1-.2,4.2.6h0Z"/>
    <path class="cls-3" d="M437.9,287.4c.4.1,3.7,4.5,4.8,5.5,11.3,10,26.4,11.1,41,9.6,4.9-.5,9.3-2.8,13.7-4.8v58.6h-107.6v-68c0,0,.8-.9.9-.9h47.1ZM417.7,307.4c.5,3.3-2.2,9.7,2.2,10.7h36.1c5.2.4,5.7-10.2,1.1-11.2-4.7.2-38.1-1-39.4.5h0Z"/>
    <path class="cls-1" d="M512.5,142.3l-19.3,77.4c-2.3-.1-3.9-1.6-6.3-1.8-1.8-.2-6.6.7-6.9.6-.2-.1-1.7-2.8-3.1-3.8-3-2.1-7.4-3-10.8-1.6-.2-3.8.2-7.7,0-11.5,5.8.2,9.5-3.1,11.3-8.3,1.5-4.3,5.4-20.7,5-24.6-.1-1.9-1-3.6-2.4-4.7-1.7-1.4-3.3-1.6-5.4-1.6h-3.7c-10.2,0-20.5-.7-30.8,0-.4,0-.8,0-1.2,0-5.7.8-8.3,5.1-9.7,10.3-1.2,4.4-4.9,18.6-4.8,22.4,0,2.1.4,4.2,2.4,5.3,1.3.7,2.5.8,3.9.8,1.8,0,3.6,0,5.4.2.6,0,1.1.1,1.6.6,0,0,0,0,0,0,0,0,.1.1.1.1,1.2,1.4.5,3.9.5,5.6v5c0,1.2,0,2.4,0,3.6,0,.4,0,.9,0,1.3,0,2.5,0,4.9,0,7.4,0,2.9,0,5.7,0,8.5,0,.3-.2,1.9,0,2-4.7-3.9-10.3-8.6-16.8-5-.2.1-4,3.2-4.2,3.4-2.5,2.5-3.1,7.6-2.6,10.9.6,3.5,4.5,7.1,4.8,10.6h-30.2l29.1-112.3,94.2-.7h0Z"/>
    <path class="cls-3" d="M536.7,124.2l-25.4,102.1c-2.3-.8-3.4-2.7-6-3.3-1.5-.4-2.8-.4-4.2-.3v-1.5c5.1-26.1,15.5-52.8,20.4-78.8.8-4.1.8-8.1-4.3-8.6-29.8.5-59.8-.6-89.4.3-3.4.1-10-.1-12.8.4-2.1.4-4,3.8-4.5,5.8-7.1,29.4-15.4,58.5-22.7,87.9-2,8.2-5.6,19.2-6.8,27-.6,4,0,7.4,4.4,8.6h39.2l6.4,12.7h-66.5l39.5-148.2c.4-2.1,2.2-4.1,4.4-4.1h128.5Z"/>
    <path class="cls-1" d="M498.6,235.4c.1-2.5-.6-4.5,2.8-4.6,2.1,0,4.5,1.9,4.9,3.9-.5,17.8,4.9,46.8-14.3,56.7-11,5.7-34.7,3.8-44.5-4.6-5-4.2-18.8-30.7-22.4-38.1-.7-1.4-2.1-3.6-2.4-4.8-1.8-6.8,4.9-8.2,9-3,2.5,3.1,5.9,12.1,8.2,14.1,1.9,1.6,4.5,1.2,5.7-.9l.4-55.9c1.2-7.9,10.5-7,11.4-.6,1.7,11.6-1.3,26.8,0,38.6.5,4.7,5.9,6.2,7.5,2.1,1.9-4.5-3-17.9,4.8-17.6,8.7.4-.3,20.7,6.8,22.3,8.7,1.9,3.1-12.4,5.6-16.4.4-.7,3.1-1.1,4-1.1,8,.4.2,19.1,6.9,21,2.7.8,4.1-1.8,4.8-4,.9-2.8.5-4.4.6-7.2h0Z"/>
    <path class="cls-4" d="M306.2,253.2c6.2,5,12,10.9,18.1,16,1.9,1.6,11,7.6,11.1,9.5,0,.6-.3,1.3-.8,1.4-1,.2-16.8-6.8-19.1-7.9-17-7.6-33.2-16.9-49.2-25.8-1.1-.6-5.1-1.7-5.5-2.1-4.2-4.4-13.1-11-18.8-14.1-1.6-.9-6.4-3.3-7.7-1.5-2.7,3.8,11.5,19.1,8.8,24.8-4.4-.5-8.7-3.5-12.1-6.3-2.6-2.2-7.4-8.8-10.6-8.8l-28.7,15.1c-1.3-9.5-1.3-19.1-1.2-28.6l29.8-20.5c3.7-2.5,10.2-9.2,14.5-8.2,1.4.3,7.4,5.5,8.9,6.8,16.1,13.7,30.1,30.7,48.5,41.5,5.6,3.3,8.7,4.3,14,8.6h0Z"/>
    <path class="cls-4" d="M335.8,200c10.3,10.2,20.9,20,32,29.4.5,1-2.4,12.1-3.1,12.1-5.1-3.1-10.7-5.4-15.8-8.3-12.8-7.2-25.1-16.5-37.5-24.4-2.9-1.8-11.8-7.5-10.3.2,1.1,6.1,10.9,17.8,13.5,24.6,1,2.6,2.6,5.9-.3,7.2.3-2-1.1-.6-1.8-1-5.3-2.4-10.3-5.8-15.1-9.1-14.1-9.6-27.4-20.7-41.1-30.8,5.1-4.6,10.6-8.7,16-13,7.4-5.8,16.3-13.9,23.9-19,3.2-2.1,4.7-3.3,8.4-.7,3.4,2.4,8.3,9.4,11.4,12.7,6.4,6.7,13.1,13.4,19.7,19.9h0Z"/>
    <path class="cls-1" d="M470.1,192.1c-.9,1.8-2.8,2.4-4.7,2.2-.3-1.8-3.3-5.7-4.9-6.9-8.4-6.4-19.3-2.5-22.3,7.5h-6c-1.2-.6-.2-1.9,0-2.7.8-3.1,1.1-6.3,1.8-9.4.4-1.9,2.9-12.7,3.6-13.3.2,0,.4,0,.6,0,.3,0,.8,0,1.2,0,3.7-.2,7.8,0,11.5,0,8,0,16.1,0,24.2,0,1.1,1.1-4.6,19.6-5,22.5h0Z"/>
    <path class="cls-4" d="M168.6,330.3l-35.6-67.1c1.3-1.2,11.3,9,12.4,10.3,13.5,15.5,20,36.9,23.3,56.8h0Z"/>
    <path class="cls-4" d="M234.7,286.3c-.4.6-.5,1.4-1.1,2.3-14.7,20.3-22.4,35.5-31.6,58.5-.4.9.4,1.6-1.4,1.3.9-5.8,1-11.7,2.2-17.4,3.1-14.5,14.3-32.6,25.8-41.6,2.2-1.8,4.8-3.1,7.4-4.4.6.9-1,1-1.3,1.4h0Z"/>
    <path class="cls-4" d="M162.6,243.9l-2.1,23.6c-4.3-4.7-9.2-8.9-13.8-13.2-.5-.5-.6-.4-.4-1.2l16.3-9.1h0Z"/>
    <path class="cls-4" d="M333.6,341.8l-29,13.3c-.7-.7,3.9-4.9,4.5-5.4,6.7-5.7,15.7-9,24.5-7.9h0Z"/>
    <path class="cls-4" d="M280.6,322.8c1.3,1.2,2.8,2,4,3.5,4.6,5.7,6.3,13.7,7.3,20.8l-15.7-27.5c2-.7,3.5,2.2,4.4,3.1h0Z"/>
    <path class="cls-4" d="M498,242.7c-.2-2.1-.4-5.5.6-7.2-.1,2.8.3,4.4-.6,7.2Z"/>
    <path class="cls-4" d="M262.9,336.9l-19.5,5.6-24.6,11c4.7-5.7,11.7-13.1,18.7-15.8.9-.3,3.9-1.4,4.5-1.6,7.2-2,13.8-1.1,20.9.7h0Z"/>
    <path class="cls-4" d="M118.3,308.7c4,1.9,9,3.9,13.1,6.6,12.4,8.2,22.5,21.9,26.7,36.1-1.2-1.7-3.7-3.1-4.9-4.4-7.4-7.9-14.5-16.3-22.6-23.7-6.2-5.7-13.4-12.2-21.2-15.4-.2-1,1.5-.7,2.1-.6,1.2.1,6,1,6.8,1.4h0Z"/>
    <path class="cls-4" d="M132.7,262c.4.2.4.4,0,.6v-.6Z"/>
    <path class="cls-4" d="M168.9,330.9c.4.2.4.4,0,.6v-.6Z"/>
    <path class="cls-2" d="M417.7,307.4c1.3-1.5,34.7-.3,39.4-.5,4.6,1,4.1,11.6-1.1,11.4h-36.1c-4.4-1.1-1.6-7.5-2.2-10.8h0Z"/>
    <path class="cls-2" d="M560.9,138.4c.7-6.1-2-13.6-6.4-17.8-5-4.9-12.4-5.3-18.9-5s-17.1.2-25.7.2-18.5,0-27.7,0-9.6,0-14.3,0-12.7-1-13.4,0c-.4.7-1.3.7-2.1.7h0c-.2,0-.4,0-.6,0s-.3,0-.5,0h0c-3.8,0-7.5,0-11.3,0s-5.2,0-7.7,0c-3.9,0-7.9,0-11.8,0h0c-4.8,0-9.7-.3-14.4,0-.3,0-.6,0-.9,0-.2,0-.3,0-.5,0-3.4.3-6.6,1.4-8.2,4.8-.7,1.3-5.6,20.7-10.8,41.1-4.8,19.1-9.7,39-11.4,45.9-.7.2-1.2-.1-1.8-.3-9.8-3.6-21.1-12.1-31.2-16l-31.7-33.6c-13.8-7.9-22.2,5.1-32.1,12.1-.5.4-2.5,2.1-3,1.6-.5-3.8.7-7.5.6-11.2-.1-18.4-9.1-38.9-25.3-48.4-4.5-2.6-10.1-5.4-15.2-5.7,0-1.4-.2-1.1.9-1.2,3.4-.4,7.1-.5,10.6-.6,4.2-1.4,9.2-.2,13.6-.6,1.9-.2,1.5.3,1.5-1.8-1-2.3-.3-2.4-2.4-4.2-.1,0-.9.2-1.1,0-.3-.4,0-1.4-.1-1.9-.4-.8-2-.9-1.2-3.5,2.5,0,2.8,2.3,3.6,3,2.5,2.3,7.5,8.6,9,9.6,2.1,1.5,8.2,1.9,11.1,2.6,3.2.8,6.6,2.1,9.8,2.9,1.2,0-1.8-8.9-2.1-9.7,0,0-.7-.3-1-1.1-.6-1.4-1.1-3.5-1.4-5,1.5.8,2.2,2.7,4.2,2.4.2,1-.8.4-1.1.7-.2.2.5,1.1.5,1.1,3.2,3.7,5.3,9,8.2,12.7,2.6,3.3,3.4,2.1,5.9,3.2,8.1,3.6,15.4,8.6,22.5,13.8,2.5,0,.9-5.9.6-7.3-8.4-39.4-54-62.2-89.9-41.6-3.2,1.9-5.6,4.2-8.8,6.1-.2.1-3.6,4.8-3.2,2,.5-2.7,4.1-6.1,5.8-8.2,5-6.1,10.6-11.8,16.6-17.3,4.6-4.2,9.7-8.1,14.5-12.1.4-2.8-4.4-2.4-5.5-4.5,2.4-.8,8.2.9,9.8.5,1.1-.3,5.3-4.3,6.9-5.2,7.2-4.5,14.8-6.9,22.9-9.1,2.3-1.7-.9-3.1-2.3-3.8-5.7-2.8-19.2-4.6-25.5-4.1-23.5,1.7-46.4,17.6-55.4,39.5-1.8,4.3-2.4,9.3-5,13.1-.8,0-3.4-10.6-4-12.2-4.4-11.3-16.5-24.7-27.3-30.8-17.6-9.9-41.3-11.4-58.3.4l1.2,2c5,.8,10.2,1.4,15.1,2.7,4.1,1.1,8.1,3.7,11.9,4.7,3,.5,11.9-1,13.9.6.4.4.9.2.6,1.2-2.2.5-5.5,1-7.5,1.8-2.1.8,3.9,3.6,4.2,3.9,10.9,9,19.2,18.3,28.1,29.5.8.9,5.1,3.8,3.6,5.3-1.5,1.5-4.3-2.8-5.2-3.6-11.1-8.5-33.4-12.8-47.1-11-.2,0-2.8,1-4.1,1.3-15.8,3.8-30.2,14-38.7,27.8-2.2,3.6-7.2,13.1-7.6,17.2,0,.7,0,1.4,0,2.1,3.5.5,5.9-2.7,8.8-4.2,2.6-1.4,5.8-3.1,8.5-4.2,4.7-1.9,12.7-3.2,16.3-5.4,2.7-1.7,6.4-6.8,9.2-9.1,1.2-1.1,3.2-.9,1.9-2.4,2.5.2,3.5-2.6,5.8-3,1.4-.3.7.6.2,1.3-2.4,3.3-4.9,5.8-7,9.4-.6.9-2,.6-1.4,2.6,16.4-2.5,33.1-2.5,49.6,0l-8.6,2c-31.3,8.1-52.8,39.1-48.2,71.4.4,2.6,2.1,9.4,3.9,11.2,1.2,1.2,2.2-1.8,2.8-2.6,4.3-6.5,8.4-12.8,13.9-19.3,1.3-1.5,6.5-5.7,7-6.7.4-.7.1-1.1.2-1.6-.4-.6-.4-1.2-.6-1.8-.9-3.1-1.1-7.7,0-10.9,0-2-.1-4,0-6,1.9-.6,1.3,2.5,1.2,3.6,1.2,3.4,1.6,7.2,3,10.6.2.6-.3,1.1.9.8,1.8-.4,10.9-10.3,13.5-11.6v-1.6c.1,0,.8-9.7.8-9.7.9.2,1.4,2.1,1.8,3,.3.6,1,3.4,1.2,3.6,1.4,1,5.2-3.8,6.5-4.8,3.2-2.5,13.3-10.5,16.3-11.4.8-.2,1.8-.3,1.4.8-.5,1.4-2.4,4.1-3.2,5.8-14.1,32-23.3,66.5-27.6,101l-25.9,16.4c-1.9.5-2.3-1.1-3-1.4-5.5-2.4-11.1-4.4-16.1.5-.2.2-2.8,3.6-2.9,3.8-6.8,13.2,2.6,32.8,8,45.2-.6.5-6.4-2.1-7.6-2.4-3.5-.8-11.1-1.9-14.5-1.9-.9,0-5.2.5-5.9.7-4,1.2-3.7,7.6-3.2,10.8,1.1,6.7,9,17.7,13.8,22.7,1.8,1.9,11.7,9.4,11.9,10.2.3,1.3-.4.7-.9.9-9.6,2.8-19.2,7.3-24.1,16.4-3.7,6.8-5.9,15.9,4.7,16.3h452.1c3.3-.2,7.3-1.8,8-5.3,1.1-5.4-2.5-6.1-5.3-6.8h-13.9v-129.7c-.4-.8.6-1.8.6-2,5.2-28.7,15.3-58,21.2-86.7ZM296.2,168.1c3.2-2.1,4.7-3.3,8.4-.7,3.4,2.4,8.3,9.4,11.4,12.7,6.4,6.7,13.1,13.4,19.7,19.9,10.3,10.2,20.9,20,32,29.4.5,1-2.4,12.1-3.1,12.1-5.1-3.1-10.7-5.4-15.8-8.3-12.8-7.2-25.1-16.5-37.5-24.4-2.9-1.8-11.8-7.5-10.3.2,1.1,6.1,10.9,17.8,13.5,24.6,1,2.6,2.6,5.9-.3,7.2.3-2-1.1-.6-1.8-1-5.3-2.4-10.3-5.8-15.1-9.1-14.1-9.6-27.4-20.7-41.1-30.8,5.1-4.6,10.6-8.7,16-13,7.4-5.8,16.3-13.9,23.9-19h0ZM191,200c2-20,6.5-41,12.3-60.3,1.8-6,4.1-11.9,5.9-18,2.1-.2,2.8,2,4.1,3,5.8,4.5,11.6,9.1,16.8,14.5,2.4-3,1.5-6.9,4.2-9.7.6.4.3,1.7.3,2.4.1,3.6,0,7.3,0,10.9.2.5,0,1.1.6,1.5l13,13c1-2.7,2.6-5.5,3.2-8.3.4-1.7-.8-5.4,1.4-5v14.8c0,.2-.6.9-.6,1.8,0,1.7,8.6,10.5,10.3,12.9.8,1.1,4.1,5.8,3.6,6.7l-17.7,13.2c-5.3-3.2-10-9.3-16.9-8.2-5.5.8-15.2,9.8-20.1,13.2l-20.7,13.3c.1-3.8.2-8,.6-11.8h0ZM146.3,252.9l16.3-9.1-2.1,23.6c-4.3-4.7-9.2-8.9-13.8-13.2-.5-.5-.6-.4-.4-1.2h0ZM132.7,262c.4.2.4.4,0,.6v-.6ZM153.1,347c-7.4-7.9-14.5-16.3-22.6-23.7-6.2-5.7-13.4-12.2-21.2-15.4-.2-1,1.5-.7,2.1-.6,1.2.1,6,1,6.8,1.4,4,1.9,9,3.9,13,6.6,12.4,8.2,22.5,21.9,26.7,36.1-1.2-1.7-3.7-3.1-4.9-4.4h0ZM133,263.2c1.3-1.2,11.3,9,12.4,10.3,13.5,15.5,20,36.9,23.3,56.8l-35.7-67.1h0ZM168.9,331.5v-.6c.4.2.4.4,0,.6ZM190.4,224.9l29.8-20.4c3.7-2.5,10.2-9.2,14.5-8.2,1.4.3,7.4,5.5,8.9,6.8,16.1,13.8,30.1,30.7,48.5,41.5,5.6,3.3,8.7,4.3,14,8.6,6.2,5,12,10.9,18.1,16.1,1.9,1.6,11,7.6,11.1,9.5,0,.6-.3,1.3-.8,1.4-1,.2-16.8-6.8-19.1-7.9-17-7.6-33.2-16.9-49.2-25.8-1.2-.6-5.1-1.7-5.5-2.1-4.2-4.4-13.1-11-18.8-14.1-1.6-.9-6.4-3.3-7.7-1.5-2.7,3.8,11.5,19.1,8.8,24.8-4.4-.5-8.7-3.5-12.1-6.3-2.6-2.2-7.4-8.8-10.6-8.8l-28.7,15.1c-1.3-9.5-1.3-19.1-1.2-28.6h0ZM200.7,348.4c.9-5.8,1-11.7,2.2-17.4,3.1-14.5,14.3-32.6,25.8-41.6,2.2-1.8,4.8-3.1,7.4-4.4.6.9-1.1,1-1.3,1.4-.4.6-.5,1.4-1.1,2.3-14.7,20.3-22.4,35.5-31.6,58.5-.4.9.4,1.6-1.4,1.3h0ZM243.4,342.5l-24.6,11c4.7-5.7,11.7-13.1,18.7-15.7.9-.3,3.9-1.5,4.5-1.6,7.2-2,13.8-1.1,20.9.7l-19.5,5.6h0ZM276.2,319.7c2-.7,3.5,2.2,4.4,3.1,1.3,1.2,2.7,2,4,3.5,4.6,5.7,6.3,13.7,7.3,20.8l-15.7-27.5h0ZM304.6,355.1c-.7-.7,3.9-4.9,4.5-5.4,6.7-5.7,15.7-9.1,24.5-7.9l-29,13.3h0ZM380.2,355.7c0,.8-.9.6-1.5.6-2.3.3-11.3.4-13.3,0-2.1-.4-1.1-1.7-1.5-2.4-4.9-8.8-9.8-14.2-16.9-21.1-.4-.3-.4.7-1.2-1.2-15.5-4.7-13.6-6.7-31.4-3.6-.2,0-.4,0-.6,0-.4,1-1.3,1.3-2.2,1.7-2.1,1-4.2,2.1-6.3,3.1,0-1.9-.6-3.7-1.2-5.4-1.2-3.4-2.5-5.5-4.2-8.3-3-5-5.8-7.1-10.9-9.8-1.2-.7-4-2.1-5.6-2.6-8.3-2.6-15.5-.8-23.4,2-2,.7-8,3.9-9.6,5.2-.3.2-3.3,4.7-3.7,1.8,0-.6,3.6-9.3,4.1-11l2-10.7c.1-.3.3-.3.6-.3,0-2-1.6-6.3,1.5-6.1,37.2.3,74.4-.3,111.5,0,3.6,0,9.8-.6,13,0,.7.1,1.2.2,1.4,1l-.5,67.3h0ZM389.8,356.3v-68c0,0,.8-.9.9-.9h47.1c.4.1,3.7,4.5,4.8,5.5,11.3,10,26.4,11.1,41,9.6,4.9-.5,9.3-2.8,13.7-4.8v58.6h-107.6ZM492,291.3c-11,5.7-34.7,3.8-44.5-4.6-5-4.2-18.8-30.7-22.4-38.1-.7-1.4-2.1-3.6-2.4-4.8-1.8-6.8,4.9-8.2,9-3,2.5,3.1,5.9,12.1,8.2,14.1,1.9,1.6,4.5,1.2,5.7-.9l.4-55.9c1.2-7.9,10.5-7,11.4-.6,1.7,11.6-1.3,26.8,0,38.6.5,4.7,5.9,6.2,7.6,2.1,1.9-4.5-3-17.9,4.8-17.6,8.7.4-.3,20.7,6.8,22.3,8.7,1.9,3.1-12.4,5.6-16.4.4-.7,3.1-1.1,4-1.1,8,.4.2,19.1,6.9,21,2.7.8,4.1-1.8,4.9-4-.2-2.1-.4-5.5.6-7.2.1-2.5-.6-4.5,2.8-4.6,2.1-.1,4.5,1.9,4.9,3.9-.5,17.8,4.9,46.8-14.3,56.7h0ZM414.6,244.7c.6,3.5,4.5,7.1,4.8,10.6h-30.2l29.1-112.3,94.2-.7-19.3,77.4c-2.3-.1-3.9-1.6-6.3-1.8-1.8-.2-6.6.7-6.9.6-.2-.1-1.7-2.8-3.1-3.8-3-2.1-7.4-3-10.8-1.6-.2-3.8.2-7.7,0-11.5-.1-1.8-.3-5.7-.6-7.2-.3-1.8-3.3-5.7-4.9-6.9-8.4-6.4-19.3-2.5-22.3,7.5-.7,2.4-.7,4.4-.6,6.9,0,.1,0,.3,0,.4,0,.1.6.9.6,2,0,1.9,0,3.8,0,5.8v2.5c0,1.2,0,2.4,0,3.6,0,.4,0,.9,0,1.3,0,2.5,0,4.9,0,7.4,0,2.9,0,5.7,0,8.5,0,.7,0,1.4,0,2-4.7-3.9-10.3-8.6-16.8-5-.2.1-4,3.2-4.2,3.4-2.5,2.5-3.1,7.6-2.6,10.9h0ZM511.3,226.3c-2.3-.8-3.4-2.7-6-3.3-1.5-.4-2.8-.4-4.2-.3v-1.5c5.1-26.1,15.5-52.8,20.4-78.8.8-4.1.8-8.1-4.3-8.6-29.8.5-59.8-.6-89.4.3-3.4.1-10-.1-12.8.4-2.1.4-4,3.8-4.5,5.8-7.1,29.4-15.4,58.5-22.7,87.9-2,8.2-5.6,19.2-6.8,27-.6,4,0,7.4,4.4,8.6h39.2l6.4,12.7h-66.5l39.5-148.2c.4-2.1,2.2-4.1,4.4-4.1h128.4l-25.4,102.1h0Z"/>
    <path class="cls-5" d="M477.3,193.2c-1.9,5.2-5.5,8.6-11.3,8.3-.1-1.8-.3-5.7-.6-7.2,1.9.2,3.8-.5,4.7-2.2.4-2.9,6-21.4,5-22.5-8,0-16.1,0-24.2,0-3.7,0-7.8-.2-11.5,0-.4,0-.9,0-1.2,0-.2,0-.4,0-.6,0-.8.6-3.2,11.4-3.6,13.3-.7,3.1-1,6.2-1.8,9.4-.2.8-1.2,2.1,0,2.7h6c-.7,2.4-.7,4.4-.6,6.9-.5-.4-.9-.5-1.6-.6-1.8-.2-3.6-.2-5.4-.2-1.5,0-2.6,0-3.9-.8-2-1.1-2.4-3.2-2.4-5.3,0-3.8,3.6-18,4.8-22.4,1.4-5.1,4-9.5,9.7-10.3.4,0,.8,0,1.2,0,10.2-.8,20.5,0,30.8,0h3.7c2.1,0,3.7.2,5.4,1.6,1.5,1.2,2.3,2.9,2.4,4.7.3,4-3.5,20.4-5,24.6h0Z"/>
  </g>
</svg>