<?xml version="1.0" encoding="UTF-8"?>
<svg id="Capa_1" data-name="Capa 1" xmlns="http://www.w3.org/2000/svg" viewBox="0 0 1389.74 395.41">
  <defs>
    <style>
      .cls-1 {
        fill: #e7441e;
      }

      .cls-2 {
        fill: #32af87;
      }

      .cls-3 {
        fill: #06633d;
      }

      .cls-4 {
        fill: #ec6a29;
      }

      .cls-5 {
        fill: #f9e5bf;
      }

      .cls-6 {
        fill: #5f9d46;
      }
    </style>
  </defs>
  <path class="cls-4" d="M950.04,198.33c0-4.65,1.02-9.59-.2-13.89-2.92-10.3-7.73-19.8-14.51-28.3-8.84-11.07-21.04-16.4-33.92-20.62-2.45-.8-4.82-1.81-7.51-2.19-12.99-1.85-25.51-.2-37.98,3.61-8.77,2.68-16.41,7.31-23.21,13.05-12.63,10.67-20.04,24.58-21.8,41.05-1.24,11.57-1.36,23.27,4.94,33.77,4.06,6.76,7.26,13.88,13.39,19.6,3.84,3.59,8.03,7.12,12.1,9.96,11.59,8.09,25.02,11.57,39.35,11.44,16.47-.15,31.09-5.03,44.31-14.96,9.74-7.32,16.83-16.43,21.74-27.41,3.59-8.02,3.98-16.51,3.31-25.1h0Z"/>
  <path class="cls-1" d="M950.04,198.33c.67,8.59.29,17.08-3.31,25.1-4.92,10.98-12.01,20.09-21.74,27.41-13.22,9.93-27.84,14.82-44.31,14.96-14.33.13-27.76-3.35-39.35-11.44-4.07-2.84-8.26-6.38-12.1-9.96-6.13-5.72-9.33-12.84-13.39-19.6-6.3-10.5-6.18-22.2-4.94-33.77,1.76-16.47,9.17-30.38,21.8-41.05,6.8-5.74,14.44-10.37,23.21-13.05,12.47-3.81,24.99-5.45,37.98-3.61,2.69.38,5.07,1.39,7.51,2.19,12.89,4.21,25.09,9.54,33.92,20.62,6.78,8.5,11.59,18,14.51,28.3,1.22,4.31.2,9.24.2,13.89h0ZM889.25,174.03c-.09-.49-.19-.98-.28-1.47-1.84,0-3.68.06-5.52,0-15.08-.55-22.64,7.9-25.6,19.14-2.89,10.97-.5,21.91,9.48,30.08,10.5,8.6,29.27,7.39,37.27-3.41,4.74-6.4,6.44-13.84,5.44-21.77-.59-4.65-3.14-8.43-6.69-11.23-5.42-4.29-12.26-3.88-17.66-1.5-6.83,3.02-11.63,8.93-10.87,17.48.21,2.41-.23,5.49,3.47,5.37,3.18-.1,5.15-1.77,4.93-5.38-.13-2.11-.32-4.27,1.71-5.97,3.24-2.72,9.82-4.61,12.04-2.65,3.17,2.79,4.32,6.56,3.86,10.91-1.24,11.69-14.93,17.02-25,11.81-3.01-1.56-5.85-3.25-7.38-6.72-2.07-4.72-2.31-9.58-1.98-14.53.28-4.13,1.79-8.18,4.79-10.77,5.14-4.44,9.86-10.06,18-9.37v-.02ZM880.53,155.9c.29,2.16-1.01,5.67,1.59,8.68,1.86,2.15,2.91,1.93,3.78-.64,1.78-5.31.96-10.76.82-16.16-.04-1.75-1.51-2.16-3.03-2.17-1.79,0-3.07.68-3.14,2.63-.08,2.17-.02,4.34-.02,7.65h0ZM908.67,225.83c-.3.04-1.57-.39-2.21.77-.55,1,.31,1.77.82,2.48,3.02,4.17,6.37,8.01,10.96,10.57,1.47.82,3.04,1.25,4.19-.26,1.19-1.57.87-3.07-.7-4.47-1.97-1.74-3.66-3.78-5.6-5.56-1.92-1.75-3.7-3.89-7.46-3.54h0ZM887.62,241.26c-.16-.63-.2-1.45-.56-2.1-.77-1.41-.74-3.81-2.87-3.75-2.48.06-2.58,2.52-2.64,4.22-.17,4.62-.11,9.26.12,13.87.08,1.62.58,3.61,2.84,3.6,2.47,0,2.3-2.05,2.4-3.72.23-4-.35-8.04.71-12.13h0ZM922.02,162.44c-.92-2.79-3.37-2.39-4.89-1.65-4.83,2.37-9.23,5.45-11.74,10.46-.53,1.06-2.2,2.34-.48,3.61,1.23.9,2.85.5,3.92-.36,4.05-3.25,7.99-6.64,11.91-10.04.55-.48.81-1.28,1.27-2.03h.01ZM859.12,225.06c-1.45-.08-2.14.81-3.01,1.44-3.98,2.91-8.38,5.28-11.58,9.15-.91,1.1-1.64,2.39-.85,3.82.53.96,1.62.87,2.5.49,5.64-2.42,10.45-5.99,14.06-10.95,1.02-1.4,1.03-3.3-1.11-3.96h-.01ZM928.08,200.58c1.76-.09,3.93-.05,6.05-.35,1.43-.2,2.54-1.19,2.71-2.77.15-1.42-.71-2.64-1.9-2.84-4.84-.82-9.77-1.53-14.48.44-3.11,1.31-2.36,3.16-.02,4.63,2.24,1.41,4.82.6,7.64.89ZM835.35,200.66v-.17c2.48,0,4.96.03,7.43,0,1.76-.03,3-.7,3.02-2.71.02-2-1.16-2.75-2.94-2.77-4.02-.03-8.04-.02-12.07,0-1.65,0-2.98.79-4.1,1.91-.51.51-1.2,1.19-1.21,1.8-.02,1.12,1.12,1.45,2,1.53,2.61.23,5.24.3,7.87.43v-.02ZM860.8,171.25c-.14-4.05-8.6-11.15-12.31-10.73-.95.11-1.85.32-2.22,1.33-.48,1.3-.12,2.48.92,3.32,3.34,2.72,6.62,5.53,10.13,8.03,2.73,1.95,3.46.14,3.49-1.95h-.01Z"/>
  <g>
    <path class="cls-1" d="M694.59,332.05v-25.83c0-12.64-.41-13.03-13.02-12.37-.52.02-1.06.02-1.58.09-2.89.36-4.36,1.53-3.79,4.89.82,4.86.56,9.82.17,14.72-1.21,15.07-1.45,30.17.19,45.2.35,3.27-2.75,7.74,1.11,9.56,3.05,1.44,7.24.41,10.92.67,4.7.33,6.13-1.96,6.06-6.34-.17-10.19-.06-20.38-.03-30.59h-.03Z"/>
    <path class="cls-1" d="M756.16,295.05c-9.86-4.09-19.92-2.59-29.08,1.7-8.71,4.07-14.48,11.52-18.17,20.65-8.14,20.16,1.78,40.16,17.99,49.65,4.74,2.78,10.51,2.55,15.89,3.43,11.23,1.83,20.16-3.56,27.75-10.12,8.21-7.08,11.59-17.18,10.76-26.79.02-20.06-7.39-31.16-25.16-38.51h.02ZM737.54,351.75c-3.52-.67-6.25-3.68-8.75-6.33-7.13-7.56-4.99-24.51,3.5-30.12,5.87-3.88,12.27-5.02,18.52-2.52,8.42,3.36,12.54,10.08,11.43,18.73.86,14.9-10.79,22.9-24.7,20.25h0Z"/>
    <path class="cls-1" d="M1060.32,293.08c-25.25-1.76-40.71,17.49-40.95,36.82-.31,25.76,15.12,41.52,40.96,40.8,17.04-.47,34.58-15.77,34.04-38.84.25-24.83-15.74-37.52-34.05-38.8h0ZM1058.18,351.84c-12.47.73-19.53-6.22-19.93-17.34-.5-13.71,6.8-23.93,18.29-22.66,10.83-1.18,18.97,9.07,19,18.16.08,16.31-6.12,21.18-17.35,21.84Z"/>
    <path class="cls-1" d="M1239.82,362.47c-4.49-4.69-9.08-9.28-12.76-14.7-2.02-2.99-1.86-5.29,1.36-6.93,6.13-3.12,9.39-8.42,10.39-14.83,2.24-14.22-2.49-25.32-14.35-29.32-7.46-2.52-15.62-2.09-23.54-1.79h-10.56c-7.63.01-9.19,1.54-9.2,9.32-.05,17.07-.02,34.14-.03,51.21,0,13.37.76,14.02,14.01,13.55,3.54-.12,5.2-1.27,5.04-4.95-.17-3.86-.2-7.75.01-11.61.15-2.67-1.38-7.11,1.23-7.59,3.02-.57,4.91,3.71,7.08,6.12.44.49.37,1.43.82,1.92,4.44,4.88,7.04,11.38,13.47,14.53,5.03,2.45,9.98,1.09,15,.49,1.52-.18,3.44.3,4.14-1.55.73-1.88-1.03-2.74-2.1-3.85h-.01ZM1220.7,323.37c-1,3.73-3.77,5.31-7.53,5.33h-4.73c-2.26-.59-6.36,1.67-7.64-1.69-1.6-4.2-.99-8.99-.16-13.51.09-.52.96-1.31,1.46-1.29,5.24.08,10.46-1.7,15.67,1.7,4.14,2.71,3.89,5.8,2.92,9.45Z"/>
    <path class="cls-1" d="M643.93,333.7c-2.85-4.1-1.55-6.78.89-9.76,6.75-8.23,13.57-16.4,20.38-24.57,1.96-2.36,2.28-4.31-1.5-4.43-5.63-.16-11.26-.01-16.89.14-1.57.05-3.29.44-4.29,1.77-6.13,8.17-12.18,16.41-18.82,25.4,0-6.5-.01-11.95,0-17.4.02-7.4-3.67-11.06-11.08-10.96-6.96.09-7.91,1-7.92,7.99-.03,18.66-.01,37.31,0,55.97,0,10.54.06,10.58,10.29,11.16.87.05,1.77.08,2.62.3,4.51,1.09,6.17-.91,6.11-5.24-.09-6.33-.03-12.67.01-19.01,0-1.35-.44-3.14,1.1-3.8,1.95-.84,2.07,1.36,2.86,2.33,2.22,2.7,4.42,5.36,6.2,8.46,2.58,4.49,6.25,8.37,9.44,12.43,4.19,5.35,11.32,4.84,17.72,4.45,2.18-.14,5.1.94,6.2-1.63,1.07-2.49-.92-4.53-2.43-6.54-6.84-9.09-14.36-17.65-20.87-27.02h-.02Z"/>
    <path class="cls-1" d="M899.79,340.16c-7.35-8.37-7.92-10.45-1.42-18.93.75-.98,1.28-2.13,2.1-3.04,3.29-3.64,5.39-8.27,9.43-11.28,3.44-2.55,5.95-6.89,5.44-10.14-.56-3.61-5.71-1.36-8.81-1.9-.85-.15-1.77.06-2.63-.03-4.21-.43-7.62.66-10.93,3.65-5.83,5.3-9.61,12.09-14.34,18.17-.65.83-1,2-2.3,1.77-1.54-.26-1.79-1.6-1.83-2.84-.1-3.35-.1-6.69-.1-10.03-.02-11.79-.39-12.01-12.16-11.79-4.31.08-5.97,1.73-5.9,6,.16,10.39.05,20.78.06,31.18,0,8.81-.05,17.62.01,26.42.07,10.98-1.62,11.78,10.78,11.7,6.69-.05,7.15-.11,7.21-6.88.06-6.16.02-12.33.09-18.49.01-1.24.19-2.58,1.75-2.87,1.28-.25,1.75.73,2.3,1.69,4.76,8.39,10.92,15.71,17.34,22.84,1.73,1.92,3.71,3.36,6.31,3.44,5.11.14,10.22.16,15.32.08,2.43-.03,3.95-.92,1.93-3.54-6.5-8.43-12.62-17.21-19.65-25.19h-.01Z"/>
    <path class="cls-1" d="M1166.29,322.86v-23.27c0-2.19-.08-4.35-3.03-4.66-3.14-.33-6.29-.74-9.43-1.06-2.72-.28-4.42.91-4.79,3.68-.3,2.26-.68,4.53-.7,6.8-.07,11.45.06,22.92-.09,34.37-.05,3.62.24,7.7-2.78,10.36-4.2,3.7-9.14,5.45-14.61,2.79-4.96-2.41-6.93-6.58-6.88-12.04.12-11.8.08-23.62.03-35.42-.05-11.42,1.29-10.28-10.48-10.64-5.2-.16-6.64,1.75-6.55,6.73.26,15.15.08,30.32.11,45.47,0,1.75-.15,3.69.53,5.21,9.92,22.27,31.55,24.64,48.17,12.77,7.09-5.07,10.99-13.12,10.57-22.59-.28-6.15-.06-12.34-.06-18.5h-.02Z"/>
    <path class="cls-1" d="M1303.34,341.83c-3.89-9.94-13.19-14.06-21.95-18.05-2.86-1.29-5.66-2.08-7.76-4.54-1.5-1.76-3.39-3.38-2.01-5.98,1.49-2.77,3.97-3.93,7.07-3.52,3.04.4,5.61,1.92,8,3.77,2.84,2.19,6.1,2.3,8.84.5,3.51-2.3,5.86-9.77,3.93-12.21-4.73-6-11.94-7.25-18.18-9.19-3.28.47-5.88.95-8.5,1.18-8.27.7-17.71,7.04-19.39,14.06-2.02,8.43-2.29,16.89,5.98,22.73,3.28,2.32,6.75,4.43,10.34,6.22,4.06,2.03,8.37,3.59,12.56,5.38,2.79,1.19,3.09,3.71,2.91,6.2-.12,1.67-.24,4.11-2.37,4.24-5.1.32-10.41,2.11-15.05-2.04-2.63-2.36-6.79-4.04-9.47-2.89-3.18,1.36-6.34,4.51-7.26,8.55-.9,3.98,1.83,6.66,4.65,8.16,11.88,6.29,24.2,9.57,37.08,2.67,6.83-3.67,13.23-18.42,10.57-25.23h.01Z"/>
    <path class="cls-1" d="M832.24,329.01c-6.1-2.69-11.87-6.1-17.93-8.9-3.54-1.63-3.97-4.34-3.08-7.4.95-3.28,3.9-3.09,6.58-2.84,3.28.32,5.79,2.47,8.64,3.83,5.28,2.5,7.83,1.46,9.78-3.88.3-.82.32-1.93.89-2.43,4.7-4.14.83-7.28-1.99-8.67-5.03-2.51-9.87-6.64-15.52-4.86-2.34,0-3.94-.11-5.52.02-9.17.79-16.66,4.88-19.42,13.79-2.43,7.84-3.75,16.38,4.36,22.75,2.66,2.09,5.46,3.85,8.43,5.36,4.69,2.38,9.45,4.63,14.21,6.89,2.67,1.26,4.27,3,3.5,6.22-.74,3.13-2.77,3.85-5.75,4.26-6.36.86-11.23-2.52-16.22-5.23-4.65-2.52-6.53-2.39-8.92,2.3-.72,1.4-1.29,2.88-2.15,4.2-1.83,2.83-1.54,5.12.99,7.46,2.41,2.24,5.43,3.06,8.18,4.53,11.24,5.92,22.27,6.37,32.97-.75,7.54-5.01,10.71-12.41,9.39-21.43-1.04-7.04-4.62-12.21-11.42-15.21h-.01Z"/>
    <path class="cls-1" d="M1008.82,294.88c-7.56-.08-15.13-.02-22.69-.03h-18.47c-11.15,0-12.04,1.08-10.74,12.11.47,3.92,2.51,5.55,6.36,5.3,3.16-.2,6.32-.23,9.48-.42,3.89-.24,5.52,1.67,5.23,5.4-.26,3.5-1.26,7.08-.78,10.46,1.45,10.35.61,20.71.78,31.08.17,10.4.03,10.4,10.65,10.15h.52c6.36-.23,8.58-2.26,7.77-8.4-1.55-11.76-.66-23.53-.84-35.29-.19-13.05-.06-13.05,12.98-13.38,5.92-.15,7.06-1.4,7.07-7.83.02-6.63-1.87-9.08-7.31-9.14h-.02Z"/>
  </g>
  <g>
    <path class="cls-3" d="M640.89,163.48c12.87-.16,25.74-.75,38.61-1,8.32-.16,10.26-1.45,9.88-9.91-.1-2.17-.03-4.34,0-6.52.14-9.07-.88-10.37-9.87-10.39-22.19-.06-44.38.12-66.57.11-2.85,0-5.33.6-7.55,2.33-.95,1.9-.67,3.96-.67,5.95,0,37.57,0,75.13.02,112.7h0c1.27,3.69,3.91,5.09,7.75,5.12,7.28.05,14.56.55,21.83.53,15.67-.03,31.33-.24,47-.41,3.3-.04,6.36-1,6.6-4.81.39-6.11,1.9-12.17.22-18.41-.79-2.95-1.81-3.94-4.87-3.91-14.43.13-28.86-.09-43.29.07-3.48.04-5.09-.66-4.79-4.5.3-3.85.16-7.76-.06-11.63-.19-3.3.81-4.75,4.4-4.69,9.62.16,19.24.05,28.86-.06,2.46-.03,4.94-.3,7.38-.68,2.78-.44,4.31-1.96,4.23-5.07-.13-4.96.08-9.92.04-14.89-.04-5.13-1.87-6.89-6.93-6.9-11.02,0-22.04-.12-33.05.05-3.66.06-5.04-1.25-4.87-4.87.19-4.18.22-8.39-.03-12.56-.26-4.29,1.56-5.63,5.72-5.69v.04Z"/>
    <path class="cls-3" d="M740.75,168.51c9.58-6.9,20.71-8.24,32.1-4.64,5.53,1.75,10.05,5.24,14.05,9.46,2.5,2.63,6,3.25,8.62,1.02,4.82-4.1,9.03-8.91,13.54-13.37,2.15-2.13,2.23-4.36.16-6.38-3.42-3.35-6.62-6.93-10.63-9.67-7.6-5.21-15.65-9.05-24.78-11.11-11.36-2.56-22.61-2.04-33.29,1.43-12.14,3.95-22.82,10.97-30.9,21.28-6.62,8.44-11.38,17.83-12.66,28.51-.92,7.69-1.6,15.33-.49,23.34,1.34,9.61,3.83,18.67,8.9,26.53,12.59,19.52,30.81,29.72,54.21,30.02,11.46.68,21.99-2.23,31.69-7.91,5.45-3.19,11.14-6.16,15.62-10.84,2.31-2.42,2.63-4.71.48-7.31-3.62-4.36-7.23-8.72-10.84-13.09-1.99-2.41-4.34-2.59-6.87-.99-3.44,2.17-6.84,4.39-10.22,6.65-9.44,6.3-20.05,6.64-29.9,2.99-12.85-4.76-20.49-15.45-22.55-28.82-2.23-14.49,1.19-28.04,13.75-37.09h.01Z"/>
  </g>
  <g>
    <path class="cls-3" d="M1303.36,247.82c-.7-3.06-2.05-3.84-5-3.97-4.52-.2-8.98-.85-13.22-2.96-8.44-4.21-14.33-10.86-19.4-18.57-3.41-5.18-3.68-5.25,1.75-7.84,6.74-3.21,12.57-7.54,16.29-14.04,6.37-11.12,7.32-22.94,3.77-35.22-2.13-7.36-5.5-14.25-11.22-19.14-9.14-7.82-20.5-10.79-32.32-11.14-14.42-.42-28.87-.21-43.3-.25-7.2-.02-9.6,2.32-9.24,9.45.76,15.35.29,30.71.36,46.07.1,21.54-.04,43.08-.03,64.62,0,5.13,1.28,6.58,6.35,6.79,5.54.23,11.1-.04,16.63.2,4.46.19,6.08-1.77,6.03-6.07-.14-10.55-.1-21.11-.05-31.66.01-2.18-.98-5.12,2.15-5.9,2.9-.72,5.85-.4,7.85,2.45,2.28,3.24,4.45,6.59,7,9.61,6.18,7.29,11.54,15.25,18.64,21.8,8.33,7.7,17.96,12.2,29.13,13.57.02.05.06.11.13.21.09.11.25.19.4.21,4.17.66,8.35.99,12.54.06,1.56-.55,3.55-.76,3.97-2.66,1.13-5.14,2.01-10.27.78-15.63h0ZM1250.23,194.81c-1.47.61-2.82,1.11-4.4,1.11-7.29,0-14.58-.09-21.86.08-2.68.06-3.49-.78-3.34-3.44.23-4.17.06-8.37.06-12.56s.07-8.69-.04-13.02c-.05-2.14.66-3.13,2.9-3.12,8.2.07,16.4-.13,24.59.14,4.89.16,10.17,5,11.08,10.28,1.36,7.89,1.2,16.28-8.98,20.54h-.01Z"/>
    <path class="cls-3" d="M1161.37,135.01c-5.09-.4-10.26-.5-15.35-.15-6.31.43-7.57,2.16-7.56,8.52.02,22.04.09,44.09,0,66.13-.02,4.24.23,8.46-1.63,12.67-5.47,12.44-15.29,16.07-27.45,12.64-6.3-1.77-11.86-10.91-11.88-18.88-.07-24.06-.26-48.13-.02-72.19.07-6.82-1.99-8.94-9.24-8.8-5.07.1-10.18.57-15.28.63-3.93.04-5.53,1.95-5.52,5.78.06,13.66.02,27.32.02,40.98h.08c0,11.49.12,22.98-.04,34.46-.12,8.28,1.82,15.9,5.91,23.1,5.83,10.25,14.54,17.48,25.45,20.89,13.1,4.09,26.33,4.09,39.72-1.26,18.37-7.33,28.96-23.73,29.49-39.94.84-25.59.21-51.22.15-76.84-.01-5.3-1.65-7.36-6.84-7.76v.02Z"/>
    <path class="cls-3" d="M1047.61,135.87c-3.5-1.97-6.7-.16-10-.18-23.75-.12-47.49-.05-71.24-.03-2.63,0-5.28-.06-7.89.17-3.08.27-4.62,1.91-4.5,5.25.18,5.11,0,10.24.03,15.36.01,4.14,3.02,6.99,7.15,7,7.56.02,15.12.25,22.68.13,4.19-.07,5.7,1.54,5.64,5.77-.19,14.27-.07,28.55-.07,42.83h.02c0,14.43.08,28.86-.05,43.3-.04,4.08,1.38,6.06,5.65,5.96,5.89-.14,11.8-.14,17.69.04,3.25.1,4.63-1.13,5.12-4.39,1.32-8.67.27-17.29.14-25.95-.32-20.79-.18-41.58-.32-62.37-.02-3.56,1.34-4.96,4.97-4.88,6.98.16,13.96.05,20.94-.1,5.64-.12,7.38-2.03,7.39-7.64,0-4.97-.08-9.93.02-14.9.05-2.65-1-4.01-3.39-5.36h.02Z"/>
  </g>
  <g>
    <path class="cls-4" d="M889.25,174.03c-8.14-.68-12.86,4.93-18,9.37-3,2.59-4.51,6.65-4.79,10.77-.33,4.95-.09,9.81,1.98,14.53,1.52,3.48,4.36,5.16,7.38,6.72,10.07,5.22,23.76-.11,25-11.81.46-4.36-.68-8.12-3.86-10.91-2.23-1.96-8.8-.07-12.04,2.65-2.03,1.7-1.84,3.86-1.71,5.97.22,3.62-1.74,5.28-4.93,5.38-3.7.12-3.26-2.96-3.47-5.37-.76-8.55,4.04-14.46,10.87-17.48,5.4-2.38,12.24-2.78,17.66,1.5,3.54,2.8,6.1,6.59,6.69,11.23,1,7.92-.7,15.36-5.44,21.77-8,10.81-26.77,12.01-37.27,3.41-9.98-8.17-12.37-19.11-9.48-30.08,2.96-11.24,10.52-19.69,25.6-19.14,1.84.07,3.68,0,5.52,0,.09.49.19.98.28,1.47v.02Z"/>
    <path class="cls-4" d="M880.53,155.9c0-3.31-.06-5.49.02-7.65.07-1.95,1.35-2.64,3.14-2.63,1.53,0,2.99.42,3.03,2.17.14,5.4.96,10.85-.82,16.16-.87,2.57-1.92,2.79-3.78.64-2.6-3.01-1.3-6.53-1.59-8.68h0Z"/>
    <path class="cls-4" d="M908.67,225.83c3.76-.35,5.54,1.78,7.46,3.54,1.94,1.77,3.64,3.82,5.6,5.56,1.57,1.39,1.89,2.9.7,4.47-1.15,1.52-2.73,1.08-4.19.26-4.59-2.55-7.94-6.4-10.96-10.57-.51-.71-1.37-1.49-.82-2.48.64-1.17,1.91-.73,2.21-.77h0Z"/>
    <path class="cls-4" d="M887.62,241.26c-1.06,4.09-.48,8.14-.71,12.13-.1,1.67.07,3.71-2.4,3.72-2.26,0-2.76-1.99-2.84-3.6-.23-4.62-.28-9.25-.12-13.87.06-1.7.16-4.16,2.64-4.22,2.13-.06,2.11,2.35,2.87,3.75.35.65.4,1.47.56,2.1h0Z"/>
    <path class="cls-4" d="M922.02,162.44c-.46.75-.72,1.56-1.27,2.03-3.93,3.4-7.87,6.79-11.91,10.04-1.07.86-2.7,1.26-3.92.36-1.72-1.26-.05-2.54.48-3.61,2.5-5.02,6.91-8.1,11.74-10.46,1.52-.75,3.98-1.15,4.89,1.65h-.01Z"/>
    <path class="cls-4" d="M859.12,225.06c2.15.66,2.13,2.56,1.11,3.96-3.61,4.96-8.42,8.53-14.06,10.95-.87.38-1.96.47-2.5-.49-.79-1.43-.05-2.72.85-3.82,3.2-3.88,7.6-6.25,11.58-9.15.87-.64,1.56-1.52,3.01-1.44h.01Z"/>
    <path class="cls-4" d="M928.08,200.58c-2.82-.29-5.4.52-7.64-.89-2.34-1.47-3.09-3.32.02-4.63,4.71-1.98,9.65-1.26,14.48-.44,1.19.2,2.06,1.43,1.9,2.84-.17,1.58-1.28,2.57-2.71,2.77-2.12.3-4.3.26-6.05.35Z"/>
    <path class="cls-4" d="M835.35,200.66c-2.62-.13-5.25-.21-7.87-.43-.89-.08-2.02-.41-2-1.53,0-.61.69-1.28,1.21-1.8,1.12-1.12,2.45-1.9,4.1-1.91,4.02-.01,8.04-.02,12.07,0,1.78.02,2.96.77,2.94,2.77-.02,2.01-1.26,2.69-3.02,2.71-2.48.04-4.95,0-7.43,0v.19Z"/>
    <path class="cls-4" d="M860.8,171.25c-.03,2.1-.76,3.91-3.49,1.95-3.5-2.5-6.79-5.3-10.13-8.03-1.03-.84-1.39-2.02-.92-3.32.37-1.01,1.26-1.22,2.22-1.33,3.71-.42,12.17,6.68,12.31,10.73h.01Z"/>
  </g>
  <g>
    <path class="cls-1" d="M385.61,162.27c-16.19-3.8-28.14-21.02-31.26-36.73-7.09-35.61,22.93-68.1,59.19-60.4,11.43,2.43,21.91,8.73,29.3,17.79,3.64,4.47,6.51,9.56,8.4,15,.96,2.77,1.67,5.63,2.12,8.53.23,1.48.39,2.97.48,4.46.08,1.26.44,3.12.17,4.33-.34,1.53-1.6,1.08-2.8,1.09-15.52.16-31.06-.1-46.59-.06-.77,1.2-2.25.9-3.1,1.45-3.51,2.26-4.14,5.55-5.05,9.05-.13.5-1.08.39-1.18.84-2.54,11.53-6.68,23.42-9.68,34.64Z"/>
    <path class="cls-1" d="M476.72,69.91c4.22-.85,7.46,4.23,4.72,7.18-.65.69-9.79,5.36-11.41,6.12-2.44,1.14-7.82,3.89-10.24,3.41-3.07-.61-4.45-5.12-1.97-7.16l18.89-9.54Z"/>
    <path class="cls-1" d="M401.5,25.86c2.8-2.26,6.52-.14,7.04,3.18.53,3.36.53,17.11,0,20.48-.73,4.64-7.88,4.23-8.42,1.25.64-6.84-.85-15.14-.03-21.78.11-.92.73-2.57,1.41-3.12Z"/>
    <path class="cls-1" d="M349.7,78.53c4.26,3.27,1.07,8.87-3.53,8.09-1.33-.23-15.37-7.6-16.72-8.71-3.81-3.14-1.72-8.74,3.12-8,1.53.23,15.61,7.45,17.13,8.62Z"/>
    <path class="cls-1" d="M434.13,61.16c-1.67-1.34-1.57-3.85-.92-5.7.42-1.2,8.74-13.07,9.89-14.28,3.72-3.89,9.34.43,8.12,4.46-.33,1.09-8.41,12.15-9.76,13.85-1.81,2.27-4.7,3.8-7.34,1.67Z"/>
    <path class="cls-1" d="M357.96,40.34c1.25-1.33,4.86-1.97,6.16-.12,1.71,4.6,11.85,14.29,10.49,18.88-.89,2.99-5.26,3.75-7.65,1.25-.9-.94-9.23-13.27-9.49-14.08-.46-1.45-.56-4.81.49-5.93Z"/>
    <path class="cls-1" d="M349.78,142.5c2.87,2.34,2.34,5.24-.47,7.34-1.71,1.28-12.53,8.01-13.99,8.41-4.4,1.23-6.92-4.41-4.53-7.3,2.27-2.74,11.76-6.13,14.78-9.1,1.3-.34,3.15-.22,4.21.65Z"/>
    <path class="cls-2" d="M437.89,287.38c.35.11,3.7,4.47,4.82,5.46,11.33,10.05,26.44,11.11,41.04,9.58,4.9-.51,9.3-2.78,13.67-4.76v58.63s-107.58,0-107.58,0v-67.99c0-.06.84-.91.91-.91h47.14ZM417.71,307.39c.54,3.3-2.23,9.7,2.18,10.68l36.14.14c5.17.24,5.68-10.38,1.07-11.37-4.7.21-38.1-.96-39.39.54Z"/>
    <path class="cls-5" d="M512.53,142.33l-19.34,77.36c-2.34-.13-3.91-1.55-6.34-1.81-1.8-.19-6.56.72-6.87.55-.21-.13-1.71-2.84-3.15-3.84-3.02-2.11-7.4-2.96-10.84-1.55-.19-3.8.24-7.7,0-11.48,5.82.22,9.47-3.07,11.32-8.32,1.49-4.27,5.35-20.67,5.03-24.65-.15-1.85-.97-3.55-2.42-4.73-1.69-1.38-3.31-1.62-5.4-1.62h-3.74c-10.24,0-20.55-.74-30.77.04-.39.03-.82-.05-1.21,0-5.7.8-8.26,5.15-9.67,10.27-1.21,4.4-4.85,18.57-4.83,22.37,0,2.11.43,4.2,2.39,5.32,1.3.74,2.48.75,3.94.76,1.79,0,3.58.04,5.35.21.65.06,1.11.13,1.6.57.02.02.05.04.07.06.05.05.1.1.15.15,1.22,1.39.47,3.94.48,5.55,0,.82,0,1.63,0,2.44s0,1.69,0,2.53c0,1.21-.01,2.42-.02,3.64,0,.43-.01.87-.01,1.29-.02,2.46-.05,4.93-.07,7.39-.02,2.85-.04,5.69,0,8.54,0,.33-.16,1.88.02,2.04-4.68-3.87-10.32-8.58-16.76-4.97-.23.13-3.98,3.16-4.18,3.36-2.46,2.5-3.11,7.62-2.58,10.94.56,3.52,4.52,7.06,4.8,10.61h-30.22l29.1-112.33,94.2-.68Z"/>
    <path class="cls-2" d="M536.7,124.19l-25.39,102.14c-2.27-.82-3.44-2.66-6.03-3.33-1.46-.38-2.76-.37-4.24-.3v-1.49c5.14-26.09,15.54-52.84,20.37-78.77.76-4.05.8-8.12-4.32-8.62-29.75.5-59.81-.62-89.39.26-3.35.1-10.05-.13-12.78.39-2.14.41-4.04,3.8-4.51,5.77-7.09,29.42-15.4,58.54-22.71,87.9-2.03,8.16-5.61,19.17-6.8,27.04-.61,4.05.03,7.42,4.42,8.59h39.18s6.41,12.73,6.41,12.73h-66.48l39.45-148.21c.37-2.09,2.2-4.1,4.36-4.1h128.43Z"/>
    <path class="cls-5" d="M498.63,235.4c.1-2.47-.62-4.5,2.82-4.65,2.09-.09,4.46,1.85,4.91,3.87-.52,17.78,4.87,46.77-14.34,56.72-10.98,5.68-34.68,3.76-44.46-4.57-4.98-4.24-18.81-30.73-22.38-38.06-.66-1.35-2.09-3.6-2.42-4.83-1.83-6.77,4.94-8.22,9.04-3,2.46,3.13,5.89,12.15,8.22,14.14,1.89,1.61,4.45,1.21,5.71-.9l.36-55.85c1.25-7.9,10.46-7.03,11.39-.58,1.68,11.62-1.32,26.8.04,38.64.54,4.71,5.85,6.18,7.55,2.09,1.88-4.51-3-17.87,4.83-17.55,8.69.36-.3,20.69,6.8,22.28,8.67,1.95,3.15-12.37,5.59-16.37.42-.69,3.12-1.13,3.95-1.08,8.01.45.19,19.09,6.93,20.97,2.7.75,4.15-1.76,4.84-3.99.88-2.81.48-4.41.6-7.25Z"/>
    <path class="cls-6" d="M306.18,253.18c6.21,5.03,11.95,10.89,18.09,16.05,1.88,1.58,11.03,7.61,11.08,9.47.01.57-.33,1.32-.83,1.42-1.02.19-16.76-6.84-19.15-7.9-16.95-7.58-33.24-16.92-49.24-25.84-1.15-.64-5.15-1.74-5.48-2.08-4.24-4.4-13.14-10.98-18.81-14.13-1.56-.87-6.36-3.32-7.69-1.46-2.7,3.76,11.52,19.09,8.8,24.82-4.44-.54-8.74-3.51-12.09-6.34-2.59-2.19-7.39-8.81-10.57-8.8l-28.7,15.14c-1.33-9.48-1.27-19.05-1.24-28.61l29.83-20.46c3.69-2.53,10.16-9.19,14.48-8.23,1.37.3,7.36,5.51,8.91,6.82,16.14,13.74,30.11,30.66,48.54,41.51,5.59,3.29,8.7,4.27,14.05,8.61Z"/>
    <path class="cls-6" d="M335.77,200.01c10.31,10.16,20.92,20.04,32.03,29.37.45,1.01-2.44,12.09-3.06,12.08-5.1-3.05-10.68-5.4-15.84-8.31-12.82-7.22-25.14-16.48-37.49-24.35-2.87-1.83-11.77-7.54-10.31.16,1.15,6.05,10.87,17.78,13.48,24.64.98,2.56,2.63,5.86-.29,7.24.27-2.03-1.08-.63-1.82-.97-5.27-2.45-10.26-5.8-15.06-9.05-14.13-9.58-27.37-20.68-41.14-30.77,5.09-4.62,10.64-8.72,16.02-12.98,7.38-5.84,16.26-13.9,23.91-19,3.23-2.15,4.71-3.31,8.43-.68,3.36,2.37,8.27,9.41,11.44,12.73,6.42,6.72,13.07,13.37,19.69,19.89Z"/>
    <path class="cls-5" d="M470.09,192.06c-.88,1.78-2.8,2.4-4.71,2.24-.33-1.82-3.33-5.72-4.88-6.91-8.39-6.43-19.34-2.51-22.32,7.51-2.01,0-4.03,0-6.04,0-1.22-.57-.19-1.92,0-2.71.78-3.15,1.14-6.32,1.81-9.38.41-1.88,2.86-12.73,3.62-13.3.2-.03.42.04.6,0,.33-.08.82.02,1.21,0,3.67-.25,7.75.03,11.48,0,8.05-.07,16.13.05,24.18,0,1.08,1.1-4.56,19.61-4.97,22.54Z"/>
    <path class="cls-6" d="M168.62,330.29l-35.65-67.08c1.28-1.21,11.28,8.98,12.4,10.26,13.5,15.47,20,36.93,23.26,56.82Z"/>
    <path class="cls-6" d="M234.7,286.35c-.4.57-.46,1.42-1.07,2.26-14.72,20.31-22.38,35.53-31.61,58.49-.37.91.35,1.64-1.36,1.32.9-5.79.97-11.67,2.21-17.42,3.11-14.46,14.28-32.56,25.79-41.6,2.25-1.77,4.82-3.13,7.36-4.42.58.87-1.04.98-1.32,1.37Z"/>
    <path class="cls-6" d="M162.58,243.87l-2.11,23.56c-4.32-4.72-9.18-8.87-13.82-13.24-.51-.48-.55-.41-.38-1.25l16.32-9.07Z"/>
    <path class="cls-6" d="M333.63,341.78l-29,13.29c-.69-.68,3.88-4.85,4.55-5.42,6.66-5.67,15.73-9.05,24.46-7.87Z"/>
    <path class="cls-6" d="M280.65,322.83c1.34,1.22,2.75,1.99,4.01,3.55,4.63,5.73,6.31,13.72,7.26,20.84l-15.7-27.5c2.03-.67,3.47,2.24,4.44,3.12Z"/>
    <path class="cls-6" d="M498.02,242.66c-.24-2.15-.37-5.51.6-7.25-.12,2.84.28,4.44-.6,7.25Z"/>
    <path class="cls-6" d="M262.91,336.95l-19.49,5.59-24.62,11.03c4.69-5.7,11.66-13.13,18.7-15.75.86-.32,3.94-1.44,4.47-1.59,7.21-1.99,13.84-1.14,20.93.71Z"/>
    <path class="cls-6" d="M118.3,308.72c4.01,1.85,8.99,3.9,13.05,6.58,12.39,8.18,22.48,21.91,26.71,36.14-1.2-1.74-3.66-3.07-4.94-4.42-7.4-7.89-14.5-16.26-22.56-23.68-6.2-5.71-13.42-12.23-21.16-15.41-.16-1.02,1.47-.66,2.1-.59,1.15.12,6.04,1.04,6.8,1.39Z"/>
    <path class="cls-6" d="M132.67,262c.39.2.39.4,0,.6v-.6Z"/>
    <path class="cls-6" d="M168.93,330.9c.39.2.39.4,0,.6v-.6Z"/>
    <path class="cls-3" d="M417.71,307.39c1.29-1.5,34.69-.33,39.39-.54,4.61.99,4.1,11.61-1.07,11.37l-36.14-.14c-4.42-.98-1.64-7.38-2.18-10.68Z"/>
    <path class="cls-3" d="M560.88,138.4c.67-6.12-1.99-13.56-6.35-17.83-2.7-2.66-5.96-3.2-9.37-4.84-30.21-.01-60.45.01-90.66,0-.42.67-1.3.71-2.14.67-.02,0-.04,0-.06,0-.2,0-.39-.02-.57-.03-.18-.01-.34-.02-.49-.02h-.05c-3.76.04-7.53.05-11.3.05-2.58,0-5.16,0-7.74-.02-3.94-.01-7.88-.04-11.82-.06h-.03c-4.77-.02-9.66-.34-14.42-.03-.3.01-.59.04-.88.06-.16.01-.31.03-.47.05-3.44.35-6.56,1.45-8.22,4.78-.67,1.35-5.64,20.7-10.78,41.07-4.8,19.06-9.73,39.02-11.4,45.95-.67.16-1.17-.11-1.77-.33-9.81-3.56-21.08-12.06-31.16-16l-31.71-33.56c-13.75-7.95-22.23,5.14-32.12,12.06-.54.38-2.53,2.05-2.96,1.57-.48-3.78.67-7.47.64-11.2-.15-18.42-9.12-38.95-25.34-48.4-4.46-2.61-10.14-5.37-15.19-5.67-.08-1.4-.21-1.08.9-1.21,3.43-.41,7.13-.5,10.59-.6,4.2-1.37,9.22-.25,13.63-.6,1.86-.15,1.55.3,1.48-1.81-.96-2.28-.33-2.44-2.42-4.23-.1-.08-.9.24-1.11-.08-.29-.43.08-1.43-.13-1.86-.42-.84-1.99-.94-1.17-3.5,2.46-.02,2.81,2.27,3.62,3.02,2.46,2.29,7.46,8.56,8.97,9.63,2.09,1.47,8.24,1.92,11.11,2.61,3.21.77,6.56,2.14,9.82,2.87,1.22.04-1.8-8.88-2.11-9.68-.03-.07-.74-.3-1.05-1.05-.57-1.39-1.14-3.48-1.37-5,1.48.84,2.22,2.67,4.22,2.43.24,1.02-.76.36-1.08.68-.21.21.51,1.07.47,1.12,3.18,3.67,5.31,8.97,8.19,12.66,2.61,3.34,3.41,2.12,5.85,3.21,8.09,3.61,15.36,8.59,22.52,13.76,2.45.03.94-5.87.64-7.3-8.4-39.36-54.01-62.23-89.87-41.6-3.25,1.87-5.64,4.18-8.82,6.1-.18.11-3.64,4.85-3.16,2,.46-2.71,4.05-6.08,5.77-8.16,5.03-6.09,10.58-11.85,16.57-17.26,4.65-4.2,9.7-8.14,14.53-12.11.37-2.76-4.4-2.39-5.46-4.5,2.38-.82,8.17.94,9.83.51,1.07-.28,5.34-4.28,6.9-5.25,7.22-4.48,14.76-6.87,22.89-9.14,2.3-1.68-.91-3.07-2.33-3.78-5.66-2.8-19.19-4.56-25.49-4.1-23.53,1.69-46.44,17.62-55.42,39.47-1.78,4.33-2.36,9.33-5.03,13.09-.81,0-3.38-10.59-3.99-12.2-4.36-11.28-16.48-24.71-27.33-30.81-17.64-9.91-41.34-11.42-58.31.39l1.22,2c5.01.76,10.24,1.38,15.12,2.7,4.14,1.13,8.09,3.69,11.95,4.68,3.01.51,11.95-.96,13.9.6.45.36.88.15.6,1.2-2.18.5-5.49,1.04-7.5,1.83-2.11.83,3.93,3.62,4.24,3.87,10.95,9.01,19.21,18.29,28.07,29.49.75.95,5.05,3.85,3.59,5.31-1.5,1.5-4.27-2.83-5.21-3.55-11.13-8.48-33.44-12.8-47.11-11-.23.03-2.83.99-4.14,1.3-15.83,3.83-30.18,13.98-38.68,27.81-2.21,3.6-7.22,13.12-7.62,17.18-.07.7.02,1.42.01,2.12,3.48.48,5.89-2.69,8.76-4.23,2.61-1.41,5.77-3.1,8.47-4.22,4.66-1.95,12.74-3.21,16.35-5.43,2.68-1.65,6.45-6.75,9.19-9.05,1.25-1.05,3.22-.89,1.95-2.42,2.54.21,3.48-2.57,5.76-3.02,1.43-.29.74.64.24,1.32-2.41,3.29-4.91,5.84-7.01,9.41-.55.94-1.97.6-1.41,2.55,16.4-2.54,33.15-2.47,49.55.01l-8.58,1.98c-31.27,8.11-52.77,39.12-48.17,71.39.36,2.59,2.11,9.44,3.87,11.24,1.17,1.2,2.25-1.83,2.75-2.58,4.3-6.48,8.37-12.8,13.93-19.31,1.28-1.49,6.48-5.72,7.01-6.73.35-.67.11-1.11.19-1.61-.35-.56-.42-1.2-.6-1.81-.91-3.09-1.09-7.71,0-10.88.02-1.98-.13-4.04,0-6.04,1.85-.62,1.29,2.49,1.2,3.62,1.23,3.43,1.61,7.25,2.97,10.64.22.57-.33,1.11.93.82,1.75-.41,10.87-10.32,13.47-11.65l.15-1.62.61-9.67c.91.24,1.4,2.14,1.81,3.02.28.62,1.04,3.45,1.24,3.6,1.4.96,5.23-3.8,6.48-4.78,3.16-2.49,13.27-10.51,16.26-11.4.8-.24,1.81-.35,1.39.79-.52,1.43-2.43,4.05-3.22,5.84-14.11,31.96-23.29,66.52-27.58,101.04l-25.93,16.42c-1.92.47-2.29-1.11-2.99-1.43-5.54-2.43-11.11-4.45-16.12.52-.17.17-2.78,3.58-2.89,3.79-6.78,13.16,2.63,32.83,8.03,45.17-.6.47-6.42-2.11-7.59-2.38-3.47-.79-11.06-1.88-14.47-1.85-.88.01-5.22.53-5.92.73-4.01,1.16-3.71,7.56-3.18,10.79,1.11,6.66,9.04,17.68,13.85,22.72,1.8,1.89,11.69,9.43,11.88,10.19.32,1.31-.39.73-.92.88-9.63,2.8-19.16,7.28-24.08,16.42-3.67,6.81-5.95,15.88,4.72,16.26h452.14c3.27-.25,7.28-1.77,7.99-5.3,1.09-5.43-2.49-6.06-5.29-6.81h-13.9l-.04-129.71c-.37-.83.59-1.75.65-2.04,5.19-28.66,15.3-58.02,21.16-86.72ZM296.21,168.07c3.24-2.15,4.71-3.32,8.43-.68,3.36,2.38,8.27,9.41,11.44,12.73,6.42,6.72,13.07,13.37,19.69,19.89,10.31,10.16,20.91,20.04,32.03,29.37.45,1.01-2.44,12.09-3.07,12.08-5.09-3.06-10.68-5.4-15.84-8.31-12.82-7.22-25.14-16.48-37.48-24.35-2.87-1.83-11.77-7.54-10.31.16,1.15,6.05,10.87,17.77,13.49,24.63.97,2.56,2.63,5.86-.28,7.24.27-2.02-1.08-.62-1.82-.97-5.27-2.44-10.26-5.8-15.06-9.05-14.13-9.58-27.37-20.68-41.14-30.77,5.09-4.62,10.64-8.72,16.02-12.98,7.38-5.84,16.26-13.9,23.91-19ZM191,200.05c2.02-19.98,6.52-40.98,12.26-60.26,1.8-6.03,4.15-11.95,5.87-18.01,2.06-.19,2.81,1.98,4.1,2.99,5.83,4.54,11.61,9.15,16.75,14.53,2.43-2.98,1.54-6.9,4.23-9.66.6.36.27,1.72.3,2.41.13,3.61-.09,7.27,0,10.88.18.47.08,1.13.58,1.54l13.02,12.96c.96-2.67,2.58-5.52,3.18-8.3.36-1.69-.76-5.44,1.35-4.99v14.81c0,.21-.63.87-.61,1.76.04,1.74,8.61,10.54,10.26,12.9.77,1.08,4.1,5.8,3.56,6.72l-17.74,13.2c-5.33-3.16-10.01-9.29-16.89-8.25-5.5.83-15.2,9.82-20.13,13.24l-20.7,13.32c.15-3.8.22-8.02.6-11.79ZM146.27,252.94l16.32-9.07-2.11,23.56c-4.32-4.72-9.18-8.87-13.82-13.24-.51-.48-.55-.42-.38-1.25ZM132.67,262c.39.2.39.41,0,.6v-.6ZM153.12,347.01c-7.41-7.89-14.51-16.26-22.57-23.67-6.2-5.71-13.41-12.23-21.16-15.42-.16-1.02,1.47-.66,2.1-.59,1.15.12,6.04,1.03,6.8,1.38,4.01,1.85,8.99,3.9,13.04,6.58,12.39,8.19,22.49,21.91,26.72,36.14-1.2-1.74-3.67-3.07-4.94-4.43ZM132.97,263.21c1.27-1.21,11.27,8.97,12.4,10.26,13.5,15.48,20,36.93,23.26,56.81l-35.65-67.07ZM168.93,331.5v-.6c.39.2.39.4,0,.6ZM190.36,224.92l29.83-20.45c3.69-2.53,10.16-9.19,14.48-8.23,1.37.3,7.36,5.51,8.91,6.82,16.14,13.75,30.11,30.67,48.54,41.51,5.59,3.29,8.7,4.27,14.05,8.61,6.21,5.03,11.95,10.89,18.1,16.06,1.88,1.57,11.03,7.61,11.08,9.47.02.57-.33,1.32-.83,1.42-1.02.19-16.76-6.84-19.15-7.91-16.95-7.57-33.24-16.92-49.23-25.83-1.16-.64-5.15-1.74-5.48-2.08-4.24-4.4-13.13-10.98-18.8-14.13-1.56-.87-6.36-3.32-7.69-1.46-2.7,3.76,11.52,19.09,8.8,24.82-4.44-.54-8.74-3.51-12.09-6.33-2.6-2.19-7.39-8.81-10.58-8.81l-28.7,15.15c-1.32-9.48-1.27-19.05-1.24-28.62ZM200.66,348.42c.9-5.78.97-11.66,2.21-17.42,3.12-14.45,14.28-32.56,25.79-41.59,2.25-1.77,4.82-3.13,7.36-4.43.58.88-1.05.98-1.32,1.37-.4.57-.46,1.42-1.07,2.26-14.71,20.31-22.38,35.53-31.6,58.49-.37.92.35,1.64-1.36,1.32ZM243.42,342.53l-24.62,11.03c4.69-5.7,11.66-13.13,18.7-15.74.86-.32,3.94-1.45,4.47-1.59,7.21-1.98,13.84-1.14,20.93.71l-19.49,5.58ZM276.21,319.71c2.03-.67,3.47,2.24,4.44,3.12,1.34,1.22,2.74,1.99,4,3.55,4.62,5.72,6.31,13.71,7.26,20.84l-15.71-27.5ZM304.62,355.07c-.69-.68,3.89-4.85,4.55-5.41,6.66-5.67,15.73-9.06,24.46-7.87l-29.01,13.29ZM380.17,355.68c-.07.83-.89.56-1.48.63-2.27.28-11.26.37-13.33-.02-2.14-.4-1.13-1.73-1.51-2.42-4.86-8.82-9.84-14.22-16.92-21.15-.35-.34-.38.66-1.21-1.21-15.55-4.72-13.65-6.69-31.43-3.63-.19.04-.41-.03-.6,0-.4,1-1.32,1.31-2.19,1.74-2.09,1.04-4.17,2.09-6.27,3.1.05-1.92-.59-3.67-1.21-5.44-1.2-3.44-2.53-5.48-4.24-8.3-3.02-4.98-5.83-7.08-10.87-9.83-1.23-.67-4.04-2.11-5.57-2.58-8.34-2.58-15.54-.82-23.44,1.98-2.03.73-7.99,3.94-9.61,5.2-.28.22-3.26,4.72-3.66,1.76-.08-.58,3.56-9.26,4.06-11.03l1.97-10.73c.1-.3.31-.34.59-.31-.05-1.95-1.65-6.27,1.48-6.07,37.18.31,74.38-.31,111.54.03,3.61.03,9.84-.59,13,0,.69.13,1.22.21,1.43.99l-.52,67.3ZM389.84,356.28v-67.99c0-.07.84-.91.91-.91h47.14c.35.11,3.71,4.46,4.82,5.46,11.33,10.05,26.44,11.11,41.04,9.58,4.89-.51,9.3-2.78,13.67-4.76v58.62s-107.58,0-107.58,0ZM492.01,291.34c-10.97,5.68-34.68,3.76-44.45-4.57-4.99-4.24-18.82-30.73-22.38-38.07-.66-1.36-2.09-3.6-2.42-4.83-1.83-6.77,4.94-8.23,9.04-3,2.46,3.13,5.89,12.15,8.22,14.14,1.89,1.61,4.45,1.2,5.71-.9l.35-55.85c1.25-7.91,10.46-7.03,11.39-.59,1.68,11.62-1.32,26.79.04,38.63.54,4.71,5.86,6.18,7.56,2.09,1.88-4.51-3-17.88,4.83-17.56,8.68.36-.3,20.69,6.79,22.28,8.68,1.94,3.15-12.38,5.6-16.38.42-.69,3.12-1.13,3.95-1.08,8.01.45.19,19.09,6.93,20.96,2.69.76,4.14-1.76,4.85-3.99-.25-2.14-.38-5.51.6-7.25.1-2.47-.62-4.5,2.81-4.65,2.09-.1,4.46,1.85,4.91,3.87-.51,17.79,4.87,46.77-14.34,56.72ZM414.65,244.74c.56,3.52,4.52,7.06,4.8,10.61h-30.22l29.1-112.33,94.2-.68-19.34,77.36c-2.34-.13-3.91-1.55-6.34-1.81-1.8-.19-6.56.72-6.87.55-.21-.13-1.71-2.84-3.15-3.84-3.02-2.11-7.4-2.96-10.84-1.55-.19-3.8.24-7.7,0-11.48-.11-1.77-.32-5.66-.6-7.25-.33-1.82-3.33-5.72-4.88-6.91-8.39-6.43-19.34-2.51-22.32,7.51-.71,2.37-.68,4.45-.62,6.85,0,.13,0,.27.01.4,0,.1.64.95.65,2.04.03,1.92.04,3.84.04,5.77,0,.84,0,1.69,0,2.53,0,1.21-.01,2.42-.02,3.64,0,.43-.01.87-.01,1.29-.02,2.46-.05,4.93-.07,7.39-.02,2.85-.04,5.69,0,8.54,0,.68.01,1.36.02,2.04-4.68-3.87-10.32-8.58-16.76-4.97-.23.13-3.98,3.16-4.18,3.36-2.46,2.5-3.11,7.62-2.58,10.94ZM511.32,226.33c-2.27-.82-3.44-2.66-6.03-3.33-1.46-.38-2.76-.37-4.24-.3v-1.49c5.14-26.09,15.54-52.84,20.37-78.76.76-4.05.8-8.12-4.31-8.62-29.75.5-59.81-.62-89.39.26-3.35.1-10.05-.13-12.78.39-2.14.41-4.04,3.8-4.51,5.77-7.09,29.41-15.4,58.54-22.71,87.9-2.03,8.16-5.61,19.17-6.8,27.04-.61,4.05.03,7.42,4.42,8.58h39.18s6.41,12.73,6.41,12.73h-66.48l39.46-148.22c.37-2.09,2.2-4.1,4.36-4.1h128.43l-25.39,102.14Z"/>
    <path class="cls-1" d="M477.31,193.23c-1.85,5.25-5.5,8.55-11.32,8.32-.11-1.77-.32-5.66-.6-7.25,1.91.16,3.82-.47,4.71-2.24.41-2.92,6.05-21.44,4.97-22.54-8.05.05-16.13-.07-24.18,0-3.73.03-7.81-.25-11.48,0-.39.02-.88-.08-1.21,0-.19.04-.41-.03-.6,0-.76.57-3.22,11.42-3.62,13.3-.67,3.06-1.03,6.23-1.81,9.38-.2.79-1.23,2.14,0,2.71,2.01,0,4.04,0,6.04,0-.71,2.37-.68,4.45-.62,6.85-.48-.44-.94-.51-1.6-.57-1.78-.17-3.56-.2-5.35-.21-1.46,0-2.64-.02-3.94-.76-1.96-1.12-2.38-3.22-2.39-5.32-.01-3.79,3.62-17.96,4.83-22.37,1.41-5.12,3.97-9.47,9.67-10.27.39-.05.82.03,1.21,0,10.22-.78,20.53-.04,30.77-.04h3.74c2.09,0,3.71.24,5.4,1.62,1.45,1.19,2.27,2.88,2.42,4.73.33,3.97-3.53,20.38-5.03,24.65Z"/>
  </g>
</svg>